<?xml version="1.0" standalone="no"?>
<!DOCTYPE svg PUBLIC "-//W3C//DTD SVG 1.1//EN" "http://www.w3.org/Graphics/SVG/1.1/DTD/svg11.dtd" >
<svg xmlns="http://www.w3.org/2000/svg" xmlns:xlink="http://www.w3.org/1999/xlink" version="1.1">
<metadata>
Created by FontForge 20170731 at Mon Feb 14 12:19:06 2022
 By Aleksey,,,
Copyright 2006 House Industries/Brand Design Co., Inc. All Rights Reserved.
</metadata>
<defs>
<font id="BurbankBigCondensed-Bold" horiz-adv-x="786" >
  <font-face 
    font-family="Burbank Big Cd Bd"
    font-weight="600"
    font-stretch="normal"
    units-per-em="2048"
    panose-1="0 0 0 0 0 0 0 0 0 0"
    ascent="1536"
    descent="-512"
    x-height="1026"
    cap-height="1423"
    bbox="-150 -516 1718 1923"
    underline-thickness="102"
    underline-position="-307"
    unicode-range="U+0020-FB04"
  />
<missing-glyph horiz-adv-x="358" 
 />
    <glyph glyph-name="ff" unicode="ff" horiz-adv-x="1089" 
d="M1075 745q-56 3 -160 5v-789q-114 0 -264 -2q-6 399 -6 791h-84q4 73 0 245q37 -2 86 -4v43q0 204 72 305t223 101q55 0 158 -21q-11 -63 -17 -237q-92 15 -127.5 -21t-35.5 -139v-33q95 0 161 2q-1 -11 -2 -31t-3 -84t-1 -131zM510 713q-41 2 -115 2v-688
q-116 0 -266 -2q-6 328 -6 692h-109q4 66 0 244q43 -3 111 -5v39q0 391 315 391q75 0 146 -16q-11 -63 -17 -237q-97 10 -133.5 -24.5t-38.5 -135.5v-23h119q-6 -87 -6 -237z" />
    <glyph glyph-name="fi" unicode="fi" horiz-adv-x="929" 
d="M543 725q-56 2 -148 2v-702q-116 0 -266 -2q-6 340 -6 706h-109q4 74 0 250q45 -4 111 -6v61q0 202 69 302t220 100q67 0 139 -17q-10 -65 -16 -237q-78 6 -109 -29t-31 -131v-55q49 -2 152 -2q-6 -90 -6 -240zM621 -33q1 277 -7 1028q91 -2 269 2q0 -378 8 -1028
q-112 0 -270 -2zM754 1116q-78 0 -117 45.5t-39 130.5q0 78 39.5 121t118.5 43q73 0 111 -45t38 -121q0 -87 -41 -130.5t-110 -43.5z" />
    <glyph glyph-name="fl" unicode="fl" horiz-adv-x="942" 
d="M539 725q-54 2 -144 2v-694q-116 0 -266 -2q-6 330 -6 698h-109q4 76 0 254q43 -2 111 -6v14q2 203 68.5 303.5t220.5 100.5q59 0 143 -19q-10 -65 -16 -237q-82 9 -112 -25t-32 -135v-10l148 -2q-6 -92 -6 -242zM889 -10q-79 3 -148 4t-98 0h-29q4 403 4.5 762.5
t-0.5 517.5l-2 158l273 -7q-4 -461 -4 -820t2 -487z" />
    <glyph glyph-name="ffi" unicode="ffi" horiz-adv-x="1452" 
d="M1065 735q-55 2 -164 4v-770q-114 0 -264 -2q-6 386 -6 774h-72q4 74 0 246q31 -2 74 -4v51q0 205 76 305.5t231 100.5q50 0 137 -17q-10 -63 -16 -237q-81 6 -118.5 -31.5t-37.5 -132.5v-47q53 -2 166 -2q-6 -88 -6 -238zM510 707q-39 2 -115 4v-678q-116 0 -266 -2
q-6 323 -6 682h-109q4 65 0 243q43 -2 111 -4v45q0 190 79.5 291t239.5 101q61 0 134 -15q-9 -65 -17 -239q-95 12 -128.5 -25t-35.5 -135v-29h119q-6 -89 -6 -239zM1141 12q2 230 -6 981q92 -2 270 2q-2 -331 8 -981q-112 0 -272 -2zM1276 1120q-78 0 -118 45.5t-40 130.5
q0 76 39.5 120t118.5 44q73 0 112 -45t39 -121q0 -87 -41.5 -130.5t-109.5 -43.5z" />
    <glyph glyph-name="ffl" unicode="ffl" horiz-adv-x="1468" 
d="M1073 739q-53 2 -151 4v-782q-117 0 -267 -2q-4 392 -4 784h-90q0 8 0.5 25.5t1.5 80.5t0 140q35 -2 88 -4v59q2 202 67.5 302t219.5 100q74 0 147 -16q-10 -66 -16 -238q-83 9 -114 -25t-31 -135v-49q94 0 157 2q-8 -96 -8 -246zM510 713q-41 2 -115 2v-697
q-116 0 -266 -2q-6 335 -6 701h-109q4 66 0 244q43 -3 111 -5v35q2 189 80 291t237 102q75 0 148 -16q-11 -66 -17 -238q-98 10 -136 -24.5t-40 -134.5v-21h119q-6 -87 -6 -237zM1415 -4l-272 6q4 402 4 755t-2 505l-2 151l272 -6q-4 -461 -4 -814t2 -475z" />
    <glyph glyph-name=".notdef" horiz-adv-x="358" 
 />
    <glyph glyph-name=".null" horiz-adv-x="0" 
 />
    <glyph glyph-name="nonmarkingreturn" horiz-adv-x="682" 
 />
    <glyph glyph-name="space" unicode=" " horiz-adv-x="358" 
 />
    <glyph glyph-name="exclam" unicode="!" horiz-adv-x="417" 
d="M213 -20q-85 0 -135.5 49.5t-50.5 136.5q0 81 49 131.5t135 50.5q88 0 134 -54t46 -132q0 -84 -49.5 -133t-128.5 -49zM94 428q-14 501 -41 1002q121 -4 305 0q-16 -456 -28 -1002q-97 4 -236 0z" />
    <glyph glyph-name="quotedbl" unicode="&#x22;" horiz-adv-x="552" 
d="M53 954q-10 200 -30 473q78 1 217 7q-9 -161 -11 -471q-57 -1 -176 -9zM319 946q2 128 -12 510q76 -8 223 -8q-20 -194 -32 -508q-73 6 -179 6z" />
    <glyph glyph-name="numbersign" unicode="#" horiz-adv-x="768" 
d="M436 403q0 97 2 226h-112l6 -201q-7 1 -20 2t-64 3t-113 1q0 80 2 191l-125 -2q6 57 -2 192q49 -2 127 -2q0 131 -2 217l-115 -2q2 52 -2 193q64 -2 115 -2l-4 190q72 -2 195 2q-2 -96 -2 -192l112 2q0 67 -4 211q68 -4 197 2q-2 -100 -2 -209l127 4q-1 -6 -2 -18.5
t-2 -61.5t0 -109h-123l2 -225l131 4q0 -6 -0.5 -18t-1.5 -60t0 -112q-59 2 -127 2l6 -228q-58 4 -199 0zM322 1034q0 -133 2 -221h114q0 135 -2 223q-71 0 -114 -2z" />
    <glyph glyph-name="dollar" unicode="$" horiz-adv-x="745" 
d="M508 -70l-258 4q8 107 8 181q-139 30 -197 142t-47 308q95 -10 285 -18q-17 -116 6 -176t76 -60q80 0 80 115q0 58 -37 104t-133 93q-156 80 -216.5 166.5t-60.5 218.5q0 124 64 203t184 102l-10 194l256 4l-12 -204q123 -34 178 -141t43 -302q-99 9 -275 13
q14 106 -6 170.5t-67 64.5q-76 0 -76 -117q0 -58 35 -100.5t112 -77.5q94 -42 155 -85t91.5 -90.5t41.5 -92t11 -105.5q0 -269 -235 -327z" />
    <glyph glyph-name="percent" unicode="%" horiz-adv-x="1138" 
d="M279 713q-146 0 -207.5 102t-61.5 299q0 165 69.5 257.5t203.5 92.5q268 0 268 -381q0 -103 -19.5 -176t-56.5 -115t-85 -60.5t-111 -18.5zM281 848q36 0 51.5 50.5t15.5 191.5q0 129 -15 181t-52 52t-53.5 -54.5t-16.5 -172.5q0 -141 16 -194.5t54 -53.5zM279 -14
q-35 5 -69.5 8.5t-51.5 4.5l-17 1q208 412 383 768.5t246 506.5l70 150q38 -4 73.5 -6t51.5 -2h16q-280 -557 -455.5 -914.5t-211.5 -436.5zM854 -27q-146 0 -208 99.5t-62 292.5q0 163 69.5 260.5t204.5 97.5q270 0 270 -375q0 -200 -71 -287.5t-203 -87.5zM856 106
q37 0 52.5 50.5t15.5 185.5q0 133 -15.5 187.5t-52.5 54.5q-36 0 -52 -52.5t-16 -175.5q0 -143 15.5 -196.5t52.5 -53.5z" />
    <glyph glyph-name="ampersand" unicode="&#x26;" horiz-adv-x="983" 
d="M395 -49q-175 0 -277 107.5t-102 279.5q0 123 51.5 209t143.5 162q-105 190 -105 358q0 178 86 282.5t246 104.5q146 0 225.5 -95.5t79.5 -242.5q0 -66 -15 -125t-35.5 -100.5t-57.5 -86t-64.5 -70t-72.5 -64.5q83 -112 157 -195q26 112 37 248q67 -12 128.5 -21.5
t89.5 -12.5l28 -3q-21 -256 -86 -414l135 -127q-52 -57 -156 -172l-102 101q-126 -123 -334 -123zM436 184q69 0 123 66q-133 143 -215 256q-39 -64 -39 -141q0 -82 34 -131.5t97 -49.5zM348 1063q0 -100 43 -201q105 109 105 238q0 123 -72 123q-35 0 -55.5 -43.5
t-20.5 -116.5z" />
    <glyph glyph-name="quotesingle" unicode="'" horiz-adv-x="268" 
d="M41 948q2 116 -18 496q9 -1 25.5 -1.5t74.5 -1.5t123 1q-19 -180 -27 -494q-72 4 -178 0z" />
    <glyph glyph-name="parenleft" unicode="(" horiz-adv-x="512" 
d="M256 -266q-105 192 -159 425t-54 462q0 254 59 499.5t174 409.5q68 -23 125.5 -41t80.5 -25l24 -6q-88 -173 -132 -389.5t-44 -445.5q0 -412 172 -822q-68 -16 -129.5 -33t-88.5 -26z" />
    <glyph glyph-name="parenright" unicode=")" horiz-adv-x="512" 
d="M256 -287q-94 33 -246 70q82 205 127 429t45 421q0 497 -176 846q84 22 236 71q113 -168 170 -414t57 -495q0 -235 -53.5 -479.5t-159.5 -448.5z" />
    <glyph glyph-name="asterisk" unicode="*" horiz-adv-x="546" 
d="M209 801q-46 26 -88.5 47.5t-62.5 29.5l-19 9q82 149 102 194l-135 19q10 49 18 95t10 67l3 22q84 -28 147 -45l-18 201q51 -1 102.5 0.5t77.5 3.5l25 2l-21 -207q45 13 84.5 25.5t56.5 19.5l17 6q6 -51 14.5 -99t13.5 -71l5 -22q-37 -4 -133 -17q29 -58 55 -106t37 -67
l12 -19q-49 -19 -91.5 -37.5t-60.5 -27.5l-18 -9q-37 119 -66 191q-20 -56 -37 -107.5t-23 -74.5z" />
    <glyph glyph-name="plus" unicode="+" horiz-adv-x="602" 
d="M193 285q4 192 4 272l-177 -2q2 79 1.5 127t-1.5 68l-2 20q132 -4 181 -4l-2 281l211 -5q-5 -265 -5 -278l183 2q-4 -81 -5 -133.5t0 -64.5l1 -13q-59 2 -179 2l5 -270z" />
    <glyph glyph-name="comma" unicode="," horiz-adv-x="368" 
d="M135 -223l-115 86q80 77 107 143q-42 14 -66 55t-24 89q0 72 42.5 115.5t110.5 43.5t110 -51t42 -133q0 -169 -207 -348z" />
    <glyph glyph-name="hyphen" unicode="-" horiz-adv-x="464" 
d="M23 551l-3 229l424 -2l-4 -227q-108 2 -212.5 2t-154.5 -1z" />
    <glyph glyph-name="period" unicode="." horiz-adv-x="352" 
d="M174 -8q-73 0 -111 50t-38 124q0 78 41.5 124t109.5 46q71 0 111.5 -48.5t40.5 -121.5q0 -88 -42.5 -131t-111.5 -43z" />
    <glyph glyph-name="slash" unicode="/" horiz-adv-x="647" 
d="M-4 -266q99 409 203 852.5t159 683.5l54 239q78 -2 138 -2t80 1l21 1q-136 -562 -239 -1005.5t-138 -606.5l-36 -163q-72 2 -132.5 2t-85.5 -1z" />
    <glyph glyph-name="zero" unicode="0" horiz-adv-x="854" 
d="M428 -51q-201 0 -298 185.5t-97 570.5q0 373 96 551t297 178q205 0 300 -175t95 -542q0 -391 -91.5 -579.5t-301.5 -188.5zM426 170q35 0 53.5 41.5t28.5 161.5t10 348q0 260 -22 374.5t-72 114.5q-35 0 -55.5 -43.5t-30.5 -152t-10 -301.5q0 -206 10.5 -325.5
t31.5 -168.5t56 -49z" />
    <glyph glyph-name="one" unicode="1" horiz-adv-x="649" 
d="M246 -6q7 614 0 1055q-50 -27 -90 -51t-55 -34l-15 -10l-86 265l373 206l151 -24q0 -320 3 -671.5t7 -542.5l3 -191q-81 -3 -153.5 -3.5t-105.5 0.5z" />
    <glyph glyph-name="two" unicode="2" horiz-adv-x="765" 
d="M717 -2q-174 4 -343 6.5t-251 3.5h-82l-10 314q97 81 170 158t135 166.5t94.5 189t32.5 204.5q0 84 -20 128t-56 44q-59 0 -79 -88t-3 -297q-82 0 -268 -8q-33 315 55 472t303 157q176 0 262 -108.5t86 -307.5q0 -217 -105.5 -417t-289.5 -345q128 -1 209.5 -0.5
t119.5 1.5l38 1z" />
    <glyph glyph-name="three" unicode="3" horiz-adv-x="794" 
d="M399 -45q-116 0 -196 38.5t-121.5 111t-55.5 175.5t3 232q88 -8 276 -18q-28 -308 86 -308q96 0 96 189q0 144 -61 192q-50 41 -182 33q0 72 -8 217q140 -6 188 33q57 44 57 178q0 201 -84 201q-57 0 -77.5 -77t-8.5 -232l-276 -17q-29 289 69 422t318 133
q83 0 149.5 -32t108 -88t63 -127.5t21.5 -153.5q0 -121 -44 -205.5t-128 -124.5q87 -36 138.5 -129t51.5 -225q0 -201 -107.5 -309.5t-275.5 -108.5z" />
    <glyph glyph-name="four" unicode="4" horiz-adv-x="825" 
d="M444 -2l2 270l-428 -6q-4 53 -8 264q97 268 177.5 495.5t112.5 320.5l32 94q143 -4 240 -7.5t122 -5.5l25 -2q-4 -704 -2 -901q43 0 96 2q0 -7 -0.5 -24t-1.5 -80t0 -148q-31 2 -92 0l4 -270q-97 -4 -167 -4.5t-91 0.5zM453 1135q-39 -120 -187 -615q83 -2 183 0
q1 120 2 264.5t1.5 223.5t0.5 127z" />
    <glyph glyph-name="five" unicode="5" horiz-adv-x="802" 
d="M406 -35q-113 0 -190.5 35.5t-119.5 106t-56 166t-3 223.5q69 -5 139 -9t106 -5l35 -1q-4 -166 16.5 -233.5t72.5 -67.5q28 0 46.5 24t30 90.5t11.5 178.5q0 293 -82 293q-71 0 -90 -203q-134 11 -279 27q12 373 18 825q271 1 678 15q-4 -54 -4 -261q-146 2 -411 -4
q-7 -238 -7 -301q36 59 86.5 87t126.5 28q72 0 122.5 -36t78 -104t40 -152t13.5 -195q0 -272 -94 -399.5t-284 -127.5z" />
    <glyph glyph-name="six" unicode="6" horiz-adv-x="817" 
d="M428 -39q-213 0 -304 176.5t-91 558.5q0 142 10 250.5t37 206.5t71 161.5t115.5 100.5t167.5 37q98 0 167 -34.5t108 -101.5t54 -157.5t9 -210.5q-80 4 -148.5 6t-97.5 2h-28q10 271 -66 271q-53 0 -77 -99.5t-25 -351.5q80 103 188 103q77 -1 132.5 -33.5t86.5 -91
t45.5 -130.5t14.5 -161q0 -258 -100.5 -380t-268.5 -122zM418 649q-43 0 -88 -55q3 -157 15 -245.5t32 -121t53 -32.5q84 0 84 243q3 211 -96 211z" />
    <glyph glyph-name="seven" unicode="7" horiz-adv-x="684" 
d="M156 -31q-21 389 47 697t203 483l-396 -6l6 276q247 3 410.5 6t203.5 5l40 2q-1 -103 0 -181t2 -105l2 -26q-144 -213 -196.5 -491.5t-33.5 -667.5z" />
    <glyph glyph-name="eight" unicode="8" horiz-adv-x="827" 
d="M424 -39q-202 0 -307 99.5t-105 289.5q0 233 199 352q-80 64 -127 159t-47 208q0 177 101 281t282 104q186 0 283.5 -103t97.5 -278q0 -127 -50 -212t-145 -148q105 -63 157 -149.5t52 -207.5q1 -198 -104.5 -296.5t-286.5 -98.5zM412 178q48 0 75 42t27 118
q0 171 -111 252q-45 -36 -71.5 -100t-26.5 -134q0 -84 27.5 -131t79.5 -47zM422 821q38 38 62 99t24 135q0 85 -24 131.5t-70 46.5q-48 0 -72.5 -45t-24.5 -125q0 -157 105 -242z" />
    <glyph glyph-name="nine" unicode="9" horiz-adv-x="817" 
d="M387 -37q-201 0 -287.5 139.5t-62.5 397.5q88 -10 157 -16.5t94 -7.5l25 -1q-22 -280 84 -280q36 0 55 33.5t27.5 120.5t9.5 259q-54 -63 -141 -63q-164 0 -246 115.5t-82 320.5q0 221 97 346t278 125q135 0 218.5 -70t127 -235t43.5 -440q0 -169 -16 -295t-47 -212
t-80.5 -138.5t-111 -75.5t-142.5 -23zM414 737q41 0 75 37q-2 186 -12 286.5t-28 138.5t-50 38q-94 0 -94 -260q0 -240 109 -240z" />
    <glyph glyph-name="colon" unicode=":" horiz-adv-x="374" 
d="M186 -23q-69 0 -110 50.5t-41 124.5t44 123t111 49q66 0 109 -48t43 -124q0 -83 -42.5 -129t-113.5 -46zM184 518q-70 0 -110.5 50.5t-40.5 123.5q0 78 44 125t109 47q71 0 111.5 -47.5t40.5 -124.5q0 -87 -42.5 -130.5t-111.5 -43.5z" />
    <glyph glyph-name="semicolon" unicode=";" horiz-adv-x="385" 
d="M135 -233l-115 83q71 76 107 150q-37 18 -59.5 56.5t-22.5 88.5q0 70 42 116t116 46q71 0 110 -51.5t39 -126.5q0 -172 -217 -362zM199 510q-68 0 -111 49t-43 123q0 76 44 126t112 50q65 0 108 -49t43 -125q0 -84 -41.5 -129t-111.5 -45z" />
    <glyph glyph-name="less" unicode="&#x3c;" horiz-adv-x="536" 
d="M510 240q-214 143 -492 319q0 6 0.5 19t1.5 67t0 131q186 107 496 318q-1 -8 -2 -24.5t-3 -84t-1 -154.5q-119 -63 -307 -167q118 -76 313 -175q-1 -8 -2 -24.5t-3 -81t-1 -143.5z" />
    <glyph glyph-name="equal" unicode="=" horiz-adv-x="577" 
d="M29 401q2 23 -4 211q212 -2 528 4q-2 -51 -2 -215q-259 4 -522 0zM553 719q-141 3 -273 4t-194 1l-61 -1l4 211l522 -2z" />
    <glyph glyph-name="greater" unicode="&#x3e;" horiz-adv-x="534" 
d="M27 236q2 182 -7 256q221 124 302 174q-69 45 -143 87.5t-113 62.5l-39 20l-4 258q144 -98 266.5 -178.5t173.5 -111.5l51 -32q-1 -81 -0.5 -127.5t1.5 -64.5l1 -17q-126 -80 -248 -161.5t-182 -123.5z" />
    <glyph glyph-name="question" unicode="?" horiz-adv-x="774" 
d="M186 422l-4 344q157 4 216 62t59 188q0 213 -80 213q-55 0 -69.5 -74t-4.5 -235l-278 -11q-29 280 62 411.5t314 131.5q175 0 265 -109.5t90 -291.5q0 -134 -37.5 -228t-100.5 -145t-157 -78l2 -174q-73 1 -142 0t-102 -2zM328 -20q-92 0 -140.5 51.5t-48.5 136.5
q0 83 52 131.5t131 48.5q89 0 135.5 -49.5t46.5 -136.5q0 -83 -48 -132.5t-128 -49.5z" />
    <glyph glyph-name="at" unicode="@" horiz-adv-x="1271" 
d="M801 -254q-195 -38 -339.5 -5.5t-239.5 134.5t-142 261.5t-47 375.5q0 379 160.5 588t443.5 209q304 0 453 -205.5t149 -581.5q0 -202 -28 -321t-79 -166t-133 -47q-140 0 -178 147q-65 -139 -248 -139q-69 0 -122 23.5t-84 64t-46.5 90t-15.5 105.5q0 139 94 219.5
t301 103.5q0 47 -2 76q-5 91 -18.5 127.5t-44.5 36.5q-40 0 -54 -46.5t-8 -152.5q-92 -2 -233 -10q-13 118 15 210t103 148t189 56q146 0 222.5 -98t82.5 -257q9 -184 4 -389q-3 -151 54 -151q25 0 39.5 26.5t23 108t8.5 231.5q0 322 -107 484.5t-335 162.5
q-215 0 -332 -170.5t-117 -480.5q0 -366 139 -527t445 -93q13 -64 27 -148zM713 385v94q-87 -21 -130.5 -70t-43.5 -120q0 -48 20.5 -76.5t56.5 -28.5q97 0 97 201z" />
    <glyph glyph-name="A" unicode="A" horiz-adv-x="827" 
d="M4 31q86 543 201 1399q99 4 198 6t148 2h49q98 -716 223 -1469q-115 4 -293 -2q-8 91 -26 279q-18 0 -86.5 1t-118.5 1l-18 -221q-87 4 -277 4zM399 1200q-38 -322 -77 -725q53 -2 157 0q-19 200 -80 725z" />
    <glyph glyph-name="B" unicode="B" horiz-adv-x="811" 
d="M68 6q-3 664 -17 1413q164 31 285 31q227 0 332.5 -98.5t105.5 -296.5q0 -113 -51.5 -192.5t-140.5 -114.5q104 -39 161.5 -129.5t57.5 -223.5q0 -213 -132 -309t-386 -96q-90 0 -215 16zM340 201q91 -5 137.5 40t46.5 160q0 220 -190 220zM332 1231v-404q182 -6 182 201
q0 108 -43.5 159t-138.5 44z" />
    <glyph glyph-name="C" unicode="C" horiz-adv-x="829" 
d="M426 -35q-210 0 -301.5 171.5t-91.5 572.5q0 387 95 569t314 182q371 0 357 -590q-81 1 -155 3t-108 4l-34 2q2 195 -14 271.5t-60 76.5q-54 0 -73.5 -115t-16.5 -401q0 -295 19.5 -403.5t72.5 -108.5q16 0 28 9.5t23.5 34.5t17 69t8.5 113t-1 167l301 6
q2 -144 -15 -253.5t-49.5 -181t-81.5 -117t-106.5 -64t-128.5 -17.5z" />
    <glyph glyph-name="D" unicode="D" horiz-adv-x="835" 
d="M338 201q35 -3 58 4.5t45 35.5t35 82t20.5 147t7.5 228q0 285 -41.5 400.5t-136.5 101.5q1 -220 4 -469.5t6 -389.5zM51 -8q2 324 2 680.5t-1 551.5l-1 195q117 21 211 21q292 0 416.5 -181.5t124.5 -578.5q0 -194 -33.5 -330.5t-102 -219t-166 -120t-233.5 -37.5
q-94 0 -217 19z" />
    <glyph glyph-name="E" unicode="E" horiz-adv-x="663" 
d="M68 6q-5 592 -17 1415q167 3 580 9q-2 -113 2 -273q-168 -2 -305 -6q-2 -125 2 -332q184 0 262 2q0 -108 2 -260q-113 2 -260 2q4 -205 8 -299q119 -8 297 -12q-4 -88 -4 -258q-261 8 -567 12z" />
    <glyph glyph-name="F" unicode="F" horiz-adv-x="655" 
d="M68 4q-3 592 -17 1417q268 3 584 9q-2 -95 -2 -275q-104 2 -303 -4q0 -136 2 -399q171 0 272 4q0 -111 2 -271q-90 4 -270 0l8 -479z" />
    <glyph glyph-name="G" unicode="G" horiz-adv-x="839" 
d="M428 -33q-98 0 -168 36t-122.5 120.5t-78.5 232t-26 361.5q0 371 95.5 552t301.5 181q130 0 215.5 -74.5t119.5 -202t26 -301.5q-218 3 -281 5q3 181 -17.5 261.5t-66.5 80.5q-55 0 -76.5 -116.5t-21.5 -389.5q1 -210 13 -325.5t35 -159.5t64 -44q50 0 69 74t15 252
l-123 -6q2 88 -2 231q230 -2 406 2q8 -185 -5 -320.5t-43 -221.5t-80.5 -137.5t-109.5 -71t-139 -19.5z" />
    <glyph glyph-name="H" unicode="H" horiz-adv-x="821" 
d="M492 -39q4 210 0 516q-82 0 -160 -2l6 -440q-119 4 -279 -2q0 543 -8 1358q68 -2 273 2q2 -276 6 -678q5 0 57.5 -1t101.5 -1q0 125 -2.5 396t-3.5 347q101 -2 283 2q-2 -661 6 -1499q-12 1 -34.5 2t-97 2t-148.5 -2z" />
    <glyph glyph-name="I" unicode="I" horiz-adv-x="423" 
d="M76 -2q2 628 -8 1423q96 0 278 2q4 -687 10 -1425q-98 2 -280 0z" />
    <glyph glyph-name="J" unicode="J" horiz-adv-x="741" 
d="M356 -23q-175 0 -257.5 109.5t-82.5 327.5q0 136 27 262q80 -9 248 -23q-17 -112 -17 -192q0 -122 19 -172.5t59 -50.5q22 0 37 17t26.5 62.5t17 131t5.5 215.5q0 353 -65 768q100 10 272 24q70 -420 70 -803q0 -170 -17 -290t-57.5 -209.5t-111 -133t-173.5 -43.5z" />
    <glyph glyph-name="K" unicode="K" horiz-adv-x="849" 
d="M547 -51q-63 279 -127 518q-67 -173 -88 -242l4 -198q-100 1 -163.5 0.5t-92.5 -1.5l-29 -1q2 353 2 695t-1 508l-1 165l283 -2q-4 -303 -4 -752q69 244 126 449.5t79 288.5l22 83q81 -4 153 -6.5t104 -3.5h32q-100 -305 -232 -719q60 -208 118.5 -399.5t87.5 -279.5
l28 -87z" />
    <glyph glyph-name="L" unicode="L" horiz-adv-x="638" 
d="M63 8q-2 567 -12 1403q91 -4 279 0q-4 -289 8 -1151l301 -6l-2 -254z" />
    <glyph glyph-name="M" unicode="M" horiz-adv-x="1191" 
d="M33 27q29 588 45 1362q180 -2 397 8q46 -388 109 -805q69 426 116 864q215 -6 410 -12q4 -576 49 -1469q-148 -8 -289 -12q9 495 -14 1184q-81 -508 -127 -891q-150 2 -283 8q-38 311 -120 830q-5 -596 0 -1074q-172 5 -293 7z" />
    <glyph glyph-name="N" unicode="N" horiz-adv-x="872" 
d="M57 33q6 514 -6 1343q109 9 273 13q106 -389 260 -875q-14 481 -45 944q11 -1 31 -2t86.5 -2t136.5 0q8 -553 28 -1464q-84 -13 -260 -25q-102 335 -268 871q4 -344 29 -807q-111 4 -265 4z" />
    <glyph glyph-name="O" unicode="O" horiz-adv-x="858" 
d="M428 -33q-215 0 -304 180.5t-91 563.5q0 108 7.5 198t24.5 176t47 150.5t72.5 114t104 75t139.5 25.5q95 0 165 -35.5t114 -97.5t71 -157.5t37 -202t10 -244.5q-2 -281 -47 -446t-129 -232.5t-221 -67.5zM432 184q33 0 51 41t28.5 160t10.5 338q0 286 -21.5 395
t-72.5 109q-53 0 -72.5 -110t-19.5 -392q0 -219 9.5 -335t29.5 -161t57 -45z" />
    <glyph glyph-name="P" unicode="P" horiz-adv-x="792" 
d="M53 10q1 61 2 172t2 483.5t-2 747.5q98 10 168 10q291 0 423 -135t132 -409q0 -249 -117.5 -388t-328.5 -147l8 -332q-119 4 -287 -2zM326 1176q0 -456 2 -609q82 8 124 75.5t42 227.5q0 315 -168 306z" />
    <glyph glyph-name="Q" unicode="Q" horiz-adv-x="858" 
d="M608 -279q-68 148 -119 248q-35 -6 -69 -6q-195 0 -291 181t-96 550q0 383 92 566.5t295 183.5q148 0 234 -69t128.5 -237.5t42.5 -463.5q0 -408 -139 -586q39 -61 78.5 -118.5t59.5 -85.5l20 -27q-80 -44 -139 -78t-78 -46zM428 172q34 0 53 35.5t30 149.5t11 329
q0 220 -11.5 340.5t-30.5 159.5t-52 39q-51 0 -71.5 -119.5t-20.5 -419.5q0 -201 10.5 -314.5t29.5 -156.5t52 -43z" />
    <glyph glyph-name="R" unicode="R" horiz-adv-x="817" 
d="M543 -39q-56 212 -154 557q-15 -3 -57 -8q0 -23 8 -481q-123 0 -287 -2q1 60 2 170t2 480t-2 746q164 29 273 29q236 0 353.5 -122.5t117.5 -354.5q0 -256 -174 -371q39 -133 206 -620q-106 -11 -288 -23zM332 702q176 11 176 252q0 258 -156 258l-26 -2z" />
    <glyph glyph-name="S" unicode="S" horiz-adv-x="788" 
d="M397 -31q-215 0 -303 134.5t-63 406.5q112 -4 286 -6q-26 -311 82 -311q40 0 59 35.5t19 121.5q0 75 -41.5 135.5t-163.5 147.5q-135 96 -191 200.5t-56 245.5q0 190 100 281.5t274 91.5q202 0 289.5 -134.5t59.5 -395.5q-138 12 -279 16q18 150 -3.5 220.5t-70.5 70.5
q-80 0 -80 -164q0 -77 43 -137.5t158 -136.5q141 -95 197.5 -192t56.5 -243q0 -387 -373 -387z" />
    <glyph glyph-name="T" unicode="T" horiz-adv-x="720" 
d="M12 1157q2 73 -2 266q217 -1 701 7q-1 -11 -2 -32.5t-2 -93t0 -147.5q-84 2 -209 2q0 -549 8 -1167q-95 2 -279 -2q2 459 -4 1169z" />
    <glyph glyph-name="U" unicode="U" horiz-adv-x="821" 
d="M414 -29q-210 0 -297.5 189.5t-87.5 597.5q0 344 43 645q80 -14 268 -37q-37 -339 -37 -545q0 -577 109 -577q24 0 40 17t29 65.5t19 145t6 247.5q0 327 -53 719q106 2 280 22q64 -412 64 -729q0 -404 -88.5 -582t-294.5 -178z" />
    <glyph glyph-name="V" unicode="V" horiz-adv-x="780" 
d="M174 -23q-44 383 -86.5 732.5t-63.5 506.5l-20 158l281 4q43 -651 94 -1169q35 350 62 656.5t37 437.5l9 131l291 2q-64 -460 -113 -826.5t-66 -503.5l-17 -137q-199 0 -408 8z" />
    <glyph glyph-name="W" unicode="W" horiz-adv-x="1224" 
d="M702 -53q-36 423 -90 999q-44 -306 -75 -533t-41 -301l-9 -75q-77 4 -142.5 7t-104 4t-65.5 1.5t-37 0.5l-11 -1q-28 392 -56 727.5t-43 475.5l-14 139l301 8q6 -318 14 -580.5t13 -366.5l4 -104l143 977q70 1 133 -0.5t91 -3.5l28 -2q71 -615 138 -1086
q15 410 23.5 711.5t9.5 398.5l1 97q72 -4 146.5 -6t112.5 -2h38q-37 -431 -66 -799.5t-40 -522.5l-10 -153q-127 -7 -225 -9.5t-133 -1.5z" />
    <glyph glyph-name="X" unicode="X" horiz-adv-x="874" 
d="M330 27l-326 14q17 55 201 645q-90 365 -178 696q84 1 299 11q32 -183 102 -549q30 176 54 328.5t33 217.5l9 64q81 -3 160 -4t118 0h38q-129 -510 -183 -741l213 -721q-108 -5 -189 -10.5t-109 -7.5l-27 -3l-105 584q-31 -131 -58.5 -262t-39.5 -197z" />
    <glyph glyph-name="Y" unicode="Y" horiz-adv-x="833" 
d="M281 -27q6 69 -2 326q-64 294 -275 1085q53 1 301 11q43 -299 117 -701q57 323 123 742q79 -6 286 -6q-110 -430 -274 -1127q-4 -44 6 -328q-59 4 -282 -2z" />
    <glyph glyph-name="Z" unicode="Z" horiz-adv-x="690" 
d="M662 -8q-181 6 -340.5 9.5t-227.5 4.5h-69l2 275q213 502 348 868l-344 -10q1 105 0.5 167t-1.5 86l-1 25l630 15l5 -295q-204 -506 -340 -873q83 -4 168.5 -6t129.5 -2h44z" />
    <glyph glyph-name="bracketleft" unicode="[" horiz-adv-x="512" 
d="M481 -254q-19 1 -53 2t-138 3t-208 1q4 539 -8 1747q109 -2 397 4q-2 -86 4 -233q-45 0 -121 -4q-8 -730 0 -1266q49 -4 135 -4q-6 -76 -8 -250z" />
    <glyph glyph-name="backslash" unicode="\" horiz-adv-x="647" 
d="M651 -266q-79 4 -241 0q-110 513 -414 1775q66 -4 240 0q192 -857 415 -1775z" />
    <glyph glyph-name="bracketright" unicode="]" horiz-adv-x="512" 
d="M37 -252q-6 238 -8 250q35 0 79 1t52 1q6 610 -2 1288h-125q2 131 2 236q254 -4 401 -4q-14 -1008 -6 -1766q-52 1 -141.5 -0.5t-165.5 -3.5t-86 -2z" />
    <glyph glyph-name="asciicircum" unicode="^" horiz-adv-x="688" 
d="M678 631q-9 1 -25.5 2.5t-74.5 4t-123 1.5q-39 196 -113 512q-62 -255 -113 -524q-72 8 -219 10q87 263 232 774q65 -4 204 -4q68 -259 232 -776z" />
    <glyph glyph-name="underscore" unicode="_" horiz-adv-x="559" 
d="M12 -201q1 76 0.5 123.5t-1.5 69.5l-1 22l539 -2l-4 -213q-128 2 -261 2t-202 -1z" />
    <glyph glyph-name="grave" unicode="`" horiz-adv-x="813" 
d="M457 1077q-62 80 -234 277q49 33 168 125q66 -111 197 -308q-43 -24 -131 -94z" />
    <glyph glyph-name="a" unicode="a" horiz-adv-x="759" 
d="M279 -20q-117 0 -190 70t-73 192q0 166 112 259.5t321 108.5q-3 37 -3 66q-3 91 -17.5 126.5t-49.5 35.5q-77 0 -74 -183l-256 -2q-8 172 78 276.5t262 104.5q316 0 326 -370q4 -165 4.5 -336.5t-1.5 -261.5l-1 -89q-62 -2 -207 -4q6 68 8 154q-55 -147 -239 -147z
M461 391q0 55 -2 80q-92 -14 -134 -66t-42 -124q0 -107 79 -107q99 0 99 217z" />
    <glyph glyph-name="b" unicode="b" horiz-adv-x="827" 
d="M55 -31q2 445 -4 1430q84 -2 279 -2q-9 -206 -13 -496q68 133 209 133q269 0 269 -526q0 -249 -83 -380.5t-220 -131.5q-82 0 -140 34t-84 97q0 -42 4 -156q-78 0 -217 -2zM416 164q84 0 84 348q0 334 -86 334t-86 -332q0 -189 20.5 -269.5t67.5 -80.5z" />
    <glyph glyph-name="c" unicode="c" horiz-adv-x="780" 
d="M406 -25q-194 0 -283.5 136.5t-89.5 400.5q0 252 96.5 392t286.5 140q118 0 199 -60.5t115.5 -161.5t25.5 -230l-275 6q6 246 -75 246q-45 0 -66 -81t-21 -259q0 -165 21.5 -239.5t65.5 -74.5q84 0 73 238q64 -2 279 4q5 -457 -352 -457z" />
    <glyph glyph-name="d" unicode="d" horiz-adv-x="831" 
d="M776 -37q-84 2 -225 2q2 72 4 178q-30 -76 -86 -114.5t-129 -38.5q-145 0 -226 130.5t-81 401.5q0 114 16.5 207t51 164t91 110t132.5 39q120 0 186 -122q-4 224 -16 481q57 -4 284 2q-1 -72 -2 -196t-2 -516t2 -728zM416 172q86 0 86 334q0 342 -92 342q-82 0 -82 -336
q0 -340 88 -340z" />
    <glyph glyph-name="e" unicode="e" horiz-adv-x="798" 
d="M408 -23q-86 0 -152 27t-108 74t-68 117t-36.5 148.5t-10.5 176.5q0 113 20.5 205t63.5 164t115.5 111.5t170.5 39.5q392 0 357 -602q-178 -2 -447 -6q4 -136 27.5 -197t69.5 -61q76 0 82 184q139 -2 276 -6q-17 -177 -112 -276t-248 -99zM401 858q-42 0 -62.5 -65.5
t-25.5 -200.5q52 0 166 4q3 262 -78 262z" />
    <glyph glyph-name="f" unicode="f" horiz-adv-x="569" 
d="M553 739q-62 2 -166 4l2 -739q-110 2 -260 -2q-6 363 -6 741q-46 2 -109 0q4 76 0 254q43 -4 111 -6v25q2 203 74 304t223 101q74 0 158 -20q-11 -66 -17 -238q-35 6 -57 6q-65 0 -90 -34.5t-27 -118.5v-33l170 -2q-6 -92 -6 -242z" />
    <glyph glyph-name="g" unicode="g" horiz-adv-x="749" 
d="M377 -516q-170 0 -266.5 60.5t-96.5 172.5q0 70 48.5 128.5t130.5 86.5q-97 51 -97 150q0 89 107 158q-178 91 -178 393q0 118 37.5 212t120.5 153t200 59l51 -4q2 14 23 124t37 205q77 -24 247 -63q-61 -121 -155 -326q72 -54 108.5 -148.5t36.5 -211.5
q0 -215 -92.5 -324.5t-241.5 -109.5q-47 0 -67 4q-21 -21 -21 -41q0 -22 26 -35.5t87 -22.5q194 -29 278 -98t84 -192q0 -107 -58.5 -183.5t-149 -111.5t-199.5 -35zM381 371q84 0 84 250q0 247 -84 247q-88 0 -88 -247q0 -250 88 -250zM526 -236q0 85 -178 103
q-82 -47 -82 -117q0 -43 32.5 -67.5t86.5 -24.5q61 0 101 28.5t40 77.5z" />
    <glyph glyph-name="h" unicode="h" horiz-adv-x="782" 
d="M53 33q8 602 0 1353q86 -1 264 3q-1 -24 -2 -67.5t-3 -175t-1 -259.5q79 154 224 151q192 0 202 -290q4 -147 5 -342t0 -317l-1 -122q-94 2 -272 2q4 394 0 719q-2 58 -14.5 80.5t-44.5 22.5q-36 0 -59 -40t-23 -112l-2 -604q-89 2 -273 -2z" />
    <glyph glyph-name="i" unicode="i" horiz-adv-x="387" 
d="M66 2q1 277 -7 1028q91 -2 271 2q-2 -378 8 -1028q-114 0 -272 -2zM197 1130q-84 0 -127 46.5t-43 130.5q0 78 45 120.5t127 42.5q77 0 120 -46t43 -119q0 -77 -42.5 -126t-122.5 -49z" />
    <glyph glyph-name="j" unicode="j" horiz-adv-x="389" 
d="M193 1130q-85 0 -126.5 49.5t-41.5 123.5q0 78 42.5 124t127.5 46q77 0 122 -45t45 -121q0 -79 -45.5 -128t-123.5 -49zM-150 -449q7 96 9 256q36 -4 49 -4q84 0 118.5 41.5t36.5 130.5q3 208 3 442t-2 423l-3 190l265 2q2 -52 4 -144t5.5 -387.5t-1.5 -563.5
q-3 -189 -97.5 -289.5t-304.5 -100.5q-24 0 -82 4z" />
    <glyph glyph-name="k" unicode="k" horiz-adv-x="802" 
d="M504 -41q-27 107 -107 406l-71 -136l4 -202l-277 2q2 459 1.5 762.5t-2.5 452.5l-1 149q86 -3 154.5 -3.5t94.5 0.5l26 1q-3 -525 0 -822q49 133 91.5 251t60.5 170l18 52l299 -16q-113 -227 -205 -426q55 -175 106.5 -333t75.5 -229l25 -71z" />
    <glyph glyph-name="l" unicode="l" horiz-adv-x="382" 
d="M328 27l-273 4q4 403 4.5 743t-1.5 478l-1 139l273 -7q-4 -461 -4.5 -800.5t0.5 -447.5z" />
    <glyph glyph-name="m" unicode="m" horiz-adv-x="1200" 
d="M57 31q0 409 -6 979q94 -2 225 -2q-4 -64 -4 -148q38 82 101.5 129t144.5 47q83 0 131.5 -47t67.5 -125q33 72 94 115t139 43q202 0 205 -274q3 -154 4 -348.5t1 -312.5l-1 -118q-92 2 -270 0q-2 409 -6 709q-2 55 -14.5 81.5t-41.5 26.5q-41 0 -61.5 -41t-20.5 -110
q-2 -120 -2 -265t1 -230l1 -85q-131 0 -278 -2q1 41 1.5 104.5t1.5 242.5t-1 274q0 117 -57 117q-40 0 -63 -47t-23 -119q-1 -108 0.5 -256t3.5 -242l2 -94q-144 0 -275 -2z" />
    <glyph glyph-name="n" unicode="n" horiz-adv-x="780" 
d="M465 -37q2 404 2 727q0 52 -12.5 76.5t-42.5 24.5q-40 0 -62 -40t-22 -104q-2 -68 -2.5 -222.5t0.5 -274.5v-121q-128 2 -275 0q1 44 2 123t3 338.5t-1 510.5q92 -3 215 3l-2 -154q33 82 101 134t151 52q206 0 215 -280q2 -48 3 -246t1 -372v-173z" />
    <glyph glyph-name="o" unicode="o" horiz-adv-x="813" 
d="M403 -20q-103 0 -176 38t-115 112t-60.5 170t-18.5 224q0 156 39.5 270t125 181t210.5 67q97 0 169.5 -38.5t116.5 -110t65 -165.5t21 -212q0 -277 -95 -406.5t-282 -129.5zM408 162q46 0 66 80t20 272q0 179 -20 259.5t-66 80.5q-48 0 -68.5 -78.5t-20.5 -251.5
q0 -142 8.5 -219.5t27.5 -110t53 -32.5z" />
    <glyph glyph-name="p" unicode="p" horiz-adv-x="829" 
d="M51 -412q3 286 3 639t-2 563l-1 211q60 -1 109 0t80 2l32 1q-4 -76 -4 -148q30 88 89.5 138t142.5 50q144 0 220.5 -146t76.5 -396q0 -261 -76 -388.5t-205 -127.5q-70 0 -121.5 29.5t-77.5 86.5q4 -168 8.5 -296t7.5 -172l3 -44q-100 3 -163.5 3t-92.5 -3zM414 172
q45 0 65.5 74t20.5 258q3 346 -82 346q-49 0 -69.5 -83t-20.5 -257q0 -191 19 -264.5t67 -73.5z" />
    <glyph glyph-name="q" unicode="q" horiz-adv-x="831" 
d="M496 -436q11 292 16 538q-56 -114 -188 -114q-137 0 -214 130.5t-77 399.5q0 239 81.5 386t225.5 147q78 0 133.5 -45t85.5 -119l-8 170h227q-4 -405 -4 -777.5t2 -543.5l2 -170zM414 172q46 0 66 83t20 261q0 336 -84 336q-90 0 -90 -336q0 -344 88 -344z" />
    <glyph glyph-name="r" unicode="r" horiz-adv-x="555" 
d="M55 -4q2 525 -4 1020q47 -4 225 2q-6 -74 -6 -180q35 91 114 149.5t165 61.5q-6 -78 -10 -279q-106 -20 -157.5 -92.5t-55.5 -210.5q-2 -103 -1 -207.5t3 -183.5l2 -78q-74 0 -275 -2z" />
    <glyph glyph-name="s" unicode="s" horiz-adv-x="714" 
d="M369 -27q-175 0 -264.5 98.5t-79.5 297.5q88 -3 260 -13q-6 -94 13 -138t71 -44q32 0 52.5 23t20.5 71q0 43 -33.5 79t-140.5 79q-127 51 -185 129.5t-58 200.5q0 127 88.5 211t246.5 84q168 0 250.5 -109.5t71.5 -298.5q-109 6 -248 6q17 195 -76 195q-38 0 -58.5 -26.5
t-20.5 -65.5q0 -55 36.5 -92.5t133.5 -79.5q142 -63 195.5 -135t53.5 -177q0 -77 -26 -135.5t-72 -92.5t-104 -50.5t-127 -16.5z" />
    <glyph glyph-name="t" unicode="t" horiz-adv-x="581" 
d="M12 760q1 90 0.5 143.5t-1.5 75.5l-1 22q35 -2 101 -2l4 263l264 -2q-4 -109 -6 -265h170l-2 -237q-59 2 -168 2q0 -254 4 -383q3 -109 102 -109q33 0 66 8l16 -251q-98 -25 -172 -25q-275 0 -278 297q-4 329 -2 463h-97z" />
    <glyph glyph-name="u" unicode="u" 
d="M301 -16q-89 0 -144 51t-84.5 175.5t-29.5 334.5q0 237 27 477q72 -10 256 -18q-17 -174 -17 -365q0 -173 10.5 -267.5t27.5 -123.5t46 -29q32 0 53 46.5t21 119.5q1 149 -2.5 314.5t-7.5 256.5l-4 91q9 -1 27.5 -2t89.5 -2.5t159 -0.5q-2 -457 4 -1077q-8 0 -23.5 0.5
t-72 1.5t-125.5 0q2 81 4 185q-30 -80 -88.5 -124t-126.5 -44z" />
    <glyph glyph-name="v" unicode="v" horiz-adv-x="735" 
d="M569 16q-71 -2 -139 -3.5t-114 -2t-82 -0.5h-53h-17q-46 292 -86 535.5t-57 341.5l-17 98l281 6q23 -254 42 -447.5t27 -259.5l8 -67q36 268 61 477.5t33 285.5l7 75q76 -5 143.5 -8t97.5 -3h29q-55 -330 -96 -587t-55 -349z" />
    <glyph glyph-name="w" unicode="w" horiz-adv-x="1169" 
d="M668 -14q-22 207 -43.5 389.5t-32.5 262.5l-10 79q-29 -209 -50.5 -382.5t-28.5 -242.5l-7 -69q-111 4 -201 6t-124 2h-34q-35 276 -67.5 518.5t-47.5 346.5l-16 105l277 7q16 -260 30 -447t19 -244l6 -57q36 245 61.5 437.5t32.5 262.5l8 70q105 1 167.5 0.5t88.5 -1.5
l25 -1q37 -289 64 -488t35 -253l9 -54q20 280 32.5 487t14.5 274l3 67q83 -4 154 -5t101 -1h29q-44 -320 -77.5 -587t-45.5 -374l-12 -106q-124 1 -204 0.5t-118 -1.5z" />
    <glyph glyph-name="x" unicode="x" horiz-adv-x="817" 
d="M10 18q128 321 189 484q-52 148 -97.5 272.5t-64.5 174.5l-19 50q89 -4 159.5 -4.5t96.5 1.5l25 1q20 -79 39 -147t38.5 -132.5t22.5 -76.5q37 124 65.5 224t37.5 137l10 38q89 -4 159.5 -5t96.5 -1h25q-128 -331 -189 -520q59 -162 111 -298t74 -190l22 -55
q-83 3 -154.5 3t-102.5 -2l-30 -1q-32 112 -121 394q-28 -96 -50.5 -181.5t-30.5 -123.5l-9 -37q-99 2 -166 0.5t-102 -3.5z" />
    <glyph glyph-name="y" unicode="y" horiz-adv-x="788" 
d="M469 -449l-266 35q19 100 33.5 183.5t19.5 116.5l4 34q-72 315 -136 581.5t-92 374.5l-28 109q82 0 156 3t108 6l33 3q22 -193 46 -370.5t37 -258.5l13 -81q30 232 51 423t27 266l6 75l303 -15q-116 -537 -195 -908t-99 -474z" />
    <glyph glyph-name="z" unicode="z" horiz-adv-x="653" 
d="M623 2q-188 8 -337 12t-204 4h-55l4 199q96 177 166.5 314.5t92.5 186.5l23 48q-88 0 -155 -2t-90 -4l-23 -2q-1 82 -3 145.5t-4 86.5l-1 22q176 2 321 5.5t202 6.5l58 2q0 -80 2 -134.5t4 -69.5l1 -15q-95 -168 -167.5 -309t-97.5 -198l-26 -56q99 -4 172.5 -6t97.5 -2
h23z" />
    <glyph glyph-name="braceleft" unicode="{" horiz-adv-x="579" 
d="M549 -238q-84 -22 -166 -22q-129 0 -183.5 68.5t-54.5 214.5l13 323q0 97 -32 137t-116 39q1 10 2 28.5t2 82.5t0 135q80 -4 112 31.5t32 122.5q0 51 -10.5 173.5t-10.5 176.5q0 121 60.5 181t195.5 60q79 0 158 -20q-1 -80 0 -137t3 -74l1 -18q-87 9 -117 -11t-30 -88
l20 -327q0 -74 -30 -120t-99 -75q71 -28 99 -81.5t28 -143.5l-12 -309q0 -75 28.5 -99t112.5 -18q-2 -44 -3.5 -84t-2 -65.5t-0.5 -44.5v-28v-8z" />
    <glyph glyph-name="bar" unicode="|" horiz-adv-x="407" 
d="M84 -262q2 913 -6 1771q10 -1 29.5 -2t84.5 -2t136 0q-1 -84 -1.5 -231.5t-1.5 -623.5t1 -910q-74 4 -242 -2z" />
    <glyph glyph-name="braceright" unicode="}" horiz-adv-x="579" 
d="M29 -250q8 48 -4 225q82 -9 115.5 14t33.5 95q0 45 -10 169.5t-10 182.5q0 88 32.5 140.5t108.5 76.5q-72 21 -107.5 69t-35.5 134q0 56 10 164.5t10 153.5q0 65 -31 85t-116 15q0 2 1 12t2 26t2 43.5t1.5 64.5t-0.5 89q73 15 135 15q147 0 210.5 -60t63.5 -182
q0 -60 -10 -180.5t-10 -169.5q0 -89 32 -124t113 -34q0 -211 4 -239q-88 3 -119.5 -31.5t-31.5 -126.5q0 -63 10 -195.5t10 -191.5q0 -131 -57 -197t-188 -65q-68 0 -164 22z" />
    <glyph glyph-name="asciitilde" unicode="~" horiz-adv-x="735" 
d="M180 1110q-74 0 -160 10q-3 336 211 336q36 0 70.5 -14.5t59.5 -35t47.5 -40.5t44 -34.5t39.5 -14.5q31 0 46 31.5t15 105.5q56 -6 162 -10q3 -167 -48.5 -251.5t-152.5 -84.5q-41 0 -83 21t-70 45.5t-60.5 45.5t-58.5 21q-32 0 -47.5 -28.5t-14.5 -102.5z" />
    <glyph glyph-name="exclamdown" unicode="&#xa1;" horiz-adv-x="417" 
d="M59 -197q15 456 29 1002q97 -4 236 0q13 -501 38 -1002q-119 4 -303 0zM207 885q-87 0 -133.5 54.5t-46.5 133.5q0 82 49 131t127 49q87 0 136.5 -48.5t49.5 -137.5q0 -82 -48 -132t-134 -50z" />
    <glyph glyph-name="cent" unicode="&#xa2;" horiz-adv-x="768" 
d="M272 -68l9 193q-254 79 -254 598q0 262 60 408t198 182l-9 194q76 -1 139 0t88 3l25 1q-4 -51 -10 -204q88 -27 140 -96t69.5 -165t11.5 -229q-88 4 -155.5 5t-91.5 0l-23 -1q3 152 -14 221.5t-62 69.5q-49 0 -66.5 -85.5t-17.5 -287.5q0 -171 10.5 -264t28.5 -124.5
t51 -31.5q90 0 72 308q92 -4 270 4q7 -232 -47 -351.5t-172 -154.5l8 -193q-76 2 -140.5 2t-91.5 -1z" />
    <glyph glyph-name="sterling" unicode="&#xa3;" horiz-adv-x="813" 
d="M33 508l-2 258q61 -2 94 -2q-3 9 -11.5 40t-12 42.5t-10 38.5t-9.5 44t-7 41t-5.5 46.5t-1.5 46.5q0 83 22 153.5t66 126t117.5 86.5t168.5 31q89 0 156 -29.5t107.5 -82t64.5 -126t26.5 -162t-5.5 -188.5q-111 1 -281 7q25 352 -70 352q-84 0 -84 -193q0 -19 1 -39
t2.5 -36t5 -37t5.5 -32.5t7 -34.5t7 -31t8 -33t7 -31l287 6q0 -79 1.5 -144t2.5 -90l2 -26h-264q-12 -136 -86 -244q227 -5 442 0q-6 -67 -6 -272q-244 8 -735 8q4 96 4 229q109 129 115 279z" />
    <glyph glyph-name="yen" unicode="&#xa5;" horiz-adv-x="833" 
d="M68 397q1 50 -7 185q45 -2 168 0q-92 352 -225 802q57 1 303 11q33 -233 115 -668q64 323 123 709q81 -6 286 -6q-82 -292 -219 -838q32 0 158 4q0 -6 -0.5 -18.5t-1.5 -59t0 -106.5q-61 0 -219 -2v-78l225 6q-2 -41 0 -176q-67 0 -223 -2l6 -189q-47 4 -268 -2
q2 81 2 187l-232 -6q2 51 2 178q64 -2 228 0q0 48 -2 75z" />
    <glyph glyph-name="section" unicode="&#xa7;" horiz-adv-x="778" 
d="M397 -236q-203 0 -298 125t-72 367q76 -10 146.5 -16.5t102.5 -7.5l33 -1q-15 -116 8 -183.5t86 -67.5q41 0 65 35.5t24 95.5q0 67 -44.5 112t-160.5 80q-145 45 -208 111t-63 178q0 73 41 128t105 85q-67 46 -101 123t-34 170q0 164 94.5 259t251.5 95q197 0 284 -119
t72 -356l-262 18q15 118 -7 179t-71 61q-40 0 -63 -39t-23 -102t43 -105.5t131 -70.5q114 -37 177.5 -82t85.5 -94t22 -119q0 -71 -36.5 -134.5t-94.5 -99.5q131 -78 131 -258q0 -165 -99.5 -266t-265.5 -101zM281 616q0 -53 38 -84t136 -59q43 43 43 105q0 57 -37.5 92.5
t-124.5 56.5q-55 -43 -55 -111z" />
    <glyph glyph-name="dieresis" unicode="&#xa8;" horiz-adv-x="813" 
d="M256 1120q-58 0 -90.5 39.5t-32.5 95.5q0 60 34.5 98t88.5 38q60 0 90.5 -39t30.5 -97q0 -68 -34 -101.5t-87 -33.5zM563 1128q-54 0 -86.5 37.5t-32.5 100.5q0 55 32 91t89 36q56 0 85.5 -38t29.5 -95q0 -63 -31.5 -97.5t-85.5 -34.5z" />
    <glyph glyph-name="copyright" unicode="&#xa9;" horiz-adv-x="1028" 
d="M514 164q-104 0 -165.5 49.5t-91.5 166.5t-30 320q0 271 72 402t231 131q275 0 258 -430l-223 6q2 131 -8.5 184.5t-38.5 53.5q-33 0 -46 -73t-13 -282q0 -111 2.5 -177.5t9.5 -104t17 -50t26 -12.5q18 0 30 19t18.5 80t2.5 165l228 2q1 -108 -12 -187.5t-36 -129.5
t-59.5 -80t-77.5 -41.5t-94 -11.5zM500 -37q-115 0 -199.5 40.5t-145.5 128.5t-91.5 233t-30.5 348q0 366 120 551.5t377 185.5q106 0 186 -33.5t132.5 -94.5t85.5 -154.5t47 -203.5t14 -251q0 -184 -25 -319t-66.5 -217t-107 -131t-135 -66t-161.5 -17zM510 49
q77 0 134.5 16.5t108.5 60t83 116.5t50.5 190t18.5 277q0 329 -85 491t-292 162q-211 0 -307 -161.5t-96 -493.5q0 -340 87.5 -499t297.5 -159z" />
    <glyph glyph-name="ordfeminine" unicode="&#xaa;" horiz-adv-x="614" 
d="M219 666q-91 0 -148 57t-57 158q0 121 92.5 188.5t258.5 67.5v24q0 71 -12 102t-42 31q-63 0 -69 -131q-88 6 -207 8q0 132 76.5 203.5t203.5 71.5q135 0 197 -78t70 -225q5 -102 5 -216t-3 -177l-2 -64q-61 -2 -174 -2q4 46 6 107q-23 -60 -74 -92.5t-121 -32.5z
M375 975l-2 53q-73 -6 -106.5 -41t-33.5 -86q0 -44 17.5 -68t44.5 -24q80 0 80 166z" />
    <glyph glyph-name="guillemotleft" unicode="&#xab;" horiz-adv-x="663" 
d="M168 311q-60 153 -162 391q71 128 184 361q62 -6 199 -6q-82 -148 -184 -363q44 -126 155 -366q-42 -3 -192 -17zM446 317q-48 129 -159 377q57 105 166 336q47 -8 194 -10q-76 -137 -168 -340q47 -118 162 -356q-50 1 -195 -7z" />
    <glyph glyph-name="registered" unicode="&#xae;" horiz-adv-x="688" 
d="M348 578q-175 0 -251.5 113.5t-76.5 330.5q0 442 320 442q330 0 330 -454q0 -432 -322 -432zM350 657q118 0 178 82.5t60 261.5q0 193 -58.5 289t-193.5 96q-123 0 -178.5 -89.5t-55.5 -280.5q0 -186 53 -272.5t195 -86.5zM387 741q-14 72 -39 183q-17 -4 -31 -4
q0 -121 2 -172q-45 2 -133 0q4 211 4 550q64 15 121 15q101 0 157 -50.5t56 -150.5q0 -94 -67 -145q10 -49 61 -199q-51 -9 -131 -27zM317 1008q66 0 66 96q0 53 -16 78t-52 22z" />
    <glyph glyph-name="macron" unicode="&#xaf;" horiz-adv-x="813" 
d="M174 1151q2 53 -2 180q126 -2 471 4q-2 -45 -2 -180q-136 2 -467 -4z" />
    <glyph glyph-name="degree" unicode="&#xb0;" horiz-adv-x="501" 
d="M254 911q-106 0 -173 70.5t-67 208.5q0 111 61.5 185.5t174.5 74.5q116 0 177.5 -70t61.5 -190q0 -131 -61 -205t-174 -74zM252 1036q46 0 69 39t23 109q0 64 -22.5 104.5t-69.5 40.5q-45 0 -68.5 -42t-23.5 -103q0 -69 24.5 -108.5t67.5 -39.5z" />
    <glyph glyph-name="twosuperior" unicode="&#xb2;" horiz-adv-x="542" 
d="M506 614q-100 3 -218.5 4t-186.5 0h-68l-8 191q131 84 218 190t87 218q0 100 -56 100q-37 0 -51 -50t-4 -167q-88 0 -194 -4q-20 183 46 274.5t205 91.5q115 0 180.5 -62t65.5 -175q0 -127 -76.5 -244t-205.5 -203q69 0 136 2.5t100 5.5l32 2z" />
    <glyph glyph-name="threesuperior" unicode="&#xb3;" horiz-adv-x="583" 
d="M291 586q-152 0 -217.5 82t-53.5 247q87 -6 193 -12q-9 -172 72 -172q31 0 51 24t20 76q0 84 -43 111q-37 27 -137 19l-6 133q100 -7 141 20q37 23 37 96q0 52 -18 79.5t-45 27.5q-37 0 -55 -41.5t-11 -122.5l-194 -10q-14 166 61.5 245.5t212.5 79.5q111 0 179.5 -65.5
t68.5 -167.5q0 -156 -119 -195q62 -20 95.5 -75t33.5 -131q0 -116 -75.5 -182t-190.5 -66z" />
    <glyph glyph-name="acute" unicode="&#xb4;" horiz-adv-x="813" 
d="M356 1077q-39 31 -72 54.5t-46 31.5l-13 8q58 88 107.5 165t69.5 110l20 33q53 -41 95 -72t57 -42l16 -11q-76 -88 -134.5 -157t-79.5 -95z" />
    <glyph glyph-name="paragraph" unicode="&#xb6;" horiz-adv-x="858" 
d="M549 1182q-51 -3 -86 -11q-10 -595 -10 -993q-202 21 -319.5 178.5t-117.5 444.5q0 312 158.5 466t466.5 154q83 0 154 -8q-6 -527 14 -1610q-8 1 -26 2.5t-87.5 3.5t-156.5 1q8 877 10 1372z" />
    <glyph glyph-name="periodcentered" unicode="&#xb7;" horiz-adv-x="372" 
d="M184 518q-69 0 -110 50t-41 124t43.5 123t109.5 49q67 0 110.5 -48t43.5 -124q0 -83 -42.5 -128.5t-113.5 -45.5z" />
    <glyph glyph-name="cedilla" unicode="&#xb8;" horiz-adv-x="813" 
d="M326 14l106 2q-6 -43 -10 -100q91 -3 141.5 -41.5t50.5 -101.5q0 -81 -67 -128.5t-174 -47.5q-98 0 -170 34q10 51 22 123q70 -37 156 -37q33 0 55.5 11.5t22.5 33.5q0 59 -172 45q23 82 39 207z" />
    <glyph glyph-name="onesuperior" unicode="&#xb9;" horiz-adv-x="448" 
d="M174 610q0 500 -2 590l-109 -61l-63 174l244 135l129 -14q0 -188 2 -393.5t4 -316.5l2 -112z" />
    <glyph glyph-name="ordmasculine" unicode="&#xba;" horiz-adv-x="641" 
d="M319 651q-152 0 -227.5 101.5t-75.5 316.5q0 182 82 281.5t224 99.5q303 0 303 -393q0 -208 -80.5 -307t-225.5 -99zM324 805q36 0 53.5 56t17.5 192q0 125 -16.5 184t-54.5 59q-76 0 -76 -231q0 -146 17.5 -203t58.5 -57z" />
    <glyph glyph-name="guillemotright" unicode="&#xbb;" horiz-adv-x="673" 
d="M211 313q-62 4 -195 6q55 102 174 357q-57 151 -149 360q38 1 188 15q47 -135 156 -385q-76 -142 -174 -353zM502 326q-47 8 -197 8q53 100 166 346q-47 124 -156 360q52 -1 197 9q52 -139 156 -381q-62 -109 -166 -342z" />
    <glyph glyph-name="onequarter" unicode="&#xbc;" horiz-adv-x="1226" 
d="M174 610q0 500 -2 590l-109 -61l-63 174l244 135l129 -14q0 -188 2 -393.5t4 -316.5l2 -112zM319 -14q-35 5 -69 8.5t-51 4.5l-17 1q208 412 383.5 768.5t246.5 506.5l71 150q37 -4 72 -6t51 -2h16q-280 -557 -456 -914.5t-212 -436.5zM961 -2q0 107 2 158q-78 0 -316 -4
q0 38 -4 161q64 149 119 280.5t78 188.5l22 56l287 -9q-3 -330 0 -524q30 0 55 2q-2 -43 -2 -149h-53l2 -160q-56 -2 -103.5 -2t-67.5 1zM967 690q-100 -246 -150 -385h148q2 219 2 385z" />
    <glyph glyph-name="onehalf" unicode="&#xbd;" horiz-adv-x="1236" 
d="M174 610q0 500 -2 590l-109 -61l-63 174l244 135l129 -14q0 -188 2 -393.5t4 -316.5l2 -112zM319 -14q-35 5 -69 8.5t-51 4.5l-17 1q208 412 383.5 768.5t246.5 506.5l71 150q37 -4 72 -6t51 -2h16q-280 -557 -456 -914.5t-212 -436.5zM1200 -2q-100 3 -218 4t-186 0h-69
l-8 191q131 84 218 189.5t87 217.5q0 100 -55 100q-75 0 -56 -217q-88 0 -194 -4q-20 183 46.5 275t205.5 92q115 0 180.5 -62.5t65.5 -175.5q0 -126 -77 -242.5t-206 -203.5q69 0 136 2.5t100 5.5l32 2z" />
    <glyph glyph-name="threequarters" unicode="&#xbe;" horiz-adv-x="1300" 
d="M291 586q-152 0 -217.5 82t-53.5 247q87 -6 193 -12q-9 -172 72 -172q31 0 51 24t20 76q0 84 -43 111q-37 27 -137 19l-6 133q100 -7 141 20q37 23 37 96q0 52 -18 79.5t-45 27.5q-37 0 -55 -41.5t-11 -122.5l-194 -10q-14 166 61.5 245.5t212.5 79.5q111 0 179.5 -65.5
t68.5 -167.5q0 -156 -119 -195q62 -20 95.5 -75t33.5 -131q0 -116 -75.5 -182t-190.5 -66zM393 -14q-35 5 -69 8.5t-51 4.5l-17 1q208 412 383 768.5t246 506.5l71 150q37 -4 72 -6t52 -2h16q-280 -557 -456 -914.5t-212 -436.5zM1034 -2q0 107 2 158q-77 0 -315 -4
q0 38 -4 161q64 149 119 280.5t78 188.5l22 56l287 -9q-3 -330 0 -524q30 0 55 2q-2 -43 -2 -149h-53l2 -160q-56 -2 -103.5 -2t-67.5 1zM1040 690q-90 -222 -149 -385h147q2 219 2 385z" />
    <glyph glyph-name="questiondown" unicode="&#xbf;" horiz-adv-x="774" 
d="M373 -217q-174 0 -263.5 109.5t-89.5 291.5q0 198 75 304t218 147l-2 174q83 -2 144.5 -1t96.5 3l36 2q0 -88 1.5 -174.5t2.5 -128.5l2 -43q-158 -3 -216.5 -60t-58.5 -188q0 -213 78 -213q55 0 70 74t4 233q113 7 281 13q28 -278 -64 -410.5t-315 -132.5zM453 887
q-89 0 -136 50t-47 138q0 83 48 131.5t128 48.5q91 0 140 -51t49 -137q0 -82 -51.5 -131t-130.5 -49z" />
    <glyph glyph-name="Agrave" unicode="&#xc0;" horiz-adv-x="827" 
d="M4 31q86 543 201 1399q99 4 198 6t148 2h49q98 -716 223 -1469q-115 4 -293 -2q-8 91 -26 279q-18 0 -86.5 1t-118.5 1l-18 -221q-87 4 -277 4zM399 1200q-38 -322 -77 -725q53 -2 157 0q-19 200 -80 725zM401 1501q-61 80 -233 277q49 33 168 125q65 -111 196 -308
q-43 -24 -131 -94z" />
    <glyph glyph-name="Aacute" unicode="&#xc1;" horiz-adv-x="827" 
d="M4 31q86 543 201 1399q99 4 198 6t148 2h49q98 -716 223 -1469q-115 4 -293 -2q-8 91 -26 279q-18 0 -86.5 1t-118.5 1l-18 -221q-87 4 -277 4zM399 1200q-38 -322 -77 -725q53 -2 157 0q-19 200 -80 725zM418 1501q-39 31 -72 54.5t-46 31.5l-13 8q58 88 107 165t69 110
l20 33q53 -41 95 -72t58 -42l15 -11q-76 -88 -134.5 -157t-78.5 -95z" />
    <glyph glyph-name="Acircumflex" unicode="&#xc2;" horiz-adv-x="827" 
d="M4 31q86 543 201 1399q99 4 198 6t148 2h49q98 -716 223 -1469q-115 4 -293 -2q-8 91 -26 279q-18 0 -86.5 1t-118.5 1l-18 -221q-87 4 -277 4zM399 1200q-38 -322 -77 -725q53 -2 157 0q-19 200 -80 725zM229 1487q-35 34 -123 104q66 74 195 232q45 0 178 14
q57 -71 213 -225q-43 -39 -121 -123q-55 67 -178 180q-55 -57 -164 -182z" />
    <glyph glyph-name="Atilde" unicode="&#xc3;" horiz-adv-x="827" 
d="M4 31q86 543 201 1399q99 4 198 6t148 2h49q98 -716 223 -1469q-115 4 -293 -2q-8 91 -26 279q-18 0 -86.5 1t-118.5 1l-18 -221q-87 4 -277 4zM399 1200q-38 -322 -77 -725q53 -2 157 0q-19 200 -80 725zM266 1534q-47 0 -151 -6q-7 131 39 207.5t122 76.5
q43 0 86 -25.5t77.5 -51t56.5 -25.5q29 0 39 22t4 72q33 -1 139 11q20 -137 -21 -211t-133 -74q-39 0 -80 23t-75 46t-58 23q-51 0 -45 -88z" />
    <glyph glyph-name="Adieresis" unicode="&#xc4;" horiz-adv-x="827" 
d="M4 31q86 543 201 1399q99 4 198 6t148 2h49q98 -716 223 -1469q-115 4 -293 -2q-8 91 -26 279q-18 0 -86.5 1t-118.5 1l-18 -221q-87 4 -277 4zM399 1200q-38 -322 -77 -725q53 -2 157 0q-19 200 -80 725zM248 1538q-58 0 -90.5 39.5t-32.5 95.5q0 60 34.5 97.5
t88.5 37.5q60 0 90.5 -38.5t30.5 -96.5q0 -68 -34 -101.5t-87 -33.5zM555 1546q-54 0 -86.5 37t-32.5 100q0 55 32 91t89 36q56 0 85.5 -38t29.5 -95q0 -63 -31.5 -97t-85.5 -34z" />
    <glyph glyph-name="Aring" unicode="&#xc5;" horiz-adv-x="827" 
d="M4 31q86 543 201 1399q99 4 198 6t148 2h49q98 -716 223 -1469q-115 4 -293 -2q-8 91 -26 279q-18 0 -86.5 1t-118.5 1l-18 -221q-87 4 -277 4zM399 1200q-38 -322 -77 -725q53 -2 157 0q-19 200 -80 725zM397 1511q-92 0 -141 56t-49 143q0 86 53.5 137t138.5 51
q91 0 143 -54.5t52 -133.5q0 -103 -56.5 -151t-140.5 -48zM401 1616q34 0 52 25t18 69q0 37 -19 64.5t-51 27.5q-33 0 -50 -26.5t-17 -67.5t18 -66.5t49 -25.5z" />
    <glyph glyph-name="AE" unicode="&#xc6;" horiz-adv-x="1093" 
d="M1026 567l-272 2q10 -163 24 -323q111 -2 291 4q-2 -86 -4 -258q-189 -2 -524 -12q-9 102 -21 266q-45 2 -211 2l-24 -223q-95 6 -281 6q92 522 213 1380q203 1 416.5 7t325.5 12l112 6q-2 -119 2 -279q-219 -2 -360 -6q8 -131 22 -326q211 0 289 2q-2 -110 2 -260z
M436 1214q-49 -336 -98 -739q16 0 69 -1t95 -1q-30 355 -66 741z" />
    <glyph glyph-name="Ccedilla" unicode="&#xc7;" horiz-adv-x="829" 
d="M807 598q2 -133 -12.5 -237t-42 -174.5t-69.5 -118.5t-92 -71.5t-112 -29.5q-4 -28 -4 -53q91 -3 142 -42t51 -101q0 -81 -67.5 -129t-174.5 -48q-95 0 -170 35q11 51 23 123q70 -37 155 -37q33 0 55.5 11.5t22.5 33.5q0 59 -172 45q17 64 33 162q-182 20 -261 193
t-79 549q0 387 95 569t314 182q371 0 357 -590q-81 1 -155 3t-108 4l-34 2q2 195 -14 271.5t-60 76.5q-54 0 -73.5 -115t-16.5 -401q0 -295 19.5 -403.5t72.5 -108.5q16 0 28 9.5t23.5 34.5t17 69t8.5 113t-1 167z" />
    <glyph glyph-name="Egrave" unicode="&#xc8;" horiz-adv-x="663" 
d="M68 6q-5 592 -17 1415q167 3 580 9q-2 -113 2 -273q-168 -2 -305 -6q-2 -125 2 -332q184 0 262 2q0 -108 2 -260q-113 2 -260 2q4 -205 8 -299q119 -8 297 -12q-4 -88 -4 -258q-261 8 -567 12zM350 1503q-61 80 -233 277q49 33 168 125q65 -111 196 -308
q-43 -24 -131 -94z" />
    <glyph glyph-name="Eacute" unicode="&#xc9;" horiz-adv-x="663" 
d="M365 1503q-39 31 -72 54.5t-47 31.5l-13 8q58 88 107.5 165t69.5 110l20 33q53 -41 95 -72t57 -42l16 -11q-76 -88 -134.5 -157t-78.5 -95zM68 6q-5 592 -17 1415q167 3 580 9q-2 -113 2 -273q-168 -2 -305 -6q-2 -125 2 -332q184 0 262 2q0 -108 2 -260q-113 2 -260 2
q4 -205 8 -299q119 -8 297 -12q-4 -88 -4 -258q-261 8 -567 12z" />
    <glyph glyph-name="Ecircumflex" unicode="&#xca;" horiz-adv-x="663" 
d="M178 1493q-35 34 -123 104q66 74 195 232q45 0 178 14q57 -71 213 -225q-43 -39 -121 -123q-55 67 -178 180q-55 -57 -164 -182zM68 6q-5 592 -17 1415q167 3 580 9q-2 -113 2 -273q-168 -2 -305 -6q-2 -125 2 -332q184 0 262 2q0 -108 2 -260q-113 2 -260 2
q4 -205 8 -299q119 -8 297 -12q-4 -88 -4 -258q-261 8 -567 12z" />
    <glyph glyph-name="Edieresis" unicode="&#xcb;" horiz-adv-x="663" 
d="M197 1542q-58 0 -90.5 39.5t-32.5 95.5q0 60 34.5 97.5t88.5 37.5q60 0 90 -38.5t30 -96.5q0 -68 -33.5 -101.5t-86.5 -33.5zM504 1550q-54 0 -86.5 37.5t-32.5 100.5q0 55 32 91t89 36q56 0 85.5 -38t29.5 -96q0 -63 -31.5 -97t-85.5 -34zM68 6q-5 592 -17 1415
q167 3 580 9q-2 -113 2 -273q-168 -2 -305 -6q-2 -125 2 -332q184 0 262 2q0 -108 2 -260q-113 2 -260 2q4 -205 8 -299q119 -8 297 -12q-4 -88 -4 -258q-261 8 -567 12z" />
    <glyph glyph-name="Igrave" unicode="&#xcc;" horiz-adv-x="423" 
d="M76 -2q2 628 -8 1423q96 0 278 2q4 -687 10 -1425q-98 2 -280 0zM215 1503q-61 80 -233 277q49 33 168 125q65 -111 196 -308q-43 -24 -131 -94z" />
    <glyph glyph-name="Iacute" unicode="&#xcd;" horiz-adv-x="423" 
d="M76 -2q2 628 -8 1423q96 0 278 2q4 -687 10 -1425q-98 2 -280 0zM233 1503q-39 31 -72 54.5t-46 31.5l-13 8q58 88 107.5 165t69.5 110l20 33q53 -41 95 -72t58 -42l15 -11q-76 -88 -134.5 -157t-78.5 -95z" />
    <glyph glyph-name="Icircumflex" unicode="&#xce;" horiz-adv-x="423" 
d="M76 -2q2 628 -8 1423q96 0 278 2q4 -687 10 -1425q-98 2 -280 0zM43 1493q-35 34 -123 104q66 74 195 232q45 0 178 14q57 -71 213 -225q-43 -39 -121 -123q-55 67 -178 180q-55 -57 -164 -182z" />
    <glyph glyph-name="Idieresis" unicode="&#xcf;" horiz-adv-x="423" 
d="M76 -2q2 628 -8 1423q96 0 278 2q4 -687 10 -1425q-98 2 -280 0zM61 1546q-58 0 -90 39.5t-32 95.5q0 60 34 98t88 38q60 0 90.5 -39t30.5 -97q0 -68 -34 -101.5t-87 -33.5zM369 1554q-54 0 -86.5 37.5t-32.5 100.5q0 55 32 91t89 36q56 0 85 -37.5t29 -95.5
q0 -63 -31 -97.5t-85 -34.5z" />
    <glyph glyph-name="Eth" unicode="&#xd0;" horiz-adv-x="876" 
d="M90 -12l2 583q-41 0 -82 -2q4 85 4 271q27 -2 78 -4q2 176 0 583q114 21 211 21q291 0 416 -182.5t125 -579.5q0 -193 -33 -329t-100.5 -219t-163 -121t-228.5 -38q-110 0 -229 17zM377 184q43 -3 71.5 14.5t51.5 70t34 157t11 266.5q0 287 -42 407t-138 107
q0 -251 2 -372h98q-4 -66 2 -259q-41 2 -96 0z" />
    <glyph glyph-name="Ntilde" unicode="&#xd1;" horiz-adv-x="872" 
d="M57 33q6 514 -6 1343q109 9 273 13q106 -389 260 -875q-14 481 -45 944q11 -1 31 -2t86.5 -2t136.5 0q8 -553 28 -1464q-84 -13 -260 -25q-102 335 -268 871q4 -344 29 -807q-111 4 -265 4zM301 1544q-47 0 -151 -6q-7 131 39 208t122 77q34 0 68.5 -16t58 -35.5
t49 -35.5t43.5 -16q29 0 39 22.5t4 72.5q34 -2 140 10q20 -137 -21 -211t-133 -74q-39 0 -80 23t-75 46t-58 23q-51 0 -45 -88z" />
    <glyph glyph-name="Ograve" unicode="&#xd2;" horiz-adv-x="858" 
d="M428 -33q-215 0 -304 180.5t-91 563.5q0 108 7.5 198t24.5 176t47 150.5t72.5 114t104 75t139.5 25.5q95 0 165 -35.5t114 -97.5t71 -157.5t37 -202t10 -244.5q-2 -281 -47 -446t-129 -232.5t-221 -67.5zM432 184q33 0 51 41t28.5 160t10.5 338q0 286 -21.5 395
t-72.5 109q-53 0 -72.5 -110t-19.5 -392q0 -219 9.5 -335t29.5 -161t57 -45zM432 1501q-61 80 -233 277q49 33 168 125q65 -111 196 -308q-43 -24 -131 -94z" />
    <glyph glyph-name="Oacute" unicode="&#xd3;" horiz-adv-x="858" 
d="M449 1501q-39 31 -72 54.5t-47 31.5l-13 8q58 88 107.5 165t69.5 110l20 33q53 -41 95 -72t57 -42l16 -11q-76 -88 -134.5 -157t-78.5 -95zM428 -33q-215 0 -304 180.5t-91 563.5q0 108 7.5 198t24.5 176t47 150.5t72.5 114t104 75t139.5 25.5q95 0 165 -35.5t114 -97.5
t71 -157.5t37 -202t10 -244.5q-2 -281 -47 -446t-129 -232.5t-221 -67.5zM432 184q33 0 51 41t28.5 160t10.5 338q0 286 -21.5 395t-72.5 109q-53 0 -72.5 -110t-19.5 -392q0 -219 9.5 -335t29.5 -161t57 -45z" />
    <glyph glyph-name="Ocircumflex" unicode="&#xd4;" horiz-adv-x="858" 
d="M258 1485q-35 34 -123 104q66 74 195 232q45 0 178 14q57 -71 213 -225q-43 -39 -121 -123q-55 67 -178 180q-55 -57 -164 -182zM428 -33q-215 0 -304 180.5t-91 563.5q0 108 7.5 198t24.5 176t47 150.5t72.5 114t104 75t139.5 25.5q95 0 165 -35.5t114 -97.5t71 -157.5
t37 -202t10 -244.5q-2 -281 -47 -446t-129 -232.5t-221 -67.5zM432 184q33 0 51 41t28.5 160t10.5 338q0 286 -21.5 395t-72.5 109q-53 0 -72.5 -110t-19.5 -392q0 -219 9.5 -335t29.5 -161t57 -45z" />
    <glyph glyph-name="Otilde" unicode="&#xd5;" horiz-adv-x="858" 
d="M428 -33q-215 0 -304 180.5t-91 563.5q0 108 7.5 198t24.5 176t47 150.5t72.5 114t104 75t139.5 25.5q95 0 165 -35.5t114 -97.5t71 -157.5t37 -202t10 -244.5q-2 -281 -47 -446t-129 -232.5t-221 -67.5zM432 184q33 0 51 41t28.5 160t10.5 338q0 286 -21.5 395
t-72.5 109q-53 0 -72.5 -110t-19.5 -392q0 -219 9.5 -335t29.5 -161t57 -45zM295 1530q-48 0 -152 -6q-7 131 39.5 207.5t122.5 76.5q43 0 86 -25.5t77 -51t56 -25.5q29 0 39 22t4 72q34 -2 140 10q20 -136 -21 -210t-133 -74q-39 0 -80 23t-75 46t-58 23q-51 0 -45 -88z
" />
    <glyph glyph-name="Odieresis" unicode="&#xd6;" horiz-adv-x="858" 
d="M276 1538q-58 0 -90 39.5t-32 95.5q0 60 34 97.5t88 37.5q60 0 90.5 -38.5t30.5 -96.5q0 -68 -34 -101.5t-87 -33.5zM584 1546q-54 0 -86.5 37t-32.5 100q0 55 32 91t89 36q56 0 85 -37.5t29 -95.5q0 -63 -31 -97t-85 -34zM428 -33q-215 0 -304 180.5t-91 563.5
q0 108 7.5 198t24.5 176t47 150.5t72.5 114t104 75t139.5 25.5q95 0 165 -35.5t114 -97.5t71 -157.5t37 -202t10 -244.5q-2 -281 -47 -446t-129 -232.5t-221 -67.5zM432 184q33 0 51 41t28.5 160t10.5 338q0 286 -21.5 395t-72.5 109q-53 0 -72.5 -110t-19.5 -392
q0 -219 9.5 -335t29.5 -161t57 -45z" />
    <glyph glyph-name="multiply" unicode="&#xd7;" horiz-adv-x="694" 
d="M156 305q-31 41 -131 135q75 80 198 219q-38 46 -87 102.5t-79 90.5l-30 33l143 133q47 -57 92.5 -110.5t67.5 -77.5l22 -25q83 92 185 215q41 -41 133 -123q-86 -94 -201 -225q56 -64 105.5 -119t70.5 -77l21 -23l-146 -144q-24 29 -86.5 103t-93.5 112
q-157 -186 -184 -219z" />
    <glyph glyph-name="Oslash" unicode="&#xd8;" horiz-adv-x="876" 
d="M285 -209q-89 46 -228 103q31 59 99 202q-123 184 -123 621q0 364 95 543.5t296 179.5q54 0 104 -15q25 70 52 166q77 -38 243 -104q-46 -72 -114 -199q110 -172 110 -577q0 -392 -92 -575t-303 -183q-40 0 -88 10q-31 -101 -51 -172zM422 172q28 0 45.5 24t28.5 87.5
t15.5 167t4.5 270.5q0 269 -21 381t-73 112t-73 -112t-21 -393q0 -209 9 -324.5t29 -164t56 -48.5z" />
    <glyph glyph-name="Ugrave" unicode="&#xd9;" horiz-adv-x="821" 
d="M414 -29q-210 0 -297.5 189.5t-87.5 597.5q0 344 43 645q80 -14 268 -37q-37 -339 -37 -545q0 -577 109 -577q24 0 40 17t29 65.5t19 145t6 247.5q0 327 -53 719q106 2 280 22q64 -412 64 -729q0 -404 -88.5 -582t-294.5 -178zM414 1493q-62 79 -234 276q49 33 168 125
q66 -110 197 -307q-43 -24 -131 -94z" />
    <glyph glyph-name="Uacute" unicode="&#xda;" horiz-adv-x="821" 
d="M430 1493q-39 31 -72 54.5t-46 31.5l-13 8q58 88 107.5 164.5t69.5 109.5l20 33q53 -41 95 -72t57 -42l16 -11q-76 -88 -134.5 -157t-79.5 -94zM414 -29q-210 0 -297.5 189.5t-87.5 597.5q0 344 43 645q80 -14 268 -37q-37 -339 -37 -545q0 -577 109 -577q24 0 40 17
t29 65.5t19 145t6 247.5q0 327 -53 719q106 2 280 22q64 -412 64 -729q0 -404 -88.5 -582t-294.5 -178z" />
    <glyph glyph-name="Ucircumflex" unicode="&#xdb;" horiz-adv-x="821" 
d="M240 1493q-35 34 -123 104q65 74 194 232q45 0 178 14q57 -71 213 -225q-42 -39 -120 -123q-56 67 -179 180q-54 -57 -163 -182zM414 -29q-210 0 -297.5 189.5t-87.5 597.5q0 344 43 645q80 -14 268 -37q-37 -339 -37 -545q0 -577 109 -577q24 0 40 17t29 65.5t19 145
t6 247.5q0 327 -53 719q106 2 280 22q64 -412 64 -729q0 -404 -88.5 -582t-294.5 -178z" />
    <glyph glyph-name="Udieresis" unicode="&#xdc;" horiz-adv-x="821" 
d="M260 1542q-58 0 -90.5 39.5t-32.5 95.5q0 60 34.5 97.5t88.5 37.5q60 0 90.5 -38.5t30.5 -96.5q0 -68 -34 -101.5t-87 -33.5zM567 1550q-54 0 -86 37.5t-32 100.5q0 55 32 91t88 36t85.5 -38t29.5 -96q0 -63 -31.5 -97t-85.5 -34zM414 -29q-210 0 -297.5 189.5
t-87.5 597.5q0 344 43 645q80 -14 268 -37q-37 -339 -37 -545q0 -577 109 -577q24 0 40 17t29 65.5t19 145t6 247.5q0 327 -53 719q106 2 280 22q64 -412 64 -729q0 -404 -88.5 -582t-294.5 -178z" />
    <glyph glyph-name="Yacute" unicode="&#xdd;" horiz-adv-x="833" 
d="M281 -27q6 69 -2 326q-64 294 -275 1085q53 1 301 11q43 -299 117 -701q57 323 123 742q79 -6 286 -6q-110 -430 -274 -1127q-4 -44 6 -328q-59 4 -282 -2zM436 1468q-39 31 -72 55t-46 32l-13 8q58 88 107.5 164.5t69.5 109.5l20 33q53 -41 95 -72t57 -42l16 -11
q-76 -88 -134.5 -157t-79.5 -94z" />
    <glyph glyph-name="Thorn" unicode="&#xde;" horiz-adv-x="790" 
d="M53 12q1 64 2 179t2 496t-2 751q107 -9 271 -11q-2 -67 -2 -159q232 -10 341 -148t109 -397q0 -253 -115 -384.5t-323 -145.5q0 -61 4 -179q-119 2 -287 -2zM324 1059q0 -160 8 -672q85 11 124.5 84.5t39.5 235.5q0 180 -39 262.5t-133 89.5z" />
    <glyph glyph-name="germandbls" unicode="&#xdf;" horiz-adv-x="815" 
d="M59 45q-20 524 4 911q17 240 108.5 350.5t277.5 110.5q154 0 248 -100t94 -277q0 -115 -46 -199t-131 -124q90 -39 136.5 -127t46.5 -207q0 -116 -34 -198.5t-94 -125t-131 -58.5t-155 -9q6 47 6 213q131 3 131 188q0 94 -31.5 139.5t-95.5 51.5q2 61 -4 245
q68 6 97.5 47t29.5 144q0 178 -80 178q-49 0 -72.5 -51t-31.5 -162q-32 -380 4 -942z" />
    <glyph glyph-name="agrave" unicode="&#xe0;" horiz-adv-x="759" 
d="M279 -20q-117 0 -190 70t-73 192q0 166 112 259.5t321 108.5q-3 37 -3 66q-3 91 -17.5 126.5t-49.5 35.5q-77 0 -74 -183l-256 -2q-8 172 78 276.5t262 104.5q316 0 326 -370q4 -165 4.5 -336.5t-1.5 -261.5l-1 -89q-62 -2 -207 -4q6 68 8 154q-55 -147 -239 -147z
M461 391q0 55 -2 80q-92 -14 -134 -66t-42 -124q0 -107 79 -107q99 0 99 217zM373 1077q-62 80 -234 277q49 33 168 125q66 -111 197 -308q-43 -24 -131 -94z" />
    <glyph glyph-name="aacute" unicode="&#xe1;" horiz-adv-x="759" 
d="M279 -20q-117 0 -190 70t-73 192q0 166 112 259.5t321 108.5q-3 37 -3 66q-3 91 -17.5 126.5t-49.5 35.5q-77 0 -74 -183l-256 -2q-8 172 78 276.5t262 104.5q316 0 326 -370q4 -165 4.5 -336.5t-1.5 -261.5l-1 -89q-62 -2 -207 -4q6 68 8 154q-55 -147 -239 -147z
M461 391q0 55 -2 80q-92 -14 -134 -66t-42 -124q0 -107 79 -107q99 0 99 217zM387 1077q-39 31 -72 54.5t-46 31.5l-13 8q58 88 107.5 165t69.5 110l20 33q53 -41 95 -72t58 -42l15 -11q-76 -88 -134.5 -157t-78.5 -95z" />
    <glyph glyph-name="acircumflex" unicode="&#xe2;" horiz-adv-x="759" 
d="M279 -20q-117 0 -190 70t-73 192q0 166 112 259.5t321 108.5q-3 37 -3 66q-3 91 -17.5 126.5t-49.5 35.5q-77 0 -74 -183l-256 -2q-8 172 78 276.5t262 104.5q316 0 326 -370q4 -165 4.5 -336.5t-1.5 -261.5l-1 -89q-62 -2 -207 -4q6 68 8 154q-55 -147 -239 -147z
M461 391q0 55 -2 80q-92 -14 -134 -66t-42 -124q0 -107 79 -107q99 0 99 217zM201 1067q-35 34 -123 104q65 74 194 232q46 0 179 14q57 -71 213 -225q-43 -39 -121 -123q-55 67 -178 180q-55 -57 -164 -182z" />
    <glyph glyph-name="atilde" unicode="&#xe3;" horiz-adv-x="759" 
d="M279 -20q-117 0 -190 70t-73 192q0 166 112 259.5t321 108.5q-3 37 -3 66q-3 91 -17.5 126.5t-49.5 35.5q-77 0 -74 -183l-256 -2q-8 172 78 276.5t262 104.5q316 0 326 -370q4 -165 4.5 -336.5t-1.5 -261.5l-1 -89q-62 -2 -207 -4q6 68 8 154q-55 -147 -239 -147z
M461 391q0 55 -2 80q-92 -14 -134 -66t-42 -124q0 -107 79 -107q99 0 99 217zM238 1110q-48 0 -152 -6q-7 131 39.5 208t122.5 77q34 0 68.5 -16t58 -35.5t49 -35.5t43.5 -16q29 0 39 22t4 72q33 -1 139 11q20 -137 -20.5 -211t-132.5 -74q-39 0 -80 23t-75 46t-58 23
q-51 0 -45 -88z" />
    <glyph glyph-name="adieresis" unicode="&#xe4;" horiz-adv-x="759" 
d="M279 -20q-117 0 -190 70t-73 192q0 166 112 259.5t321 108.5q-3 37 -3 66q-3 91 -17.5 126.5t-49.5 35.5q-77 0 -74 -183l-256 -2q-8 172 78 276.5t262 104.5q316 0 326 -370q4 -165 4.5 -336.5t-1.5 -261.5l-1 -89q-62 -2 -207 -4q6 68 8 154q-55 -147 -239 -147z
M461 391q0 55 -2 80q-92 -14 -134 -66t-42 -124q0 -107 79 -107q99 0 99 217zM219 1112q-58 0 -90.5 39.5t-32.5 95.5q0 60 34.5 97.5t88.5 37.5q60 0 90.5 -38.5t30.5 -96.5q0 -68 -34 -101.5t-87 -33.5zM526 1120q-54 0 -86 37t-32 100q0 55 32 91t88 36t85.5 -38
t29.5 -95q0 -63 -31.5 -97t-85.5 -34z" />
    <glyph glyph-name="aring" unicode="&#xe5;" horiz-adv-x="759" 
d="M279 -20q-117 0 -190 70t-73 192q0 166 112 259.5t321 108.5q-3 37 -3 66q-3 91 -17.5 126.5t-49.5 35.5q-77 0 -74 -183l-256 -2q-8 172 78 276.5t262 104.5q316 0 326 -370q4 -165 4.5 -336.5t-1.5 -261.5l-1 -89q-62 -2 -207 -4q6 68 8 154q-55 -147 -239 -147z
M461 391q0 55 -2 80q-92 -14 -134 -66t-42 -124q0 -107 79 -107q99 0 99 217zM367 1094q-92 0 -141.5 55.5t-49.5 142.5q0 86 54 137.5t139 51.5q91 0 142.5 -55t51.5 -134q0 -103 -56 -150.5t-140 -47.5zM371 1198q69 0 69 94q0 38 -18.5 65t-50.5 27q-34 0 -51 -26.5
t-17 -67.5t18.5 -66.5t49.5 -25.5z" />
    <glyph glyph-name="ae" unicode="&#xe6;" horiz-adv-x="1226" 
d="M846 -31q-89 0 -159 37t-109 111q-37 -69 -105.5 -106.5t-159.5 -37.5q-132 0 -214.5 76t-82.5 211q0 312 433 340v35q-1 115 -16.5 157t-53.5 42q-37 0 -57 -46.5t-17 -142.5l-256 -2q-8 174 76 279.5t250 105.5q158 0 225 -119q82 127 244 127q384 0 346 -573
q-176 0 -447 -8q2 -152 24 -219.5t71 -67.5q76 0 84 186q139 -2 276 -6q-20 -188 -110 -283.5t-242 -95.5zM362 168q48 0 73.5 55.5t25.5 184.5v47q-93 -10 -135.5 -54t-42.5 -125q0 -48 19.5 -78t59.5 -30zM831 854q-37 0 -58.5 -56t-27.5 -190q13 1 68.5 2.5t95.5 3.5
q2 113 -19 176.5t-59 63.5z" />
    <glyph glyph-name="ccedilla" unicode="&#xe7;" horiz-adv-x="780" 
d="M758 432q5 -427 -305 -455q-4 -26 -4 -61q91 -3 141.5 -41.5t50.5 -101.5q0 -81 -67.5 -128.5t-174.5 -47.5q-98 0 -170 34q11 51 23 123q70 -37 156 -37q33 0 55 11.5t22 33.5q0 59 -172 45q19 69 33 173q-163 20 -238 154.5t-75 377.5q0 252 96.5 392t286.5 140
q118 0 199 -60.5t115.5 -161.5t25.5 -230l-275 6q6 246 -75 246q-45 0 -66 -81t-21 -259q0 -165 21.5 -239.5t65.5 -74.5q84 0 73 238q64 -2 279 4z" />
    <glyph glyph-name="egrave" unicode="&#xe8;" horiz-adv-x="798" 
d="M408 -23q-86 0 -152 27t-108 74t-68 117t-36.5 148.5t-10.5 176.5q0 113 20.5 205t63.5 164t115.5 111.5t170.5 39.5q392 0 357 -602q-178 -2 -447 -6q4 -136 27.5 -197t69.5 -61q76 0 82 184q139 -2 276 -6q-17 -177 -112 -276t-248 -99zM401 858q-42 0 -62.5 -65.5
t-25.5 -200.5q52 0 166 4q3 262 -78 262zM403 1098q-61 79 -233 276q49 33 168 125q66 -110 197 -307q-44 -24 -132 -94z" />
    <glyph glyph-name="eacute" unicode="&#xe9;" horiz-adv-x="798" 
d="M418 1098q-39 31 -72 54.5t-46 31.5l-13 8q58 88 107 164.5t69 109.5l20 33q53 -41 95 -72t58 -42l15 -11q-76 -88 -134.5 -157t-78.5 -94zM408 -23q-86 0 -152 27t-108 74t-68 117t-36.5 148.5t-10.5 176.5q0 113 20.5 205t63.5 164t115.5 111.5t170.5 39.5
q392 0 357 -602q-178 -2 -447 -6q4 -136 27.5 -197t69.5 -61q76 0 82 184q139 -2 276 -6q-17 -177 -112 -276t-248 -99zM401 858q-42 0 -62.5 -65.5t-25.5 -200.5q52 0 166 4q3 262 -78 262z" />
    <glyph glyph-name="ecircumflex" unicode="&#xea;" horiz-adv-x="798" 
d="M231 1079q-34 35 -122 105q65 73 194 231q45 1 178 15q57 -72 213 -226q-43 -39 -121 -123q-55 68 -178 181q-55 -58 -164 -183zM408 -23q-86 0 -152 27t-108 74t-68 117t-36.5 148.5t-10.5 176.5q0 113 20.5 205t63.5 164t115.5 111.5t170.5 39.5q392 0 357 -602
q-178 -2 -447 -6q4 -136 27.5 -197t69.5 -61q76 0 82 184q139 -2 276 -6q-17 -177 -112 -276t-248 -99zM401 858q-42 0 -62.5 -65.5t-25.5 -200.5q52 0 166 4q3 262 -78 262z" />
    <glyph glyph-name="edieresis" unicode="&#xeb;" horiz-adv-x="798" 
d="M250 1120q-58 0 -90.5 39.5t-32.5 95.5q0 60 34.5 98t88.5 38q60 0 90.5 -39t30.5 -97q0 -68 -34 -101.5t-87 -33.5zM557 1128q-54 0 -86.5 37.5t-32.5 100.5q0 55 32 91t89 36q56 0 85.5 -38t29.5 -95q0 -63 -31.5 -97.5t-85.5 -34.5zM408 -23q-86 0 -152 27t-108 74
t-68 117t-36.5 148.5t-10.5 176.5q0 113 20.5 205t63.5 164t115.5 111.5t170.5 39.5q392 0 357 -602q-178 -2 -447 -6q4 -136 27.5 -197t69.5 -61q76 0 82 184q139 -2 276 -6q-17 -177 -112 -276t-248 -99zM401 858q-42 0 -62.5 -65.5t-25.5 -200.5q52 0 166 4
q3 262 -78 262z" />
    <glyph glyph-name="igrave" unicode="&#xec;" horiz-adv-x="387" 
d="M66 2q1 277 -7 1028q91 -2 271 2q-2 -378 8 -1028q-114 0 -272 -2zM201 1102q-62 79 -234 276q49 33 168 125q66 -110 197 -307q-43 -24 -131 -94z" />
    <glyph glyph-name="iacute" unicode="&#xed;" horiz-adv-x="387" 
d="M219 1102q-39 31 -72 54.5t-46 31.5l-13 8q58 88 107.5 164.5t69.5 109.5l20 33q53 -41 95 -72t58 -42l15 -11q-76 -88 -134.5 -157t-78.5 -94zM66 2q1 277 -7 1028q91 -2 271 2q-2 -378 8 -1028q-114 0 -272 -2z" />
    <glyph glyph-name="icircumflex" unicode="&#xee;" horiz-adv-x="387" 
d="M29 1092q-35 34 -123 104q65 73 194 231q46 1 179 15q57 -71 213 -225q-43 -39 -121 -123q-55 67 -178 180q-55 -57 -164 -182zM66 2q1 277 -7 1028q91 -2 271 2q-2 -378 8 -1028q-114 0 -272 -2z" />
    <glyph glyph-name="idieresis" unicode="&#xef;" horiz-adv-x="387" 
d="M47 1145q-58 0 -90.5 39.5t-32.5 95.5q0 60 34.5 97.5t88.5 37.5q60 0 90.5 -38.5t30.5 -96.5q0 -68 -34 -101.5t-87 -33.5zM354 1153q-54 0 -86 37t-32 100q0 55 32 91t88 36t85.5 -38t29.5 -95q0 -63 -31.5 -97t-85.5 -34zM66 2q1 277 -7 1028q91 -2 271 2
q-2 -378 8 -1028q-114 0 -272 -2z" />
    <glyph glyph-name="eth" unicode="&#xf0;" horiz-adv-x="815" 
d="M401 -31q-183 0 -275.5 141t-92.5 418q0 237 73.5 373.5t204.5 136.5q107 0 170 -104q-56 211 -217 340l170 160q71 -53 127 -121q42 39 90 90q43 -62 154 -193l-127 -88q104 -236 104 -575q0 -299 -97 -438.5t-284 -139.5zM412 162q45 0 65.5 78t20.5 274
q0 120 -21.5 216.5t-64.5 96.5q-88 0 -88 -321q0 -176 20.5 -260t67.5 -84z" />
    <glyph glyph-name="ntilde" unicode="&#xf1;" horiz-adv-x="780" 
d="M465 -37q2 404 2 727q0 52 -12.5 76.5t-42.5 24.5q-40 0 -62 -40t-22 -104q-2 -68 -2.5 -222.5t0.5 -274.5v-121q-128 2 -275 0q1 44 2 123t3 338.5t-1 510.5q92 -3 215 3l-2 -154q33 82 101 134t151 52q206 0 215 -280q2 -48 3 -246t1 -372v-173zM274 1112
q-47 0 -151 -6q-7 131 39.5 208t122.5 77q34 0 68.5 -16t58 -35.5t49 -35.5t43.5 -16q29 0 39 22t4 72q33 -1 139 11q20 -137 -21 -211t-133 -74q-39 0 -80 23t-75 46t-58 23q-51 0 -45 -88z" />
    <glyph glyph-name="ograve" unicode="&#xf2;" horiz-adv-x="813" 
d="M403 -20q-103 0 -176 38t-115 112t-60.5 170t-18.5 224q0 156 39.5 270t125 181t210.5 67q97 0 169.5 -38.5t116.5 -110t65 -165.5t21 -212q0 -277 -95 -406.5t-282 -129.5zM408 162q46 0 66 80t20 272q0 179 -20 259.5t-66 80.5q-48 0 -68.5 -78.5t-20.5 -251.5
q0 -142 8.5 -219.5t27.5 -110t53 -32.5zM410 1087q-62 80 -234 277q49 33 168 125q66 -110 197 -307q-43 -25 -131 -95z" />
    <glyph glyph-name="oacute" unicode="&#xf3;" horiz-adv-x="813" 
d="M426 1087q-39 31 -72 55t-46 32l-13 8q58 88 107.5 164.5t69.5 109.5l20 33l167 -125q-76 -88 -134.5 -157t-78.5 -95zM403 -20q-103 0 -176 38t-115 112t-60.5 170t-18.5 224q0 156 39.5 270t125 181t210.5 67q97 0 169.5 -38.5t116.5 -110t65 -165.5t21 -212
q0 -277 -95 -406.5t-282 -129.5zM408 162q46 0 66 80t20 272q0 179 -20 259.5t-66 80.5q-48 0 -68.5 -78.5t-20.5 -251.5q0 -142 8.5 -219.5t27.5 -110t53 -32.5z" />
    <glyph glyph-name="ocircumflex" unicode="&#xf4;" horiz-adv-x="813" 
d="M238 1079q-35 35 -123 105q65 73 194 231q45 1 178 15q57 -72 213 -226q-42 -39 -120 -123q-56 68 -179 181q-54 -58 -163 -183zM403 -20q-103 0 -176 38t-115 112t-60.5 170t-18.5 224q0 156 39.5 270t125 181t210.5 67q97 0 169.5 -38.5t116.5 -110t65 -165.5t21 -212
q0 -277 -95 -406.5t-282 -129.5zM408 162q46 0 66 80t20 272q0 179 -20 259.5t-66 80.5q-48 0 -68.5 -78.5t-20.5 -251.5q0 -142 8.5 -219.5t27.5 -110t53 -32.5z" />
    <glyph glyph-name="otilde" unicode="&#xf5;" horiz-adv-x="813" 
d="M403 -20q-103 0 -176 38t-115 112t-60.5 170t-18.5 224q0 156 39.5 270t125 181t210.5 67q97 0 169.5 -38.5t116.5 -110t65 -165.5t21 -212q0 -277 -95 -406.5t-282 -129.5zM408 162q46 0 66 80t20 272q0 179 -20 259.5t-66 80.5q-48 0 -68.5 -78.5t-20.5 -251.5
q0 -142 8.5 -219.5t27.5 -110t53 -32.5zM274 1120q-47 0 -151 -6q-7 131 39.5 208t122.5 77q34 0 68.5 -16t58 -35.5t49 -35.5t43.5 -16q29 0 39 22.5t4 72.5q33 -2 139 10q20 -137 -21 -211t-133 -74q-39 0 -80 23t-75 46t-58 23q-51 0 -45 -88z" />
    <glyph glyph-name="odieresis" unicode="&#xf6;" horiz-adv-x="813" 
d="M256 1126q-58 0 -90.5 40t-32.5 96q0 60 34.5 97.5t88.5 37.5q60 0 90.5 -38.5t30.5 -96.5q0 -68 -34 -102t-87 -34zM563 1135q-54 0 -86.5 37t-32.5 100q0 55 32 91t89 36q56 0 85.5 -38t29.5 -95q0 -63 -31.5 -97t-85.5 -34zM403 -20q-103 0 -176 38t-115 112
t-60.5 170t-18.5 224q0 156 39.5 270t125 181t210.5 67q97 0 169.5 -38.5t116.5 -110t65 -165.5t21 -212q0 -277 -95 -406.5t-282 -129.5zM408 162q46 0 66 80t20 272q0 179 -20 259.5t-66 80.5q-48 0 -68.5 -78.5t-20.5 -251.5q0 -142 8.5 -219.5t27.5 -110t53 -32.5z" />
    <glyph glyph-name="divide" unicode="&#xf7;" horiz-adv-x="595" 
d="M18 768q89 -2 189 -3t165.5 -0.5l131 1t74.5 0.5q-5 -101 -5 -211q-347 7 -555 0v213zM297 1118q58 0 90.5 -39.5t32.5 -95.5q0 -60 -35.5 -96.5t-89.5 -36.5q-53 0 -88 36t-35 97q0 64 33 99.5t92 35.5zM299 473q123 0 123 -135q0 -61 -35.5 -96t-87.5 -35
q-56 0 -89.5 35t-33.5 96q0 63 31.5 99t91.5 36z" />
    <glyph glyph-name="oslash" unicode="&#xf8;" horiz-adv-x="843" 
d="M416 -16q-54 0 -97 12l-57 -168q-94 51 -219 106q41 61 107 170q-105 133 -105 414q0 531 377 531q41 0 94 -11q17 49 57 172q83 -44 226 -110q-42 -67 -105 -178q101 -135 101 -418q0 -243 -95.5 -381.5t-283.5 -138.5zM418 166q33 0 51.5 30t27.5 104t9 206
q0 140 -9.5 218t-28 107t-50.5 29q-42 0 -64 -79.5t-22 -266.5q0 -198 19 -273t67 -75z" />
    <glyph glyph-name="ugrave" unicode="&#xf9;" 
d="M301 -16q-89 0 -144 51t-84.5 175.5t-29.5 334.5q0 237 27 477q72 -10 256 -18q-17 -174 -17 -365q0 -173 10.5 -267.5t27.5 -123.5t46 -29q32 0 53 46.5t21 119.5q1 149 -2.5 314.5t-7.5 256.5l-4 91q9 -1 27.5 -2t89.5 -2.5t159 -0.5q-2 -457 4 -1077q-8 0 -23.5 0.5
t-72 1.5t-125.5 0q2 81 4 185q-30 -80 -88.5 -124t-126.5 -44zM391 1094q-61 79 -233 276q49 33 168 125q65 -110 196 -307q-43 -24 -131 -94z" />
    <glyph glyph-name="uacute" unicode="&#xfa;" 
d="M408 1094q-39 31 -72 54.5t-46 31.5l-14 8q58 88 107.5 164.5t69.5 109.5l20 33q53 -41 95 -72t58 -42l15 -11q-76 -88 -134.5 -157t-78.5 -94zM301 -16q-89 0 -144 51t-84.5 175.5t-29.5 334.5q0 237 27 477q72 -10 256 -18q-17 -174 -17 -365q0 -173 10.5 -267.5
t27.5 -123.5t46 -29q32 0 53 46.5t21 119.5q1 149 -2.5 314.5t-7.5 256.5l-4 91q9 -1 27.5 -2t89.5 -2.5t159 -0.5q-2 -457 4 -1077q-8 0 -23.5 0.5t-72 1.5t-125.5 0q2 81 4 185q-30 -80 -88.5 -124t-126.5 -44z" />
    <glyph glyph-name="ucircumflex" unicode="&#xfb;" 
d="M219 1083q-35 35 -123 105q66 73 195 231q45 1 178 15q57 -72 213 -226q-43 -39 -121 -123q-55 68 -178 181q-55 -58 -164 -183zM301 -16q-89 0 -144 51t-84.5 175.5t-29.5 334.5q0 237 27 477q72 -10 256 -18q-17 -174 -17 -365q0 -173 10.5 -267.5t27.5 -123.5t46 -29
q32 0 53 46.5t21 119.5q1 149 -2.5 314.5t-7.5 256.5l-4 91q9 -1 27.5 -2t89.5 -2.5t159 -0.5q-2 -457 4 -1077q-8 0 -23.5 0.5t-72 1.5t-125.5 0q2 81 4 185q-30 -80 -88.5 -124t-126.5 -44z" />
    <glyph glyph-name="udieresis" unicode="&#xfc;" 
d="M238 1133q-58 0 -90.5 39.5t-32.5 95.5q0 60 34.5 97.5t88.5 37.5q60 0 90 -38.5t30 -96.5q0 -68 -33.5 -101.5t-86.5 -33.5zM545 1141q-54 0 -86.5 37t-32.5 100q0 55 32 91t89 36q56 0 85.5 -38t29.5 -95q0 -63 -31.5 -97t-85.5 -34zM301 -16q-89 0 -144 51
t-84.5 175.5t-29.5 334.5q0 237 27 477q72 -10 256 -18q-17 -174 -17 -365q0 -173 10.5 -267.5t27.5 -123.5t46 -29q32 0 53 46.5t21 119.5q1 149 -2.5 314.5t-7.5 256.5l-4 91q9 -1 27.5 -2t89.5 -2.5t159 -0.5q-2 -457 4 -1077q-8 0 -23.5 0.5t-72 1.5t-125.5 0
q2 81 4 185q-30 -80 -88.5 -124t-126.5 -44z" />
    <glyph glyph-name="yacute" unicode="&#xfd;" horiz-adv-x="788" 
d="M469 -449l-266 35q19 100 33.5 183.5t19.5 116.5l4 34q-72 315 -136 581.5t-92 374.5l-28 109q82 0 156 3t108 6l33 3q22 -193 46 -370.5t37 -258.5l13 -81q30 232 51 423t27 266l6 75l303 -15q-116 -537 -195 -908t-99 -474zM414 1087q-39 31 -72 55t-46 32l-13 8
q58 88 107 164.5t69 109.5l20 33q53 -41 95 -72t58 -42l15 -11q-76 -88 -134.5 -157t-78.5 -95z" />
    <glyph glyph-name="thorn" unicode="&#xfe;" horiz-adv-x="831" 
d="M53 -410q3 469 3 867t-2 661l-3 264q64 -2 122.5 -1.5t100.5 1.5l41 2q-6 -119 -6 -507q66 165 217 165q92 0 154 -69t90.5 -188t28.5 -283q0 -266 -76 -389t-203 -123q-146 0 -201 114q4 -173 8.5 -301t7.5 -169l3 -42q-100 3 -163.5 2.5t-92.5 -2.5zM418 176
q43 0 63.5 71.5t20.5 258.5q0 178 -19.5 259t-62.5 81q-50 0 -69 -80.5t-19 -253.5q0 -133 8.5 -206t26.5 -101.5t51 -28.5z" />
    <glyph glyph-name="ydieresis" unicode="&#xff;" horiz-adv-x="788" 
d="M469 -449l-266 35q19 100 33.5 183.5t19.5 116.5l4 34q-72 315 -136 581.5t-92 374.5l-28 109q82 0 156 3t108 6l33 3q22 -193 46 -370.5t37 -258.5l13 -81q30 232 51 423t27 266l6 75l303 -15q-116 -537 -195 -908t-99 -474zM244 1130q-58 0 -90.5 40t-32.5 96
q0 60 34.5 97.5t88.5 37.5q60 0 90.5 -38.5t30.5 -96.5q0 -68 -34 -102t-87 -34zM551 1139q-54 0 -86.5 37t-32.5 100q0 55 32 91t89 36q56 0 85.5 -38t29.5 -95q0 -63 -31.5 -97t-85.5 -34z" />
    <glyph glyph-name="Amacron" unicode="&#x100;" horiz-adv-x="827" 
d="M4 31q86 543 201 1399q99 4 198 6t148 2h49q98 -716 223 -1469q-115 4 -293 -2q-8 91 -26 279q-18 0 -86.5 1t-118.5 1l-18 -221q-87 4 -277 4zM399 1200q-38 -322 -77 -725q53 -2 157 0q-19 200 -80 725zM166 1569q2 53 -2 180q126 -2 471 4q-2 -45 -2 -180
q-136 2 -467 -4z" />
    <glyph glyph-name="amacron" unicode="&#x101;" horiz-adv-x="759" 
d="M279 -20q-117 0 -190 70t-73 192q0 166 112 259.5t321 108.5q-3 37 -3 66q-3 91 -17.5 126.5t-49.5 35.5q-77 0 -74 -183l-256 -2q-8 172 78 276.5t262 104.5q316 0 326 -370q4 -165 4.5 -336.5t-1.5 -261.5l-1 -89q-62 -2 -207 -4q6 68 8 154q-55 -147 -239 -147z
M461 391q0 55 -2 80q-92 -14 -134 -66t-42 -124q0 -107 79 -107q99 0 99 217zM137 1141q2 53 -2 180q126 -2 471 4q-2 -45 -2 -180q-136 2 -467 -4z" />
    <glyph glyph-name="Abreve" unicode="&#x102;" horiz-adv-x="827" 
d="M4 31q86 543 201 1399q99 4 198 6t148 2h49q98 -716 223 -1469q-115 4 -293 -2q-8 91 -26 279q-18 0 -86.5 1t-118.5 1l-18 -221q-87 4 -277 4zM399 1200q-38 -322 -77 -725q53 -2 157 0q-19 200 -80 725zM393 1524q-71 0 -123 22t-79 59.5t-38.5 81.5t-7.5 93
q53 -2 174 6q-3 -47 18 -77t62 -30q38 0 60 30.5t14 94.5q51 -2 176 2q7 -72 -11.5 -127.5t-55.5 -88.5t-85 -49.5t-104 -16.5z" />
    <glyph glyph-name="abreve" unicode="&#x103;" horiz-adv-x="759" 
d="M279 -20q-117 0 -190 70t-73 192q0 166 112 259.5t321 108.5q-3 37 -3 66q-3 91 -17.5 126.5t-49.5 35.5q-77 0 -74 -183l-256 -2q-8 172 78 276.5t262 104.5q316 0 326 -370q4 -165 4.5 -336.5t-1.5 -261.5l-1 -89q-62 -2 -207 -4q6 68 8 154q-55 -147 -239 -147z
M461 391q0 55 -2 80q-92 -14 -134 -66t-42 -124q0 -107 79 -107q99 0 99 217zM367 1098q-71 0 -123 22t-79 59.5t-38.5 81.5t-7.5 93q53 -2 174 6q-3 -47 18 -77t62 -30q38 0 59.5 30.5t13.5 94.5q52 -2 177 2q7 -72 -11.5 -127.5t-55.5 -88.5t-85 -49.5t-104 -16.5z" />
    <glyph glyph-name="Aogonek" unicode="&#x104;" horiz-adv-x="827" 
d="M698 -391q-133 -12 -208.5 39.5t-75.5 156.5q0 113 114 193l-24 248q-18 0 -86.5 1t-118.5 1l-18 -221q-87 4 -277 4q86 543 201 1399q99 4 198 6t148 2h49q98 -716 223 -1469l-192 2q-56 -53 -56 -102q0 -93 136 -90q-7 -45 -13 -170zM399 1200q-38 -322 -77 -725
q53 -2 157 0q-19 200 -80 725z" />
    <glyph glyph-name="aogonek" unicode="&#x105;" horiz-adv-x="759" 
d="M279 -20q-117 0 -190 70t-73 192q0 166 112 259.5t321 108.5q-3 37 -3 66q-3 91 -17.5 126.5t-49.5 35.5q-77 0 -74 -183l-256 -2q-8 172 78 276.5t262 104.5q316 0 326 -370q4 -165 4.5 -336.5t-1.5 -261.5l-1 -89q-33 0 -88 -2q-66 -51 -66 -108q0 -93 135 -90
q-6 -47 -10 -170q-134 -12 -210.5 39t-76.5 155q0 113 111 187q3 27 6 139q-55 -147 -239 -147zM461 391q0 55 -2 80q-92 -14 -134 -66t-42 -124q0 -107 79 -107q99 0 99 217z" />
    <glyph glyph-name="Cacute" unicode="&#x106;" horiz-adv-x="829" 
d="M438 1522q-39 31 -72 54.5t-46 31.5l-13 8q58 88 107.5 164.5t69.5 109.5l20 33q53 -41 95 -72t57 -42l16 -11q-76 -88 -134.5 -157t-79.5 -94zM426 -35q-210 0 -301.5 171.5t-91.5 572.5q0 387 95 569t314 182q371 0 357 -590q-81 1 -155 3t-108 4l-34 2
q2 195 -14 271.5t-60 76.5q-54 0 -73.5 -115t-16.5 -401q0 -295 19.5 -403.5t72.5 -108.5q16 0 28 9.5t23.5 34.5t17 69t8.5 113t-1 167l301 6q2 -144 -15 -253.5t-49.5 -181t-81.5 -117t-106.5 -64t-128.5 -17.5z" />
    <glyph glyph-name="cacute" unicode="&#x107;" horiz-adv-x="780" 
d="M414 1098q-39 31 -72 54.5t-46 31.5l-13 8q58 88 107 164.5t69 109.5l20 33q53 -41 95 -72t58 -42l15 -11q-76 -88 -134.5 -157t-78.5 -94zM406 -25q-194 0 -283.5 136.5t-89.5 400.5q0 252 96.5 392t286.5 140q118 0 199 -60.5t115.5 -161.5t25.5 -230l-275 6
q6 246 -75 246q-45 0 -66 -81t-21 -259q0 -165 21.5 -239.5t65.5 -74.5q84 0 73 238q64 -2 279 4q5 -457 -352 -457z" />
    <glyph glyph-name="Ccircumflex" unicode="&#x108;" horiz-adv-x="829" 
d="M250 1503q-35 35 -123 105q66 73 195 231q45 0 178 14q57 -71 213 -225q-43 -39 -121 -123q-55 68 -178 181q-55 -58 -164 -183zM426 -35q-210 0 -301.5 171.5t-91.5 572.5q0 387 95 569t314 182q371 0 357 -590q-81 1 -155 3t-108 4l-34 2q2 195 -14 271.5t-60 76.5
q-54 0 -73.5 -115t-16.5 -401q0 -295 19.5 -403.5t72.5 -108.5q16 0 28 9.5t23.5 34.5t17 69t8.5 113t-1 167l301 6q2 -144 -15 -253.5t-49.5 -181t-81.5 -117t-106.5 -64t-128.5 -17.5z" />
    <glyph glyph-name="ccircumflex" unicode="&#x109;" horiz-adv-x="780" 
d="M227 1077q-35 35 -123 105q66 73 195 231q45 0 178 14q57 -71 213 -225q-43 -39 -121 -123q-55 68 -178 181q-55 -58 -164 -183zM406 -25q-194 0 -283.5 136.5t-89.5 400.5q0 252 96.5 392t286.5 140q118 0 199 -60.5t115.5 -161.5t25.5 -230l-275 6q6 246 -75 246
q-45 0 -66 -81t-21 -259q0 -165 21.5 -239.5t65.5 -74.5q84 0 73 238q64 -2 279 4q5 -457 -352 -457z" />
    <glyph glyph-name="Ccaron" unicode="&#x10c;" horiz-adv-x="829" 
d="M340 1511q-57 72 -213 228q43 37 121 121q55 -68 178 -179q55 58 164 181q35 -35 123 -103q-66 -73 -195 -233q-45 1 -178 -15zM426 -35q-210 0 -301.5 171.5t-91.5 572.5q0 387 95 569t314 182q371 0 357 -590q-81 1 -155 3t-108 4l-34 2q2 195 -14 271.5t-60 76.5
q-54 0 -73.5 -115t-16.5 -401q0 -295 19.5 -403.5t72.5 -108.5q16 0 28 9.5t23.5 34.5t17 69t8.5 113t-1 167l301 6q2 -144 -15 -253.5t-49.5 -181t-81.5 -117t-106.5 -64t-128.5 -17.5z" />
    <glyph glyph-name="ccaron" unicode="&#x10d;" horiz-adv-x="780" 
d="M317 1092q-57 71 -213 227q43 37 121 121q55 -67 178 -178q55 57 164 180q35 -35 123 -103q-65 -73 -194 -233q-46 2 -179 -14zM406 -25q-194 0 -283.5 136.5t-89.5 400.5q0 252 96.5 392t286.5 140q118 0 199 -60.5t115.5 -161.5t25.5 -230l-275 6q6 246 -75 246
q-45 0 -66 -81t-21 -259q0 -165 21.5 -239.5t65.5 -74.5q84 0 73 238q64 -2 279 4q5 -457 -352 -457z" />
    <glyph glyph-name="Dcaron" unicode="&#x10e;" horiz-adv-x="835" 
d="M268 1511q-57 72 -213 228q43 37 121 121q55 -68 178 -179q55 58 164 181q35 -35 123 -103q-66 -73 -195 -233q-45 1 -178 -15zM338 201q35 -3 58 4.5t45 35.5t35 82t20.5 147t7.5 228q0 285 -41.5 400.5t-136.5 101.5q1 -220 4 -469.5t6 -389.5zM51 -8q2 324 2 680.5
t-1 551.5l-1 195q117 21 211 21q292 0 416.5 -181.5t124.5 -578.5q0 -194 -33.5 -330.5t-102 -219t-166 -120t-233.5 -37.5q-94 0 -217 19z" />
    <glyph glyph-name="dcaron" unicode="&#x10f;" horiz-adv-x="833" 
d="M1106 1280q0 -128 -176 -268l-88 71q54 49 82 103q-72 22 -72 104q0 48 36 79.5t93 31.5q56 0 90.5 -32.5t34.5 -88.5zM776 -37q-84 2 -225 2q2 72 4 178q-30 -76 -86 -114.5t-129 -38.5q-145 0 -226 130.5t-81 401.5q0 114 16.5 207t51 164t91 110t132.5 39
q120 0 186 -122q-4 224 -16 481q57 -4 284 2q-1 -72 -2 -196t-2 -516t2 -728zM416 172q86 0 86 334q0 342 -92 342q-82 0 -82 -336q0 -340 88 -340z" />
    <glyph glyph-name="Dcroat" unicode="&#x110;" horiz-adv-x="876" 
d="M90 -12l2 583q-41 0 -82 -2q4 85 4 271q27 -2 78 -4q2 176 0 583q114 21 211 21q291 0 416 -182.5t125 -579.5q0 -193 -33 -329t-100.5 -219t-163 -121t-228.5 -38q-110 0 -229 17zM377 184q43 -3 71.5 14.5t51.5 70t34 157t11 266.5q0 287 -42 407t-138 107
q0 -251 2 -372h98q-4 -66 2 -259q-41 2 -96 0z" />
    <glyph glyph-name="dcroat" unicode="&#x111;" horiz-adv-x="819" 
d="M897 1073l-123 6q-4 -477 2 -1116q-84 2 -225 2q2 72 4 178q-30 -76 -86 -114.5t-129 -38.5q-145 0 -226 130.5t-81 401.5q0 114 16.5 207t51 164t91 110t132.5 39q120 0 186 -122q-4 224 -16 481q57 -4 284 2q-2 -47 -2 -121l131 6q-4 -61 -6.5 -114.5t-2.5 -77.5z
M416 172q86 0 86 334q0 342 -92 342q-82 0 -82 -336q0 -340 88 -340z" />
    <glyph glyph-name="Emacron" unicode="&#x112;" horiz-adv-x="663" 
d="M68 6q-5 592 -17 1415q167 3 580 9q-2 -113 2 -273q-168 -2 -305 -6q-2 -125 2 -332q184 0 262 2q0 -108 2 -260q-113 2 -260 2q4 -205 8 -299q119 -8 297 -12q-4 -88 -4 -258q-261 8 -567 12zM115 1571q2 53 -2 180q126 -2 471 4q-2 -45 -2 -180q-136 2 -467 -4z" />
    <glyph glyph-name="emacron" unicode="&#x113;" horiz-adv-x="798" 
d="M408 -23q-86 0 -152 27t-108 74t-68 117t-36.5 148.5t-10.5 176.5q0 113 20.5 205t63.5 164t115.5 111.5t170.5 39.5q392 0 357 -602q-178 -2 -447 -6q4 -136 27.5 -197t69.5 -61q76 0 82 184q139 -2 276 -6q-17 -177 -112 -276t-248 -99zM401 858q-42 0 -62.5 -65.5
t-25.5 -200.5q52 0 166 4q3 262 -78 262zM168 1157q2 53 -2 180q126 -2 471 4q-2 -45 -2 -180q-136 2 -467 -4z" />
    <glyph glyph-name="Edotaccent" unicode="&#x116;" horiz-adv-x="663" 
d="M68 6q-5 592 -17 1415q167 3 580 9q-2 -113 2 -273q-168 -2 -305 -6q-2 -125 2 -332q184 0 262 2q0 -108 2 -260q-113 2 -260 2q4 -205 8 -299q119 -8 297 -12q-4 -88 -4 -258q-261 8 -567 12zM348 1540q-73 0 -112 46.5t-39 109.5t40 106t111 43q72 0 112 -44.5
t40 -104.5q0 -75 -43 -115.5t-109 -40.5z" />
    <glyph glyph-name="edotaccent" unicode="&#x117;" horiz-adv-x="798" 
d="M408 -23q-86 0 -152 27t-108 74t-68 117t-36.5 148.5t-10.5 176.5q0 113 20.5 205t63.5 164t115.5 111.5t170.5 39.5q392 0 357 -602q-178 -2 -447 -6q4 -136 27.5 -197t69.5 -61q76 0 82 184q139 -2 276 -6q-17 -177 -112 -276t-248 -99zM401 858q-42 0 -62.5 -65.5
t-25.5 -200.5q52 0 166 4q3 262 -78 262zM401 1124q-73 0 -112 46.5t-39 109.5t40 106.5t111 43.5q72 0 112 -44.5t40 -105.5q0 -75 -43 -115.5t-109 -40.5z" />
    <glyph glyph-name="Eogonek" unicode="&#x118;" horiz-adv-x="663" 
d="M637 -397q-130 -11 -208.5 41t-78.5 155q0 61 39 113.5t113 85.5l-434 8q-5 592 -17 1415q167 3 580 9q-2 -113 2 -273q-168 -2 -305 -6q-2 -125 2 -332q106 -2 262 2q0 -108 2 -260q-113 2 -260 2q4 -205 8 -299q119 -8 297 -12q-4 -88 -4 -258q-123 -55 -123 -131
q0 -93 137 -90q-8 -47 -12 -170z" />
    <glyph glyph-name="eogonek" unicode="&#x119;" horiz-adv-x="798" 
d="M535 -389q-133 -12 -209 39.5t-76 156.5q0 103 92 177q-88 11 -150 55.5t-96 118t-48.5 161t-14.5 201.5q0 113 20.5 205t63.5 164t115.5 111.5t170.5 39.5q392 0 357 -602q-178 -2 -447 -6q4 -136 27.5 -197t69.5 -61q76 0 82 184q139 -2 276 -6q-15 -155 -89.5 -250
t-197.5 -118q-69 -54 -69 -113q0 -93 135 -90q-6 -45 -12 -170zM401 858q-42 0 -62.5 -65.5t-25.5 -200.5q52 0 166 4q3 262 -78 262z" />
    <glyph glyph-name="Ecaron" unicode="&#x11a;" horiz-adv-x="663" 
d="M268 1493q-57 71 -213 227q43 37 121 121q55 -67 178 -178q55 57 164 180q35 -34 123 -102q-66 -74 -195 -234q-45 2 -178 -14zM68 6q-5 592 -17 1415q167 3 580 9q-2 -113 2 -273q-168 -2 -305 -6q-2 -125 2 -332q184 0 262 2q0 -108 2 -260q-113 2 -260 2
q4 -205 8 -299q119 -8 297 -12q-4 -88 -4 -258q-261 8 -567 12z" />
    <glyph glyph-name="ecaron" unicode="&#x11b;" horiz-adv-x="798" 
d="M322 1092q-57 71 -213 227q42 37 120 121q56 -67 179 -178q54 57 163 180q35 -35 123 -103q-65 -73 -194 -233q-45 2 -178 -14zM408 -23q-86 0 -152 27t-108 74t-68 117t-36.5 148.5t-10.5 176.5q0 113 20.5 205t63.5 164t115.5 111.5t170.5 39.5q392 0 357 -602
q-178 -2 -447 -6q4 -136 27.5 -197t69.5 -61q76 0 82 184q139 -2 276 -6q-17 -177 -112 -276t-248 -99zM401 858q-42 0 -62.5 -65.5t-25.5 -200.5q52 0 166 4q3 262 -78 262z" />
    <glyph glyph-name="Gcircumflex" unicode="&#x11c;" horiz-adv-x="839" 
d="M250 1491q-35 34 -123 104q66 74 195 232q45 0 178 14q57 -71 213 -225q-43 -39 -121 -123q-55 67 -178 180q-55 -57 -164 -182zM428 -33q-98 0 -168 36t-122.5 120.5t-78.5 232t-26 361.5q0 371 95.5 552t301.5 181q130 0 215.5 -74.5t119.5 -202t26 -301.5
q-218 3 -281 5q3 181 -17.5 261.5t-66.5 80.5q-55 0 -76.5 -116.5t-21.5 -389.5q1 -210 13 -325.5t35 -159.5t64 -44q50 0 69 74t15 252l-123 -6q2 88 -2 231q230 -2 406 2q8 -185 -5 -320.5t-43 -221.5t-80.5 -137.5t-109.5 -71t-139 -19.5z" />
    <glyph glyph-name="gcircumflex" unicode="&#x11d;" horiz-adv-x="749" 
d="M381 371q84 0 84 250q0 247 -84 247q-88 0 -88 -247q0 -250 88 -250zM526 -236q0 85 -178 103q-82 -47 -82 -117q0 -43 32.5 -67.5t86.5 -24.5q61 0 101 28.5t40 77.5zM784 -186q0 -107 -58.5 -183.5t-149 -111.5t-199.5 -35q-170 0 -266.5 60.5t-96.5 172.5
q0 70 48.5 128.5t130.5 86.5q-97 51 -97 150q0 89 107 158q-178 91 -178 393q0 118 37.5 212t120.5 153t200 59q116 0 196 -58.5t116 -152t36 -213.5q0 -215 -92.5 -324.5t-241.5 -109.5q-47 0 -67 4q-21 -21 -21 -41q0 -22 26 -35.5t87 -22.5q194 -29 278 -98t84 -192z
M221 1094q-35 34 -123 104q66 74 195 232q45 0 178 14q57 -71 213 -225q-43 -39 -121 -123q-55 67 -178 180q-55 -57 -164 -182z" />
    <glyph glyph-name="Gbreve" unicode="&#x11e;" horiz-adv-x="839" 
d="M428 -33q-98 0 -168 36t-122.5 120.5t-78.5 232t-26 361.5q0 371 95.5 552t301.5 181q130 0 215.5 -74.5t119.5 -202t26 -301.5q-218 3 -281 5q3 181 -17.5 261.5t-66.5 80.5q-55 0 -76.5 -116.5t-21.5 -389.5q1 -210 13 -325.5t35 -159.5t64 -44q50 0 69 74t15 252
l-123 -6q2 88 -2 231q230 -2 406 2q8 -185 -5 -320.5t-43 -221.5t-80.5 -137.5t-109.5 -71t-139 -19.5zM416 1505q-71 0 -123 22t-79 59.5t-38.5 81.5t-7.5 93q53 -2 174 6q-3 -47 17.5 -76.5t62.5 -29.5q38 0 60 30.5t14 94.5q51 -2 176 2q7 -72 -11.5 -127.5t-55.5 -89
t-85 -50t-104 -16.5z" />
    <glyph glyph-name="gbreve" unicode="&#x11f;" horiz-adv-x="749" 
d="M381 371q84 0 84 250q0 247 -84 247q-88 0 -88 -247q0 -250 88 -250zM526 -236q0 85 -178 103q-82 -47 -82 -117q0 -43 32.5 -67.5t86.5 -24.5q61 0 101 28.5t40 77.5zM784 -186q0 -107 -58.5 -183.5t-149 -111.5t-199.5 -35q-170 0 -266.5 60.5t-96.5 172.5
q0 70 48.5 128.5t130.5 86.5q-97 51 -97 150q0 89 107 158q-178 91 -178 393q0 118 37.5 212t120.5 153t200 59q116 0 196 -58.5t116 -152t36 -213.5q0 -215 -92.5 -324.5t-241.5 -109.5q-47 0 -67 4q-21 -21 -21 -41q0 -22 26 -35.5t87 -22.5q194 -29 278 -98t84 -192z
M385 1122q-71 0 -123 22t-79 59.5t-38.5 81.5t-7.5 93q53 -2 174 6q-3 -47 17.5 -76.5t62.5 -29.5q38 0 60 30.5t14 94.5q51 -2 176 2q7 -72 -11.5 -127.5t-55.5 -89t-85 -50t-104 -16.5z" />
    <glyph glyph-name="Gcommaaccent" unicode="&#x122;" horiz-adv-x="839" 
d="M553 -207q0 -128 -176 -268l-88 72q55 50 82 102q-72 22 -72 104q0 48 36 79.5t93 31.5q56 0 90.5 -32.5t34.5 -88.5zM428 -33q-98 0 -168 36t-122.5 120.5t-78.5 232t-26 361.5q0 371 95.5 552t301.5 181q130 0 215.5 -74.5t119.5 -202t26 -301.5q-218 3 -281 5
q3 181 -17.5 261.5t-66.5 80.5q-55 0 -76.5 -116.5t-21.5 -389.5q1 -210 13 -325.5t35 -159.5t64 -44q50 0 69 74t15 252l-123 -6q2 88 -2 231q230 -2 406 2q8 -185 -5 -320.5t-43 -221.5t-80.5 -137.5t-109.5 -71t-139 -19.5z" />
    <glyph glyph-name="gcommaaccent" unicode="&#x123;" horiz-adv-x="749" 
d="M381 371q84 0 84 250q0 247 -84 247q-88 0 -88 -247q0 -250 88 -250zM526 -236q0 85 -178 103q-82 -47 -82 -117q0 -43 32.5 -67.5t86.5 -24.5q61 0 101 28.5t40 77.5zM784 -186q0 -107 -58.5 -183.5t-149 -111.5t-199.5 -35q-170 0 -266.5 60.5t-96.5 172.5
q0 70 48.5 128.5t130.5 86.5q-97 51 -97 150q0 89 107 158q-178 91 -178 393q0 118 37.5 212t120.5 153t200 59q116 0 196 -58.5t116 -152t36 -213.5q0 -215 -92.5 -324.5t-241.5 -109.5q-47 0 -67 4q-21 -21 -21 -41q0 -22 26 -35.5t87 -22.5q194 -29 278 -98t84 -192z
M260 1239q0 128 176 268l88 -71q-54 -49 -82 -103q72 -22 72 -104q0 -48 -36 -79.5t-93 -31.5q-56 0 -90.5 32.5t-34.5 88.5z" />
    <glyph glyph-name="Hcircumflex" unicode="&#x124;" horiz-adv-x="821" 
d="M240 1511q-35 35 -123 105q65 73 194 231q45 1 178 15q57 -72 213 -226q-42 -39 -120 -123q-56 68 -179 181q-54 -58 -163 -183zM492 -39q4 210 0 516q-82 0 -160 -2l6 -440q-119 4 -279 -2q0 543 -8 1358q68 -2 273 2q2 -276 6 -678q5 0 57.5 -1t101.5 -1
q0 125 -2.5 396t-3.5 347q101 -2 283 2q-2 -661 6 -1499q-12 1 -34.5 2t-97 2t-148.5 -2z" />
    <glyph glyph-name="hcircumflex" unicode="&#x125;" horiz-adv-x="782" 
d="M12 1415q-35 35 -123 105q66 73 195 231q45 0 178 14q57 -71 213 -225q-43 -39 -121 -123q-55 67 -178 180q-55 -57 -164 -182zM53 33q8 602 0 1353q86 -1 264 3q-1 -24 -2 -67.5t-3 -175t-1 -259.5q79 154 224 151q192 0 202 -290q4 -147 5 -342t0 -317l-1 -122
q-94 2 -272 2q4 394 0 719q-2 58 -14.5 80.5t-44.5 22.5q-36 0 -59 -40t-23 -112l-2 -604q-89 2 -273 -2z" />
    <glyph glyph-name="Imacron" unicode="&#x12a;" horiz-adv-x="423" 
d="M76 -2q2 628 -8 1423q96 0 278 2q4 -687 10 -1425q-98 2 -280 0zM-20 1559q1 53 -3 180q127 -2 472 4q-3 -45 -3 -180q-135 2 -466 -4z" />
    <glyph glyph-name="imacron" unicode="&#x12b;" horiz-adv-x="387" 
d="M66 2q1 277 -7 1028q91 -2 271 2q-2 -378 8 -1028q-114 0 -272 -2zM-35 1176q2 53 -2 180q126 -2 471 4q-2 -45 -2 -180q-136 2 -467 -4z" />
    <glyph glyph-name="Iogonek" unicode="&#x12e;" horiz-adv-x="423" 
d="M311 -397q-134 -12 -210 39.5t-76 156.5q0 120 129 201q-47 -2 -78 -2q2 628 -8 1423q96 0 278 2q4 -687 10 -1425q-30 2 -67 2q-51 -33 -77 -69t-26 -68q0 -93 138 -90q-9 -45 -13 -170z" />
    <glyph glyph-name="iogonek" unicode="&#x12f;" horiz-adv-x="387" 
d="M66 2q1 277 -7 1028q91 -2 271 2q-2 -378 8 -1028h-68q-96 -65 -96 -133q0 -93 137 -90q-6 -45 -12 -170q-133 -12 -209 39.5t-76 156.5q0 118 121 195h-69zM197 1130q-84 0 -127 46.5t-43 130.5q0 78 45 120.5t127 42.5q77 0 120 -46t43 -119q0 -77 -42.5 -126
t-122.5 -49z" />
    <glyph glyph-name="Idotaccent" unicode="&#x130;" horiz-adv-x="423" 
d="M76 -2q2 628 -8 1423q96 0 278 2q4 -687 10 -1425q-98 2 -280 0zM213 1540q-73 0 -112.5 46.5t-39.5 109.5t40.5 106t111.5 43q72 0 112 -44.5t40 -104.5q0 -75 -43 -115.5t-109 -40.5z" />
    <glyph glyph-name="dotlessi" unicode="&#x131;" horiz-adv-x="387" 
d="M66 2q1 277 -7 1028q91 -2 271 2q-2 -378 8 -1028q-114 0 -272 -2z" />
    <glyph glyph-name="Jcircumflex" unicode="&#x134;" horiz-adv-x="741" 
d="M338 1491q-35 34 -123 104q66 74 195 232q45 0 178 14q57 -71 213 -225q-43 -39 -121 -123q-55 67 -178 180q-55 -57 -164 -182zM356 -23q-175 0 -257.5 109.5t-82.5 327.5q0 136 27 262q80 -9 248 -23q-17 -112 -17 -192q0 -122 19 -172.5t59 -50.5q22 0 37 17
t26.5 62.5t17 131t5.5 215.5q0 353 -65 768q100 10 272 24q70 -420 70 -803q0 -170 -17 -290t-57.5 -209.5t-111 -133t-173.5 -43.5z" />
    <glyph glyph-name="jcircumflex" unicode="&#x135;" horiz-adv-x="389" 
d="M29 1098q-35 34 -123 104q65 74 194 232q46 0 179 14q57 -71 213 -225q-43 -39 -121 -123q-55 67 -178 180q-55 -57 -164 -182zM-150 -449q7 96 9 256q36 -4 51 -4q82 0 116.5 42t36.5 130q3 208 3 442t-2 423l-3 190l265 2q2 -52 4 -144t5.5 -387.5t-1.5 -563.5
q-3 -188 -96.5 -287.5t-305.5 -100.5q-53 0 -82 2z" />
    <glyph glyph-name="Kcommaaccent" unicode="&#x136;" horiz-adv-x="849" 
d="M571 -209q0 -128 -176 -268l-88 71q54 49 82 103q-72 22 -72 104q0 48 36 79.5t93 31.5q56 0 90.5 -32.5t34.5 -88.5zM547 -51q-63 279 -127 518q-67 -173 -88 -242l4 -198q-100 1 -163.5 0.5t-92.5 -1.5l-29 -1q2 353 2 695t-1 508l-1 165l283 -2q-4 -303 -4 -752
q69 244 126 449.5t79 288.5l22 83q81 -4 153 -6.5t104 -3.5h32q-100 -305 -232 -719q60 -208 118.5 -399.5t87.5 -279.5l28 -87z" />
    <glyph glyph-name="kcommaaccent" unicode="&#x137;" horiz-adv-x="802" 
d="M549 -186q0 -129 -176 -269l-88 72q55 50 82 102q-34 11 -53 38t-19 67q0 48 36 79t93 31q56 0 90.5 -32t34.5 -88zM504 -41q-27 107 -107 406l-71 -136l4 -202l-277 2q2 459 1.5 762.5t-2.5 452.5l-1 149q86 -3 154.5 -3.5t94.5 0.5l26 1q-3 -525 0 -822
q49 133 91.5 251t60.5 170l18 52l299 -16q-113 -227 -205 -426q55 -175 106.5 -333t75.5 -229l25 -71z" />
    <glyph glyph-name="Lacute" unicode="&#x139;" horiz-adv-x="638" 
d="M229 1479q-39 31 -72 54.5t-46 31.5l-13 8q58 88 107.5 164.5t69.5 109.5l20 33q53 -41 95 -72t58 -42l15 -11q-76 -88 -134.5 -157t-78.5 -94zM63 8q-2 567 -12 1403q91 -4 279 0q-4 -289 8 -1151l301 -6l-2 -254z" />
    <glyph glyph-name="lacute" unicode="&#x13a;" horiz-adv-x="382" 
d="M219 1434q-39 31 -72 54.5t-46 31.5l-13 8q58 88 107.5 164.5t69.5 109.5l20 33q53 -41 95 -72t58 -42l15 -11q-76 -88 -134.5 -157t-78.5 -94zM328 27l-273 4q4 403 4.5 743t-1.5 478l-1 139l273 -7q-4 -461 -4.5 -800.5t0.5 -447.5z" />
    <glyph glyph-name="Lcommaaccent" unicode="&#x13b;" horiz-adv-x="638" 
d="M473 -176q0 -128 -176 -268l-88 71q54 49 82 103q-72 22 -72 104q0 48 36 79.5t93 31.5q56 0 90.5 -32.5t34.5 -88.5zM63 8q-2 567 -12 1403q91 -4 279 0q-4 -289 8 -1151l301 -6l-2 -254z" />
    <glyph glyph-name="lcommaaccent" unicode="&#x13c;" horiz-adv-x="382" 
d="M319 -176q0 -128 -176 -268l-88 71q54 49 82 103q-71 22 -71 104q0 48 36 79.5t93 31.5q56 0 90 -32.5t34 -88.5zM328 27l-273 4q4 403 4.5 743t-1.5 478l-1 139l273 -7q-4 -461 -4.5 -800.5t0.5 -447.5z" />
    <glyph glyph-name="Lcaron" unicode="&#x13d;" horiz-adv-x="638" 
d="M682 1376q0 -128 -176 -268l-88 72q55 50 82 102q-72 22 -72 104q0 48 36 79.5t93 31.5q56 0 90.5 -32.5t34.5 -88.5zM63 8q-2 567 -12 1403q91 -4 279 0q-4 -289 8 -1151l301 -6l-2 -254z" />
    <glyph glyph-name="lcaron" unicode="&#x13e;" horiz-adv-x="382" 
d="M655 1270q0 -129 -176 -269l-88 72q54 49 82 103q-72 22 -72 104q0 48 36 79.5t93 31.5q56 0 90.5 -32.5t34.5 -88.5zM328 27l-273 4q4 403 4.5 743t-1.5 478l-1 139l273 -7q-4 -461 -4.5 -800.5t0.5 -447.5z" />
    <glyph glyph-name="Lslash" unicode="&#x141;" horiz-adv-x="657" 
d="M6 541q4 86 4 272q25 6 64 18l-6 580q90 -4 280 0q-4 -139 0 -496l131 43q-4 -67 2 -260q-49 -14 -131 -41q0 -68 2.5 -210t3.5 -187l301 -6l-2 -254l-575 8q0 210 -2 557z" />
    <glyph glyph-name="lslash" unicode="&#x142;" horiz-adv-x="430" 
d="M12 575q0 47 -0.5 103t-1 94t-0.5 41l72 23l-2 555l272 -7l-4 -456l74 28q-2 -35 -3.5 -73t-2 -67t-0.5 -53v-37v-13l-68 -21q-1 -234 -0.5 -382t1.5 -216l1 -67l-272 4l4 571q-28 -9 -70 -27z" />
    <glyph glyph-name="Nacute" unicode="&#x143;" horiz-adv-x="872" 
d="M455 1497q-39 31 -72 54.5t-46 31.5l-13 8q58 88 107 164.5t69 109.5l20 33q53 -41 95 -72t57 -42l16 -10q-76 -88 -134.5 -157t-78.5 -95zM57 33q6 514 -6 1343q109 9 273 13q106 -389 260 -875q-14 481 -45 944q11 -1 31 -2t86.5 -2t136.5 0q8 -553 28 -1464
q-84 -13 -260 -25q-102 335 -268 871q4 -344 29 -807q-111 4 -265 4z" />
    <glyph glyph-name="nacute" unicode="&#x144;" horiz-adv-x="780" 
d="M426 1079q-39 31 -72 55t-46 32l-13 8q58 88 107.5 164.5t69.5 109.5l20 33l167 -125q-76 -88 -134.5 -157t-78.5 -95zM465 -37q2 404 2 727q0 52 -12.5 76.5t-42.5 24.5q-40 0 -62 -40t-22 -104q-2 -68 -2.5 -222.5t0.5 -274.5v-121q-128 2 -275 0q1 44 2 123t3 338.5
t-1 510.5q92 -3 215 3l-2 -154q33 82 101 134t151 52q206 0 215 -280q2 -48 3 -246t1 -372v-173z" />
    <glyph glyph-name="Ncommaaccent" unicode="&#x145;" horiz-adv-x="872" 
d="M561 -176q0 -128 -176 -268l-88 71q54 49 82 103q-72 22 -72 104q0 48 36 79.5t93 31.5q56 0 90.5 -32.5t34.5 -88.5zM57 33q6 514 -6 1343q109 9 273 13q106 -389 260 -875q-14 481 -45 944q11 -1 31 -2t86.5 -2t136.5 0q8 -553 28 -1464q-84 -13 -260 -25
q-102 335 -268 871q4 -344 29 -807q-111 4 -265 4z" />
    <glyph glyph-name="ncommaaccent" unicode="&#x146;" horiz-adv-x="780" 
d="M535 -188q0 -129 -177 -269l-88 72q55 50 82 102q-71 22 -71 105q0 48 36 79t93 31q56 0 90.5 -32t34.5 -88zM465 -37q2 404 2 727q0 52 -12.5 76.5t-42.5 24.5q-40 0 -62 -40t-22 -104q-2 -68 -2.5 -222.5t0.5 -274.5v-121q-128 2 -275 0q1 44 2 123t3 338.5t-1 510.5
q92 -3 215 3l-2 -154q33 82 101 134t151 52q206 0 215 -280q2 -48 3 -246t1 -372v-173z" />
    <glyph glyph-name="Ncaron" unicode="&#x147;" horiz-adv-x="872" 
d="M354 1499q-57 71 -213 227q43 37 121 121q55 -67 178 -178q55 57 164 180q35 -34 123 -102q-66 -74 -195 -234q-45 2 -178 -14zM57 33q6 514 -6 1343q109 9 273 13q106 -389 260 -875q-14 481 -45 944q11 -1 31 -2t86.5 -2t136.5 0q8 -553 28 -1464q-84 -13 -260 -25
q-102 335 -268 871q4 -344 29 -807q-111 4 -265 4z" />
    <glyph glyph-name="ncaron" unicode="&#x148;" horiz-adv-x="780" 
d="M328 1083q-57 72 -213 228q43 37 121 121q55 -68 178 -179q55 58 164 181q34 -35 122 -103q-65 -73 -194 -233q-45 1 -178 -15zM465 -37q2 404 2 727q0 52 -12.5 76.5t-42.5 24.5q-40 0 -62 -40t-22 -104q-2 -68 -2.5 -222.5t0.5 -274.5v-121q-128 2 -275 0q1 44 2 123
t3 338.5t-1 510.5q92 -3 215 3l-2 -154q33 82 101 134t151 52q206 0 215 -280q2 -48 3 -246t1 -372v-173z" />
    <glyph glyph-name="Omacron" unicode="&#x14c;" horiz-adv-x="858" 
d="M195 1556q2 54 -2 181q126 -2 471 4q-2 -45 -2 -180q-136 1 -467 -5zM428 -33q-215 0 -304 180.5t-91 563.5q0 108 7.5 198t24.5 176t47 150.5t72.5 114t104 75t139.5 25.5q95 0 165 -35.5t114 -97.5t71 -157.5t37 -202t10 -244.5q-2 -281 -47 -446t-129 -232.5
t-221 -67.5zM432 184q33 0 51 41t28.5 160t10.5 338q0 286 -21.5 395t-72.5 109q-53 0 -72.5 -110t-19.5 -392q0 -219 9.5 -335t29.5 -161t57 -45z" />
    <glyph glyph-name="omacron" unicode="&#x14d;" horiz-adv-x="813" 
d="M174 1151q2 53 -2 180q126 -2 471 4q-2 -45 -2 -180q-136 2 -467 -4zM403 -20q-103 0 -176 38t-115 112t-60.5 170t-18.5 224q0 156 39.5 270t125 181t210.5 67q97 0 169.5 -38.5t116.5 -110t65 -165.5t21 -212q0 -277 -95 -406.5t-282 -129.5zM408 162q46 0 66 80
t20 272q0 179 -20 259.5t-66 80.5q-48 0 -68.5 -78.5t-20.5 -251.5q0 -142 8.5 -219.5t27.5 -110t53 -32.5z" />
    <glyph glyph-name="Ohungarumlaut" unicode="&#x150;" horiz-adv-x="858" 
d="M559 1493q-42 27 -75 47t-46 26l-12 7q53 88 99 166.5t65 113.5l20 35q56 -36 96 -61t52 -32l12 -7q-69 -94 -122 -167.5t-71 -100.5zM307 1499q-42 27 -75 46t-46 25l-12 5q51 92 93 171.5t59 112.5l16 33q56 -36 96.5 -60.5t53.5 -31.5l12 -6zM428 -33
q-215 0 -304 180.5t-91 563.5q0 108 7.5 198t24.5 176t47 150.5t72.5 114t104 75t139.5 25.5q95 0 165 -35.5t114 -97.5t71 -157.5t37 -202t10 -244.5q-2 -281 -47 -446t-129 -232.5t-221 -67.5zM432 184q33 0 51 41t28.5 160t10.5 338q0 286 -21.5 395t-72.5 109
q-53 0 -72.5 -110t-19.5 -392q0 -219 9.5 -335t29.5 -161t57 -45z" />
    <glyph glyph-name="ohungarumlaut" unicode="&#x151;" horiz-adv-x="813" 
d="M537 1087q-42 27 -75.5 47t-45.5 26l-13 7q53 88 99 167t66 114l20 35l160 -101q-69 -94 -122 -167.5t-71 -100.5zM285 1094q-42 27 -75 46t-46 24l-12 5q51 92 93 171.5t58 113.5l16 33q56 -36 96.5 -60.5t52.5 -30.5l13 -7q-64 -95 -113 -168.5t-66 -100.5zM403 -20
q-103 0 -176 38t-115 112t-60.5 170t-18.5 224q0 156 39.5 270t125 181t210.5 67q97 0 169.5 -38.5t116.5 -110t65 -165.5t21 -212q0 -277 -95 -406.5t-282 -129.5zM408 162q46 0 66 80t20 272q0 179 -20 259.5t-66 80.5q-48 0 -68.5 -78.5t-20.5 -251.5q0 -142 8.5 -219.5
t27.5 -110t53 -32.5z" />
    <glyph glyph-name="OE" unicode="&#x152;" horiz-adv-x="1136" 
d="M1067 567q-125 2 -270 2q0 -91 4 -303q123 -8 311 -14q-4 -88 -4 -258q-152 14 -516 22q2 29 4 82q-28 -64 -84 -97.5t-123 -33.5q-179 0 -267.5 182.5t-88.5 561.5q0 741 364 741q65 0 118 -33.5t81 -89.5q0 6 -1 32t-1 52q95 1 518 17q0 -113 4 -273q-170 -2 -315 -6
q-2 -127 -4 -326q104 -2 270 2q-2 -110 0 -260zM430 184q33 0 51.5 41.5t28.5 159.5t10 336q0 287 -21 395.5t-73 108.5q-50 0 -71 -112t-21 -394q0 -214 9.5 -328.5t29.5 -160.5t57 -46z" />
    <glyph glyph-name="oe" unicode="&#x153;" horiz-adv-x="1271" 
d="M899 -33q-185 0 -266 144q-36 -63 -98 -98.5t-142 -35.5q-360 0 -360 547q0 251 93 384.5t265 133.5q161 0 246 -145q78 133 248 133q383 0 348 -594q-135 -2 -447 -10q4 -137 27 -199.5t68 -62.5q79 0 82 184q139 -2 278 -6q-17 -184 -103.5 -279.5t-238.5 -95.5z
M408 162q29 0 46.5 26.5t28.5 106t11 219.5q0 178 -21 259t-65 81q-47 0 -68 -76.5t-21 -255.5q0 -145 10 -224.5t28.5 -107.5t50.5 -28zM874 846q-41 0 -62.5 -64.5t-25.5 -210.5l166 7q2 140 -16.5 204t-61.5 64z" />
    <glyph glyph-name="Racute" unicode="&#x154;" horiz-adv-x="817" 
d="M401 1518q-39 31 -72 54.5t-46 31.5l-13 8q58 88 107.5 164.5t69.5 109.5l20 33q53 -41 95 -72t58 -42l15 -11q-76 -88 -134.5 -157t-78.5 -94zM543 -39q-56 212 -154 557q-15 -3 -57 -8q0 -23 8 -481q-123 0 -287 -2q1 60 2 170t2 480t-2 746q164 29 273 29
q236 0 353.5 -122.5t117.5 -354.5q0 -256 -174 -371q39 -133 206 -620q-106 -11 -288 -23zM332 702q176 11 176 252q0 258 -156 258l-26 -2z" />
    <glyph glyph-name="racute" unicode="&#x155;" horiz-adv-x="555" 
d="M340 1077q-39 31 -72 54.5t-46 31.5l-13 8q58 88 107.5 165t69.5 110l20 33l167 -125q-76 -88 -134.5 -157t-78.5 -95zM55 -4q2 525 -4 1020q47 -4 225 2q-6 -74 -6 -180q35 91 114 149.5t165 61.5q-6 -78 -10 -279q-106 -20 -157.5 -92.5t-55.5 -210.5
q-2 -103 -1 -207.5t3 -183.5l2 -78q-74 0 -275 -2z" />
    <glyph glyph-name="Rcommaaccent" unicode="&#x156;" horiz-adv-x="817" 
d="M524 -178q0 -128 -176 -268l-88 71q54 49 82 103q-72 22 -72 104q0 48 36 79.5t93 31.5q56 0 90.5 -32.5t34.5 -88.5zM543 -39q-56 212 -154 557q-15 -3 -57 -8q0 -23 8 -481q-123 0 -287 -2q1 60 2 170t2 480t-2 746q164 29 273 29q236 0 353.5 -122.5t117.5 -354.5
q0 -256 -174 -371q39 -133 206 -620q-106 -11 -288 -23zM332 702q176 11 176 252q0 258 -156 258l-26 -2z" />
    <glyph glyph-name="rcommaaccent" unicode="&#x157;" horiz-adv-x="555" 
d="M315 -176q0 -128 -176 -268l-88 71q54 49 82 103q-72 22 -72 104q0 48 36 79.5t93 31.5q56 0 90.5 -32.5t34.5 -88.5zM55 -4q2 525 -4 1020q47 -4 225 2q-6 -74 -6 -180q35 91 114 149.5t165 61.5q-6 -78 -10 -279q-106 -20 -157.5 -92.5t-55.5 -210.5q-2 -103 -1 -207.5
t3 -183.5l2 -78q-74 0 -275 -2z" />
    <glyph glyph-name="Rcaron" unicode="&#x158;" horiz-adv-x="817" 
d="M303 1509q-57 72 -213 228q43 37 121 121q55 -68 178 -179q55 58 164 181q35 -35 123 -103q-66 -73 -195 -233q-45 1 -178 -15zM543 -39q-56 212 -154 557q-15 -3 -57 -8q0 -23 8 -481q-123 0 -287 -2q1 60 2 170t2 480t-2 746q164 29 273 29q236 0 353.5 -122.5
t117.5 -354.5q0 -256 -174 -371q39 -133 206 -620q-106 -11 -288 -23zM332 702q176 11 176 252q0 258 -156 258l-26 -2z" />
    <glyph glyph-name="rcaron" unicode="&#x159;" horiz-adv-x="555" 
d="M240 1090q-57 71 -213 227q42 37 120 121q56 -67 179 -178q54 57 163 180q35 -35 123 -103q-65 -73 -194 -233q-45 2 -178 -14zM55 -4q2 525 -4 1020q47 -4 225 2q-6 -74 -6 -180q35 91 114 149.5t165 61.5q-6 -78 -10 -279q-106 -20 -157.5 -92.5t-55.5 -210.5
q-2 -103 -1 -207.5t3 -183.5l2 -78q-74 0 -275 -2z" />
    <glyph glyph-name="Sacute" unicode="&#x15a;" horiz-adv-x="788" 
d="M412 1522q-39 31 -72 54.5t-46 31.5l-13 8q58 88 107 164.5t69 109.5l20 33q53 -41 95 -72t58 -42l15 -11q-76 -88 -134.5 -157t-78.5 -94zM397 -31q-215 0 -303 134.5t-63 406.5q112 -4 286 -6q-26 -311 82 -311q40 0 59 35.5t19 121.5q0 75 -41.5 135.5t-163.5 147.5
q-135 96 -191 200.5t-56 245.5q0 190 100 281.5t274 91.5q202 0 289.5 -134.5t59.5 -395.5q-138 12 -279 16q18 150 -3.5 220.5t-70.5 70.5q-80 0 -80 -164q0 -77 43 -137.5t158 -136.5q141 -95 197.5 -192t56.5 -243q0 -387 -373 -387z" />
    <glyph glyph-name="sacute" unicode="&#x15b;" horiz-adv-x="714" 
d="M377 1098q-39 31 -72 54.5t-46 31.5l-13 8q58 88 107 164.5t69 109.5l20 33q53 -41 95 -72t57 -42l16 -11q-76 -88 -134.5 -157t-78.5 -94zM369 -27q-175 0 -264.5 98.5t-79.5 297.5q88 -3 260 -13q-6 -94 13 -138t71 -44q32 0 52.5 23t20.5 71q0 43 -33.5 79t-140.5 79
q-127 51 -185 129.5t-58 200.5q0 127 88.5 211t246.5 84q168 0 250.5 -109.5t71.5 -298.5q-109 6 -248 6q17 195 -76 195q-38 0 -58.5 -26.5t-20.5 -65.5q0 -55 36.5 -92.5t133.5 -79.5q142 -63 195.5 -135t53.5 -177q0 -77 -26 -135.5t-72 -92.5t-104 -50.5t-127 -16.5z
" />
    <glyph glyph-name="Scircumflex" unicode="&#x15c;" horiz-adv-x="788" 
d="M225 1499q-35 35 -123 105q66 73 195 231q45 0 178 14q57 -71 213 -225q-43 -39 -121 -123q-55 67 -178 180q-55 -57 -164 -182zM397 -31q-215 0 -303 134.5t-63 406.5q112 -4 286 -6q-26 -311 82 -311q40 0 59 35.5t19 121.5q0 75 -41.5 135.5t-163.5 147.5
q-135 96 -191 200.5t-56 245.5q0 190 100 281.5t274 91.5q202 0 289.5 -134.5t59.5 -395.5q-138 12 -279 16q18 150 -3.5 220.5t-70.5 70.5q-80 0 -80 -164q0 -77 43 -137.5t158 -136.5q141 -95 197.5 -192t56.5 -243q0 -387 -373 -387z" />
    <glyph glyph-name="scircumflex" unicode="&#x15d;" horiz-adv-x="714" 
d="M188 1077q-34 35 -122 105q65 73 194 231q45 0 178 14q57 -71 213 -225q-43 -39 -121 -123q-55 68 -178 181q-55 -58 -164 -183zM369 -27q-175 0 -264.5 98.5t-79.5 297.5q88 -3 260 -13q-6 -94 13 -138t71 -44q32 0 52.5 23t20.5 71q0 43 -33.5 79t-140.5 79
q-127 51 -185 129.5t-58 200.5q0 127 88.5 211t246.5 84q168 0 250.5 -109.5t71.5 -298.5q-109 6 -248 6q17 195 -76 195q-38 0 -58.5 -26.5t-20.5 -65.5q0 -55 36.5 -92.5t133.5 -79.5q142 -63 195.5 -135t53.5 -177q0 -77 -26 -135.5t-72 -92.5t-104 -50.5t-127 -16.5z
" />
    <glyph glyph-name="Scedilla" unicode="&#x15e;" horiz-adv-x="788" 
d="M477 350q0 75 -41.5 135.5t-163.5 147.5q-135 96 -191 200.5t-56 245.5q0 190 100 281.5t274 91.5q202 0 289.5 -134.5t59.5 -395.5q-138 12 -279 16q18 150 -3.5 220.5t-70.5 70.5q-80 0 -80 -164q0 -77 43 -137.5t158 -136.5q141 -95 197.5 -192t56.5 -243
q0 -356 -317 -383q-2 -24 -4 -63q91 -3 141.5 -41.5t50.5 -101.5q0 -81 -67.5 -129t-174.5 -48q-95 0 -170 35q11 51 23 123q70 -37 156 -37q33 0 55 11.5t22 33.5q0 59 -172 45q19 68 33 170q-187 15 -263 148.5t-52 390.5q112 -4 286 -6q-26 -311 82 -311q40 0 59 35.5
t19 121.5z" />
    <glyph glyph-name="scedilla" unicode="&#x15f;" horiz-adv-x="714" 
d="M442 268q0 43 -33.5 79t-140.5 79q-127 51 -185 129.5t-58 200.5q0 127 88.5 211t246.5 84q168 0 250.5 -109.5t71.5 -298.5q-109 6 -248 6q17 195 -76 195q-38 0 -58.5 -26.5t-20.5 -65.5q0 -55 36.5 -92.5t133.5 -79.5q142 -63 195.5 -135t53.5 -177q0 -137 -77 -209.5
t-203 -83.5l-4 -61q91 -3 141.5 -41.5t50.5 -101.5q0 -81 -67 -129t-174 -48q-95 0 -170 35q10 51 22 123q70 -37 156 -37q33 0 55.5 11.5t22.5 33.5q0 59 -172 45q18 68 32 172q-306 29 -286 392q88 -3 260 -13q-6 -94 13 -138t71 -44q32 0 52.5 23t20.5 71z" />
    <glyph glyph-name="Scaron" unicode="&#x160;" horiz-adv-x="788" 
d="M315 1511q-57 72 -213 228q43 37 121 121q55 -68 178 -179q55 58 164 181q35 -35 123 -103q-65 -73 -194 -233q-46 1 -179 -15zM397 -31q-215 0 -303 134.5t-63 406.5q112 -4 286 -6q-26 -311 82 -311q40 0 59 35.5t19 121.5q0 75 -41.5 135.5t-163.5 147.5
q-135 96 -191 200.5t-56 245.5q0 190 100 281.5t274 91.5q202 0 289.5 -134.5t59.5 -395.5q-138 12 -279 16q18 150 -3.5 220.5t-70.5 70.5q-80 0 -80 -164q0 -77 43 -137.5t158 -136.5q141 -95 197.5 -192t56.5 -243q0 -387 -373 -387z" />
    <glyph glyph-name="scaron" unicode="&#x161;" horiz-adv-x="714" 
d="M279 1092q-57 71 -213 227q42 37 120 121q56 -67 179 -178q54 57 163 180q35 -35 123 -103q-65 -73 -194 -233q-45 2 -178 -14zM369 -27q-175 0 -264.5 98.5t-79.5 297.5q88 -3 260 -13q-6 -94 13 -138t71 -44q32 0 52.5 23t20.5 71q0 43 -33.5 79t-140.5 79
q-127 51 -185 129.5t-58 200.5q0 127 88.5 211t246.5 84q168 0 250.5 -109.5t71.5 -298.5q-109 6 -248 6q17 195 -76 195q-38 0 -58.5 -26.5t-20.5 -65.5q0 -55 36.5 -92.5t133.5 -79.5q142 -63 195.5 -135t53.5 -177q0 -77 -26 -135.5t-72 -92.5t-104 -50.5t-127 -16.5z
" />
    <glyph glyph-name="Tcommaaccent" unicode="&#x162;" horiz-adv-x="720" 
d="M489 -176q0 -128 -176 -268l-88 71q54 49 82 103q-71 22 -71 104q0 48 36 79.5t93 31.5q56 0 90 -32.5t34 -88.5zM12 1157q2 73 -2 266q217 -1 701 7q-1 -11 -2 -32.5t-2 -93t0 -147.5q-84 2 -209 2q0 -549 8 -1167q-95 2 -279 -2q2 459 -4 1169z" />
    <glyph glyph-name="tcommaaccent" unicode="&#x163;" horiz-adv-x="581" 
d="M467 -176q0 -128 -176 -268l-88 71q54 49 82 103q-72 22 -72 104q0 48 36 79.5t93 31.5q56 0 90.5 -32.5t34.5 -88.5zM12 760q1 90 0.5 143.5t-1.5 75.5l-1 22q35 -2 101 -2l4 263l264 -2q-4 -109 -6 -265h170l-2 -237q-59 2 -168 2q0 -254 4 -383q3 -109 102 -109
q33 0 66 8l16 -251q-98 -25 -172 -25q-275 0 -278 297q-4 329 -2 463h-97z" />
    <glyph glyph-name="Tcaron" unicode="&#x164;" horiz-adv-x="720" 
d="M283 1491q-57 71 -213 227q42 37 120 121q56 -67 179 -178q54 57 163 180q35 -34 123 -102q-65 -74 -194 -234q-45 2 -178 -14zM12 1157q2 73 -2 266q217 -1 701 7q-1 -11 -2 -32.5t-2 -93t0 -147.5q-84 2 -209 2q0 -549 8 -1167q-95 2 -279 -2q2 459 -4 1169z" />
    <glyph glyph-name="tcaron" unicode="&#x165;" horiz-adv-x="581" 
d="M705 1323q0 -128 -177 -268l-88 71q54 49 82 103q-71 22 -71 104q0 48 36 79.5t93 31.5q56 0 90.5 -32.5t34.5 -88.5zM12 760q1 90 0.5 143.5t-1.5 75.5l-1 22q35 -2 101 -2l4 263l264 -2q-4 -109 -6 -265h170l-2 -237q-59 2 -168 2q0 -254 4 -383q3 -109 102 -109
q33 0 66 8l16 -251q-98 -25 -172 -25q-275 0 -278 297q-4 329 -2 463h-97z" />
    <glyph glyph-name="Umacron" unicode="&#x16a;" horiz-adv-x="821" 
d="M414 -29q-210 0 -297.5 189.5t-87.5 597.5q0 344 43 645q80 -14 268 -37q-37 -339 -37 -545q0 -577 109 -577q24 0 40 17t29 65.5t19 145t6 247.5q0 327 -53 719q106 2 280 22q64 -412 64 -729q0 -404 -88.5 -582t-294.5 -178zM176 1571q2 53 -2 180q126 -2 471 4
q-2 -45 -2 -180q-136 2 -467 -4z" />
    <glyph glyph-name="umacron" unicode="&#x16b;" 
d="M301 -16q-89 0 -144 51t-84.5 175.5t-29.5 334.5q0 237 27 477q72 -10 256 -18q-17 -174 -17 -365q0 -173 10.5 -267.5t27.5 -123.5t46 -29q32 0 53 46.5t21 119.5q1 149 -2.5 314.5t-7.5 256.5l-4 91q9 -1 27.5 -2t89.5 -2.5t159 -0.5q-2 -457 4 -1077q-8 0 -23.5 0.5
t-72 1.5t-125.5 0q2 81 4 185q-30 -80 -88.5 -124t-126.5 -44zM156 1165q2 54 -2 181q126 -2 471 4q-2 -46 -2 -181q-136 2 -467 -4z" />
    <glyph glyph-name="Ubreve" unicode="&#x16c;" horiz-adv-x="821" 
d="M414 -29q-210 0 -297.5 189.5t-87.5 597.5q0 344 43 645q80 -14 268 -37q-37 -339 -37 -545q0 -577 109 -577q24 0 40 17t29 65.5t19 145t6 247.5q0 327 -53 719q106 2 280 22q64 -412 64 -729q0 -404 -88.5 -582t-294.5 -178zM406 1511q-71 0 -123 22t-79 59.5
t-38.5 81.5t-7.5 93q53 -1 174 7q-3 -47 18 -77t62 -30q38 0 59.5 30.5t13.5 94.5q52 -2 177 2q7 -72 -11.5 -127.5t-55.5 -89t-85 -50t-104 -16.5z" />
    <glyph glyph-name="ubreve" unicode="&#x16d;" 
d="M301 -16q-89 0 -144 51t-84.5 175.5t-29.5 334.5q0 237 27 477q72 -10 256 -18q-17 -174 -17 -365q0 -173 10.5 -267.5t27.5 -123.5t46 -29q32 0 53 46.5t21 119.5q1 149 -2.5 314.5t-7.5 256.5l-4 91q9 -1 27.5 -2t89.5 -2.5t159 -0.5q-2 -457 4 -1077q-8 0 -23.5 0.5
t-72 1.5t-125.5 0q2 81 4 185q-30 -80 -88.5 -124t-126.5 -44zM385 1114q-71 0 -123 22t-79 59.5t-38.5 81.5t-7.5 93q53 -2 174 6q-3 -47 17.5 -76.5t62.5 -29.5q38 0 60 30.5t14 94.5q51 -2 176 2q7 -72 -11.5 -127.5t-55.5 -89t-85 -50t-104 -16.5z" />
    <glyph glyph-name="Uring" unicode="&#x16e;" horiz-adv-x="821" 
d="M408 1507q-92 0 -141.5 56t-49.5 143q0 86 54 137t139 51q91 0 142.5 -54.5t51.5 -133.5q0 -103 -56 -151t-140 -48zM412 1612q69 0 69 94q0 38 -18.5 65t-50.5 27q-34 0 -51 -26.5t-17 -67.5t18.5 -66.5t49.5 -25.5zM414 -29q-210 0 -297.5 189.5t-87.5 597.5
q0 344 43 645q80 -14 268 -37q-37 -339 -37 -545q0 -577 109 -577q24 0 40 17t29 65.5t19 145t6 247.5q0 327 -53 719q106 2 280 22q64 -412 64 -729q0 -404 -88.5 -582t-294.5 -178z" />
    <glyph glyph-name="uring" unicode="&#x16f;" 
d="M387 1108q-92 0 -141 56t-49 143q0 86 53.5 137t138.5 51q91 0 143 -54.5t52 -133.5q0 -103 -56.5 -151t-140.5 -48zM391 1212q34 0 52 25.5t18 69.5q0 37 -19 64.5t-51 27.5q-33 0 -50 -26.5t-17 -67.5q0 -42 18 -67.5t49 -25.5zM301 -16q-89 0 -144 51t-84.5 175.5
t-29.5 334.5q0 237 27 477q72 -10 256 -18q-17 -174 -17 -365q0 -173 10.5 -267.5t27.5 -123.5t46 -29q32 0 53 46.5t21 119.5q1 149 -2.5 314.5t-7.5 256.5l-4 91q9 -1 27.5 -2t89.5 -2.5t159 -0.5q-2 -457 4 -1077q-8 0 -23.5 0.5t-72 1.5t-125.5 0q2 81 4 185
q-30 -80 -88.5 -124t-126.5 -44z" />
    <glyph glyph-name="Uhungarumlaut" unicode="&#x170;" horiz-adv-x="821" 
d="M414 -29q-210 0 -297.5 189.5t-87.5 597.5q0 344 43 645q80 -14 268 -37q-37 -339 -37 -545q0 -577 109 -577q24 0 40 17t29 65.5t19 145t6 247.5q0 327 -53 719q106 2 280 22q64 -412 64 -729q0 -404 -88.5 -582t-294.5 -178zM541 1501q-42 27 -75 47t-46 26l-12 7
q53 88 99 166.5t65 113.5l20 35q56 -36 96 -61t52 -32l12 -7q-69 -94 -122 -167.5t-71 -100.5zM289 1507q-42 27 -75 46t-46 25l-12 5q51 92 93 171.5t59 113.5l16 33q56 -36 96.5 -61t52.5 -32l12 -6q-64 -95 -113 -168.5t-66 -99.5z" />
    <glyph glyph-name="uhungarumlaut" unicode="&#x171;" 
d="M301 -16q-89 0 -144 51t-84.5 175.5t-29.5 334.5q0 237 27 477q72 -10 256 -18q-17 -174 -17 -365q0 -173 10.5 -267.5t27.5 -123.5t46 -29q32 0 53 46.5t21 119.5q1 149 -2.5 314.5t-7.5 256.5l-4 91q9 -1 27.5 -2t89.5 -2.5t159 -0.5q-2 -457 4 -1077q-8 0 -23.5 0.5
t-72 1.5t-125.5 0q2 81 4 185q-30 -80 -88.5 -124t-126.5 -44zM518 1096q-42 27 -75 47t-45 27l-13 6q53 88 99 166.5t66 113.5l19 35q56 -36 96 -61t52 -32l12 -7q-69 -94 -122 -167.5t-71 -100.5zM266 1102q-42 27 -75 46t-45 24l-13 6q51 92 93 171.5t58 112.5l17 33
q56 -36 96.5 -60.5t52.5 -30.5l13 -7z" />
    <glyph glyph-name="Uogonek" unicode="&#x172;" horiz-adv-x="821" 
d="M547 -389q-133 -12 -209 39.5t-76 156.5q0 95 84 170q-172 27 -244.5 216t-72.5 565q0 344 43 645q80 -14 268 -37q-37 -339 -37 -545q0 -577 109 -577q24 0 40 17t29 65.5t19 145t6 247.5q0 327 -53 719q106 2 280 22q64 -412 64 -729q0 -367 -73 -546t-239 -208
q-61 -52 -61 -106q0 -93 135 -90q-6 -45 -12 -170z" />
    <glyph glyph-name="uogonek" unicode="&#x173;" 
d="M301 -16q-89 0 -144 51t-84.5 175.5t-29.5 334.5q0 237 27 477q72 -10 256 -18q-17 -174 -17 -365q0 -173 10.5 -267.5t27.5 -123.5t46 -29q32 0 53 46.5t21 119.5q1 149 -2.5 314.5t-7.5 256.5l-4 91q9 -1 27.5 -2t89.5 -2.5t159 -0.5q-2 -457 4 -1077q-37 2 -92 4
q-59 -53 -59 -104q0 -93 137 -90q-6 -47 -12 -170q-133 -12 -209 39.5t-76 156.5q0 99 90 174l4 177q-30 -80 -88.5 -124t-126.5 -44z" />
    <glyph glyph-name="Ydieresis" unicode="&#x178;" horiz-adv-x="833" 
d="M281 -27q6 69 -2 326q-64 294 -275 1085q53 1 301 11q43 -299 117 -701q57 323 123 742q79 -6 286 -6q-110 -430 -274 -1127q-4 -44 6 -328q-59 4 -282 -2zM264 1520q-58 0 -90.5 39.5t-32.5 95.5q0 60 34.5 97.5t88.5 37.5q60 0 90.5 -38.5t30.5 -96.5q0 -68 -34 -101.5
t-87 -33.5zM571 1528q-54 0 -86 37t-32 100q0 55 32 91t88 36t85.5 -38t29.5 -95q0 -63 -31.5 -97t-85.5 -34z" />
    <glyph glyph-name="Zacute" unicode="&#x179;" horiz-adv-x="690" 
d="M365 1487q-39 31 -72 54.5t-47 31.5l-13 8q58 88 107.5 164.5t69.5 109.5l20 33q53 -41 95 -72t57 -42l16 -11q-76 -88 -134.5 -157t-78.5 -94zM662 -8q-181 6 -340.5 9.5t-227.5 4.5h-69l2 275q213 502 348 868l-344 -10q1 105 0.5 167t-1.5 86l-1 25l630 15l5 -295
q-204 -506 -340 -873q83 -4 168.5 -6t129.5 -2h44z" />
    <glyph glyph-name="zacute" unicode="&#x17a;" horiz-adv-x="653" 
d="M348 1077q-39 31 -72 54.5t-46 31.5l-13 8q58 88 107.5 165t69.5 110l20 33q53 -41 95 -72t57 -42l16 -11q-76 -88 -134.5 -157t-79.5 -95zM623 2q-188 8 -337 12t-204 4h-55l4 199q96 177 166.5 314.5t92.5 186.5l23 48q-88 0 -155 -2t-90 -4l-23 -2q-1 82 -3 145.5
t-4 86.5l-1 22q176 2 321 5.5t202 6.5l58 2q0 -80 2 -134.5t4 -69.5l1 -15q-95 -168 -167.5 -309t-97.5 -198l-26 -56q99 -4 172.5 -6t97.5 -2h23z" />
    <glyph glyph-name="Zdotaccent" unicode="&#x17b;" horiz-adv-x="690" 
d="M662 -8q-181 6 -340.5 9.5t-227.5 4.5h-69l2 275q213 502 348 868l-344 -10q1 105 0.5 167t-1.5 86l-1 25l630 15l5 -295q-204 -506 -340 -873q83 -4 168.5 -6t129.5 -2h44zM348 1524q-73 0 -112 46t-39 109t40 106.5t111 43.5q72 0 112 -44.5t40 -105.5q0 -75 -43 -115
t-109 -40z" />
    <glyph glyph-name="zdotaccent" unicode="&#x17c;" horiz-adv-x="653" 
d="M623 2q-188 8 -337 12t-204 4h-55l4 199q96 177 166.5 314.5t92.5 186.5l23 48q-88 0 -155 -2t-90 -4l-23 -2q-1 82 -3 145.5t-4 86.5l-1 22q176 2 321 5.5t202 6.5l58 2q0 -80 2 -134.5t4 -69.5l1 -15q-95 -168 -167.5 -309t-97.5 -198l-26 -56q99 -4 172.5 -6t97.5 -2
h23zM328 1114q-73 0 -112.5 46.5t-39.5 109.5t40.5 106t111.5 43q72 0 111.5 -44t39.5 -105q0 -75 -42.5 -115.5t-108.5 -40.5z" />
    <glyph glyph-name="Zcaron" unicode="&#x17d;" horiz-adv-x="690" 
d="M266 1493q-57 71 -213 227q43 37 121 121q55 -67 178 -178q55 57 164 180q35 -34 123 -102q-66 -74 -195 -234q-45 2 -178 -14zM662 -8q-181 6 -340.5 9.5t-227.5 4.5h-69l2 275q213 502 348 868l-344 -10q1 105 0.5 167t-1.5 86l-1 25l630 15l5 -295
q-204 -506 -340 -873q83 -4 168.5 -6t129.5 -2h44z" />
    <glyph glyph-name="zcaron" unicode="&#x17e;" horiz-adv-x="653" 
d="M248 1077q-57 72 -213 228q43 36 121 120q55 -67 178 -178q55 57 164 180q35 -34 123 -102q-66 -73 -195 -233q-45 1 -178 -15zM623 2q-188 8 -337 12t-204 4h-55l4 199q96 177 166.5 314.5t92.5 186.5l23 48q-88 0 -155 -2t-90 -4l-23 -2q-1 82 -3 145.5t-4 86.5l-1 22
q176 2 321 5.5t202 6.5l58 2q0 -80 2 -134.5t4 -69.5l1 -15q-95 -168 -167.5 -309t-97.5 -198l-26 -56q99 -4 172.5 -6t97.5 -2h23z" />
    <glyph glyph-name="florin" unicode="&#x192;" horiz-adv-x="854" 
d="M741 666l-170 4q-54 -435 -84 -598q-36 -200 -130 -285.5t-259 -85.5q-48 0 -75 2q0 57 10 254q98 -6 138.5 33t59.5 147q34 182 74 537q-47 2 -123 0l4 246l148 -5l22 146q28 183 112.5 272.5t229.5 89.5q62 0 136 -12q-6 -76 -10 -136.5t-4 -82.5l-1 -23q-40 5 -47 5
q-63 0 -97.5 -38t-49.5 -124l-19 -101l133 2z" />
    <glyph glyph-name="Scommaaccent" unicode="&#x218;" horiz-adv-x="788" 
d="M528 -195q0 -128 -176 -268l-88 72q55 50 82 102q-34 11 -53 38t-19 67q0 48 36 79t93 31q56 0 90.5 -32.5t34.5 -88.5zM397 -31q-215 0 -303 134.5t-63 406.5q112 -4 286 -6q-26 -311 82 -311q40 0 59 35.5t19 121.5q0 75 -41.5 135.5t-163.5 147.5q-135 96 -191 200.5
t-56 245.5q0 190 100 281.5t274 91.5q202 0 289.5 -134.5t59.5 -395.5q-138 12 -279 16q18 150 -3.5 220.5t-70.5 70.5q-80 0 -80 -164q0 -77 43 -137.5t158 -136.5q141 -95 197.5 -192t56.5 -243q0 -387 -373 -387z" />
    <glyph glyph-name="scommaaccent" unicode="&#x219;" horiz-adv-x="714" 
d="M485 -188q0 -129 -176 -269l-88 72q55 50 82 102q-34 11 -53 38t-19 67q0 48 36 79t93 31q56 0 90.5 -32t34.5 -88zM369 -27q-175 0 -264.5 98.5t-79.5 297.5q88 -3 260 -13q-6 -94 13 -138t71 -44q32 0 52.5 23t20.5 71q0 43 -33.5 79t-140.5 79q-127 51 -185 129.5
t-58 200.5q0 127 88.5 211t246.5 84q168 0 250.5 -109.5t71.5 -298.5q-109 6 -248 6q17 195 -76 195q-38 0 -58.5 -26.5t-20.5 -65.5q0 -55 36.5 -92.5t133.5 -79.5q142 -63 195.5 -135t53.5 -177q0 -77 -26 -135.5t-72 -92.5t-104 -50.5t-127 -16.5z" />
    <glyph glyph-name="uni0237" unicode="&#x237;" horiz-adv-x="389" 
d="M-150 -449q7 96 9 256q36 -4 51 -4q82 0 116.5 42t36.5 130q3 208 3 442t-2 423l-3 190l265 2q2 -52 4 -144t5.5 -387.5t-1.5 -563.5q-3 -188 -96.5 -287.5t-305.5 -100.5q-53 0 -82 2z" />
    <glyph glyph-name="circumflex" unicode="&#x2c6;" horiz-adv-x="813" 
d="M238 1067q-35 34 -123 104q65 74 194 232q45 0 178 14q57 -71 213 -225q-42 -39 -120 -123q-56 67 -179 180q-54 -57 -163 -182z" />
    <glyph glyph-name="caron" unicode="&#x2c7;" horiz-adv-x="813" 
d="M328 1067q-57 71 -213 227q43 37 121 121q55 -67 178 -178q55 57 164 180q34 -34 122 -102q-65 -74 -194 -234q-45 2 -178 -14z" />
    <glyph glyph-name="breve" unicode="&#x2d8;" horiz-adv-x="813" 
d="M401 1100q-71 0 -122.5 22t-79 59.5t-38.5 81.5t-7 93q53 -2 174 6q-3 -47 18 -77t62 -30q38 0 59.5 30.5t13.5 94.5q51 -2 176 2q7 -72 -11.5 -127.5t-55.5 -88.5t-85 -49.5t-104 -16.5z" />
    <glyph glyph-name="dotaccent" unicode="&#x2d9;" horiz-adv-x="813" 
d="M408 1114q-73 0 -112.5 46.5t-39.5 109.5t40.5 106t111.5 43q72 0 111.5 -44t39.5 -105q0 -75 -42.5 -115.5t-108.5 -40.5z" />
    <glyph glyph-name="ring" unicode="&#x2da;" horiz-adv-x="813" 
d="M403 1094q-92 0 -141 55.5t-49 142.5q0 86 54 137.5t139 51.5q91 0 142.5 -55t51.5 -134q0 -102 -56.5 -150t-140.5 -48zM408 1198q69 0 69 94q0 38 -18.5 65t-50.5 27q-34 0 -51 -26.5t-17 -67.5t18.5 -66.5t49.5 -25.5z" />
    <glyph glyph-name="ogonek" unicode="&#x2db;" horiz-adv-x="813" 
d="M522 -389q-133 -12 -208.5 39.5t-75.5 156.5q0 136 161 220l121 -9q-121 -72 -121 -147q0 -93 136 -90q-7 -45 -13 -170z" />
    <glyph glyph-name="tilde" unicode="&#x2dc;" horiz-adv-x="813" 
d="M274 1110q-47 0 -151 -6q-7 131 39.5 208t122.5 77q34 0 68.5 -16t58 -35.5t49 -35.5t43.5 -16q29 0 39 22t4 72q33 -1 139 11q20 -137 -21 -211t-133 -74q-39 0 -80 23t-75 46t-58 23q-51 0 -45 -88z" />
    <glyph glyph-name="hungarumlaut" unicode="&#x2dd;" horiz-adv-x="813" 
d="M494 1090q-42 27 -75.5 47t-46.5 26l-12 6q53 88 99 167t66 114l20 35l160 -101q-69 -94 -122 -167.5t-71 -100.5zM242 1096q-42 27 -75 46t-45 24l-13 5q51 92 93 171.5t58 113.5l16 33q56 -36 96.5 -60.5t53.5 -30.5l12 -7q-64 -95 -113 -168.5t-66 -100.5z" />
    <glyph glyph-name="endash" unicode="&#x2013;" horiz-adv-x="561" 
d="M541 551q-127 3 -257 4t-197 1l-67 -1l5 225h514z" />
    <glyph glyph-name="emdash" unicode="&#x2014;" horiz-adv-x="671" 
d="M25 551q1 32 -5 227q347 -2 631 2q-2 -59 -2 -229q-380 4 -624 0z" />
    <glyph glyph-name="quoteleft" unicode="&#x2018;" horiz-adv-x="339" 
d="M164 969q-60 0 -98.5 46t-38.5 120q0 155 186 317q32 -22 58 -41.5t36 -28.5l10 -8q-73 -73 -96 -135q39 -15 60.5 -49.5t21.5 -75.5q0 -66 -38.5 -105.5t-100.5 -39.5z" />
    <glyph glyph-name="quoteright" unicode="&#x2019;" horiz-adv-x="354" 
d="M131 967q-28 23 -54.5 42t-38.5 27l-13 8q71 78 98 140q-33 15 -54.5 51.5t-21.5 81.5q0 68 38 109.5t105 41.5q63 0 100.5 -47t37.5 -118q0 -162 -197 -336z" />
    <glyph glyph-name="quotesinglbase" unicode="&#x201a;" horiz-adv-x="350" 
d="M131 -219q-28 22 -54.5 41t-38.5 27l-13 8q68 81 94 139q-34 15 -54 51t-20 80q0 69 37.5 111.5t103.5 42.5q64 0 101 -48t37 -118q0 -89 -50.5 -170t-142.5 -164z" />
    <glyph glyph-name="quotedblleft" unicode="&#x201c;" horiz-adv-x="647" 
d="M164 969q-64 0 -100.5 49t-36.5 121q0 164 198 334q27 -23 53.5 -42.5t39.5 -27.5l12 -8q-66 -71 -101 -138q34 -15 56 -51.5t22 -81.5q0 -69 -38 -112t-105 -43zM473 930q-61 0 -99 47.5t-38 122.5q0 152 184 321l105 -78q-65 -65 -97 -137q38 -13 60 -48t22 -77
q0 -71 -38 -111t-99 -40z" />
    <glyph glyph-name="quotedblright" unicode="&#x201d;" horiz-adv-x="647" 
d="M426 954q-27 23 -53 42.5t-39 27.5l-12 8q71 82 98 146q-35 18 -56.5 53.5t-21.5 83.5q0 66 38.5 109.5t104.5 43.5q61 0 98.5 -49t37.5 -119q0 -167 -195 -346zM127 963l-102 75q66 66 92 131q-37 14 -57.5 49.5t-20.5 77.5q0 64 39.5 105t99.5 41t97.5 -44.5
t37.5 -119.5q0 -155 -186 -315z" />
    <glyph glyph-name="quotedblbase" unicode="&#x201e;" horiz-adv-x="647" 
d="M426 -213l-104 78q68 79 96 141q-34 15 -54 51.5t-20 85.5q0 69 37.5 111.5t103.5 42.5q62 0 99 -48t37 -118q0 -172 -195 -344zM127 -211l-102 76q69 72 92 133q-37 13 -58.5 48.5t-21.5 76.5q0 66 38.5 105.5t100.5 39.5q60 0 97.5 -45t37.5 -119q0 -81 -45.5 -157
t-138.5 -158z" />
    <glyph glyph-name="dagger" unicode="&#x2020;" horiz-adv-x="514" 
d="M14 1061q2 53 2 188q54 -2 146 -4q2 66 0 195q57 -4 192 2q-2 -84 -2 -199h148q-2 -73 2 -188q-60 2 -150 4l8 -494l-204 2q4 190 6 494h-148z" />
    <glyph glyph-name="daggerdbl" unicode="&#x2021;" horiz-adv-x="514" 
d="M16 1126l-2 160h142l-2 156l202 -2q-2 -58 -2 -152l148 4l-2 -159h-148v-238h150q-4 -23 -4 -160q-54 2 -146 4v-172q-59 4 -192 -2v176h-144q0 45 -2 160q58 -2 146 -4q0 147 -2 233z" />
    <glyph glyph-name="bullet" unicode="&#x2022;" horiz-adv-x="450" 
d="M227 461q-97 0 -149.5 66t-52.5 171q0 106 53.5 168t146.5 62q98 0 149.5 -65.5t51.5 -162.5q0 -116 -53.5 -177.5t-145.5 -61.5z" />
    <glyph glyph-name="ellipsis" unicode="&#x2026;" horiz-adv-x="1048" 
d="M174 10q-73 0 -111 48.5t-38 123.5q0 77 41 122.5t110 45.5q70 0 110 -47.5t40 -120.5q0 -87 -41.5 -129.5t-110.5 -42.5zM522 -25q-71 0 -109 49.5t-38 125.5q0 77 41 123t108 46q70 0 110 -47t40 -120q0 -91 -41.5 -134t-110.5 -43zM874 -4q-74 0 -112.5 49.5
t-38.5 122.5q0 75 42 120.5t112 45.5t109.5 -47.5t39.5 -120.5q0 -88 -41.5 -129t-110.5 -41z" />
    <glyph glyph-name="perthousand" unicode="&#x2030;" horiz-adv-x="1728" 
d="M281 848q36 0 51.5 50.5t15.5 191.5q0 129 -15 181t-52 52t-53.5 -54.5t-16.5 -172.5q0 -141 16 -194.5t54 -53.5zM279 713q-146 0 -207.5 102t-61.5 299q0 165 69.5 257.5t203.5 92.5q268 0 268 -381q0 -103 -19.5 -176t-56.5 -115t-85 -60.5t-111 -18.5zM279 -14
q-35 5 -69.5 8.5t-51.5 4.5l-17 1q208 412 383 768.5t246 506.5l70 150q38 -4 73.5 -6t51.5 -2h16q-280 -557 -455.5 -914.5t-211.5 -436.5zM856 106q37 0 52.5 50.5t15.5 185.5q0 133 -15.5 187.5t-52.5 54.5q-36 0 -52 -52.5t-16 -175.5q0 -143 15.5 -196.5t52.5 -53.5z
M854 -27q-146 0 -208 99.5t-62 292.5q0 163 69.5 260.5t204.5 97.5q270 0 270 -375q0 -200 -71 -287.5t-203 -87.5zM1450 123q36 0 52 54.5t16 193.5q0 121 -15.5 175t-52.5 54q-38 0 -54 -52t-16 -183q0 -97 8 -150.5t22.5 -72.5t39.5 -19zM1450 -10q-133 0 -202.5 86
t-69.5 282q0 179 68 281t204 102q139 0 203.5 -93.5t64.5 -258.5q0 -399 -268 -399z" />
    <glyph glyph-name="guilsinglleft" unicode="&#x2039;" horiz-adv-x="382" 
d="M160 309q-48 129 -154 381q60 109 166 342q45 -6 195 -8q-53 -100 -166 -344q44 -117 155 -361q-49 0 -196 -10z" />
    <glyph glyph-name="guilsinglright" unicode="&#x203a;" horiz-adv-x="376" 
d="M211 311q-50 6 -195 8q60 118 162 347q-40 109 -155 364q47 -4 194 6q45 -126 154 -383q-60 -115 -160 -342z" />
    <glyph glyph-name="fraction" unicode="&#x2044;" horiz-adv-x="757" 
d="M96 -14q-35 5 -69 8.5t-51 4.5l-17 1q208 412 383 768.5t246 506.5l71 150q37 -4 72 -6t51 -2h17q-280 -557 -456 -914.5t-211 -436.5z" />
    <glyph glyph-name="Euro" unicode="&#x20ac;" horiz-adv-x="901" 
d="M2 737q2 38 0 144h109q21 296 118 439.5t287 143.5q120 0 203 -67t120.5 -180.5t34.5 -264.5l-299 2q3 267 -75 267q-43 0 -64.5 -74t-27.5 -260l358 8q-4 -34 -4 -145q-81 -1 -354 -5v-69l360 8q-4 -37 0 -143q-76 2 -358 -4q4 -190 24.5 -260t65.5 -70q27 0 44 21.5
t27 82t9 162.5l303 -6q-9 -247 -106 -374t-277 -126q-188 0 -280 134.5t-111 426.5l-109 -2q2 31 2 148q32 -2 102 -2v67q-43 0 -102 -2z" />
    <glyph glyph-name="servicemark" unicode="&#x2120;" horiz-adv-x="1044" 
d="M436 799q15 234 23 583q108 -2 219 4q18 -160 49 -346q25 230 39 390q108 -9 221 -9q8 -251 35 -651q-66 -2 -160 -8q0 224 -14 534q-28 -206 -47 -411q-76 0 -146 4q-14 141 -59 395q0 -334 4 -493q-62 6 -164 8zM219 754q-216 0 -199 252q56 -5 148 -5
q-6 -74 6.5 -103.5t40.5 -29.5q43 0 43 66q0 34 -19.5 59.5t-78.5 59.5q-73 41 -103 91t-30 118q0 89 49.5 133.5t142.5 44.5q107 0 151.5 -64.5t32.5 -179.5q-61 6 -137 8q19 123 -41 123q-45 0 -45 -65q0 -33 19.5 -58.5t68.5 -52.5q84 -47 114 -94.5t30 -112.5
q0 -90 -51 -140t-142 -50z" />
    <glyph glyph-name="trademark" unicode="&#x2122;" horiz-adv-x="983" 
d="M375 803q14 220 22 569q108 0 219 4q19 -143 48 -323q10 73 41 370q108 -8 221 -8q8 -251 35 -651q-66 -2 -160 -8q-5 218 -17 516q-32 -232 -45 -379q-75 0 -145 2q-14 123 -57 365q0 -332 4 -461q-64 2 -166 4zM10 1270q4 47 4 147q138 0 353 4l-2 -151q-38 0 -91 2
q0 -150 5 -506q-55 2 -166 0q2 202 0 506q-50 0 -103 -2z" />
    <glyph glyph-name="minus" unicode="&#x2212;" horiz-adv-x="567" 
d="M545 768q-1 -76 -0.5 -123.5t1.5 -68.5l1 -21q-142 4 -273.5 5t-192.5 0l-61 -1l5 209q162 -3 292 -3t179 1z" />
    <glyph glyph-name="Pcircle" unicode="&#x24c5;" horiz-adv-x="1028" 
d="M528 1450q116 0 200.5 -40t145.5 -127.5t91 -232t30 -348.5q0 -369 -115.5 -554t-371.5 -185q-106 0 -187 33.5t-135 95t-88.5 154.5t-49.5 204t-15 252q0 184 25 318.5t66.5 216t107 130.5t135 66t161.5 17zM518 1364q-77 0 -134 -16t-108 -59t-83.5 -116t-51 -189.5
t-18.5 -276.5q0 -328 90.5 -492t298.5 -164q209 0 301 162.5t92 495.5q0 339 -88 497t-299 158zM279 197q1 39 2 115.5t3 341.5t-1 558q76 11 151 11q208 0 295.5 -99.5t87.5 -304.5q0 -364 -323 -383q0 -15 2 -99.5t4 -139.5q-90 4 -221 0zM489 1038q0 -47 -1 -119
t-1 -146.5t2 -176.5q63 11 90 58t27 159q0 122 -26 175t-91 50z" />
    <glyph glyph-name="Pcircle" unicode="&#x24df;" horiz-adv-x="1028" 
d="M528 1450q116 0 200.5 -40t145.5 -127.5t91 -232t30 -348.5q0 -369 -115.5 -554t-371.5 -185q-106 0 -187 33.5t-135 95t-88.5 154.5t-49.5 204t-15 252q0 184 25 318.5t66.5 216t107 130.5t135 66t161.5 17zM518 1364q-77 0 -134 -16t-108 -59t-83.5 -116t-51 -189.5
t-18.5 -276.5q0 -328 90.5 -492t298.5 -164q209 0 301 162.5t92 495.5q0 339 -88 497t-299 158zM279 197q1 39 2 115.5t3 341.5t-1 558q76 11 151 11q208 0 295.5 -99.5t87.5 -304.5q0 -364 -323 -383q0 -15 2 -99.5t4 -139.5q-90 4 -221 0zM489 1038q0 -47 -1 -119
t-1 -146.5t2 -176.5q63 11 90 58t27 159q0 122 -26 175t-91 50z" />
    <glyph glyph-name="commaaccent" horiz-adv-x="813" 
d="M535 -176q0 -128 -177 -268l-88 71q54 49 82 103q-71 22 -71 104q0 48 36 79.5t93 31.5q56 0 90.5 -32.5t34.5 -88.5z" />
    <glyph glyph-name="L_A" horiz-adv-x="1402" 
d="M63 0q-2 557 -12 1393q91 -4 279 0q-4 -279 8 -1139q147 -6 274 -6q62 395 168 1190q100 4 199 5.5t148 0.5h49q98 -720 225 -1471q-117 2 -295 -2q-9 93 -27 281q-47 2 -202 2l-17 -201q-72 2 -215 4v-65zM977 1204q-46 -389 -78 -723q54 -2 156 0q-30 311 -78 723z" />
    <glyph glyph-name="L_Aacute" horiz-adv-x="1402" 
d="M997 1505q-39 31 -72 54.5t-46 31.5l-13 8q58 88 107.5 165t69.5 110l20 33q53 -41 95 -72t58 -42l15 -11q-76 -88 -134.5 -157t-78.5 -95zM63 0q-2 557 -12 1393q91 -4 279 0q-4 -279 8 -1139q147 -6 274 -6q62 395 168 1190q100 4 199 5.5t148 0.5h49
q98 -720 225 -1471q-117 2 -295 -2q-9 93 -27 281q-47 2 -202 2l-17 -201q-72 2 -215 4v-65zM977 1204q-46 -389 -78 -723q54 -2 156 0q-30 311 -78 723z" />
    <glyph glyph-name="L_Abreve" horiz-adv-x="1402" 
d="M63 0q-2 557 -12 1393q91 -4 279 0q-4 -279 8 -1139q147 -6 274 -6q62 395 168 1190q100 4 199 5.5t148 0.5h49q98 -720 225 -1471q-117 2 -295 -2q-9 93 -27 281q-47 2 -202 2l-17 -201q-72 2 -215 4v-65zM977 1204q-46 -389 -78 -723q54 -2 156 0q-30 311 -78 723z
M973 1524q-71 0 -123 22t-79 59.5t-38.5 81.5t-7.5 93q53 -2 174 6q-3 -47 18 -77t62 -30q38 0 60 30.5t14 94.5q51 -2 176 2q7 -72 -11.5 -127.5t-55.5 -88.5t-85 -49.5t-104 -16.5z" />
    <glyph glyph-name="L_Acircumflex" horiz-adv-x="1402" 
d="M807 1491q-35 34 -123 104q66 74 195 232q45 0 178 14q57 -71 213 -225q-43 -39 -121 -123q-55 67 -178 180q-55 -57 -164 -182zM63 0q-2 557 -12 1393q91 -4 279 0q-4 -279 8 -1139q147 -6 274 -6q62 395 168 1190q100 4 199 5.5t148 0.5h49q98 -720 225 -1471
q-117 2 -295 -2q-9 93 -27 281q-47 2 -202 2l-17 -201q-72 2 -215 4v-65zM977 1204q-46 -389 -78 -723q54 -2 156 0q-30 311 -78 723z" />
    <glyph glyph-name="L_Adieresis" horiz-adv-x="1402" 
d="M827 1546q-58 0 -90 39.5t-32 95.5q0 60 34 98t88 38q60 0 90.5 -39t30.5 -97q0 -68 -34 -101.5t-87 -33.5zM1135 1554q-54 0 -86.5 37.5t-32.5 100.5q0 55 32 91t89 36q56 0 85 -37.5t29 -95.5q0 -63 -31 -97.5t-85 -34.5zM63 0q-2 557 -12 1393q91 -4 279 0
q-4 -279 8 -1139q147 -6 274 -6q62 395 168 1190q100 4 199 5.5t148 0.5h49q98 -720 225 -1471q-117 2 -295 -2q-9 93 -27 281q-47 2 -202 2l-17 -201q-72 2 -215 4v-65zM977 1204q-46 -389 -78 -723q54 -2 156 0q-30 311 -78 723z" />
    <glyph glyph-name="L_Agrave" horiz-adv-x="1402" 
d="M63 0q-2 557 -12 1393q91 -4 279 0q-4 -279 8 -1139q147 -6 274 -6q62 395 168 1190q100 4 199 5.5t148 0.5h49q98 -720 225 -1471q-117 2 -295 -2q-9 93 -27 281q-47 2 -202 2l-17 -201q-72 2 -215 4v-65zM977 1204q-46 -389 -78 -723q54 -2 156 0q-30 311 -78 723z
M981 1505q-61 80 -233 277q48 33 167 125q66 -111 197 -308q-43 -24 -131 -94z" />
    <glyph glyph-name="L_Amacron" horiz-adv-x="1402" 
d="M63 0q-2 557 -12 1393q91 -4 279 0q-4 -279 8 -1139q147 -6 274 -6q62 395 168 1190q100 4 199 5.5t148 0.5h49q98 -720 225 -1471q-117 2 -295 -2q-9 93 -27 281q-47 2 -202 2l-17 -201q-72 2 -215 4v-65zM977 1204q-46 -389 -78 -723q54 -2 156 0q-30 311 -78 723z
M743 1575q2 53 -2 180q126 -2 471 4q-2 -45 -2 -180q-136 2 -467 -4z" />
    <glyph glyph-name="L_Aogonek" horiz-adv-x="1402" 
d="M1260 -403q-133 -12 -209 39.5t-76 156.5q0 122 129 201l-25 258q-47 2 -202 2l-17 -201q-72 2 -215 4v-65l-582 8q-2 557 -12 1393q91 -4 279 0q-4 -279 8 -1139q147 -6 274 -6q62 395 168 1190q100 4 199 5.5t148 0.5h49q98 -720 225 -1471q-76 2 -189 0
q-75 -57 -75 -116q0 -93 135 -90q-6 -45 -12 -170zM977 1204q-46 -389 -78 -723q54 -2 156 0q-30 311 -78 723z" />
    <glyph glyph-name="L_Aring" horiz-adv-x="1402" 
d="M975 1518q-92 0 -141.5 55.5t-49.5 142.5q0 86 54 137.5t139 51.5q91 0 142.5 -55t51.5 -134q0 -103 -56 -150.5t-140 -47.5zM979 1622q34 0 52 25t18 69q0 37 -19 64.5t-51 27.5q-34 0 -51 -26.5t-17 -67.5t18.5 -66.5t49.5 -25.5zM63 0q-2 557 -12 1393q91 -4 279 0
q-4 -279 8 -1139q147 -6 274 -6q62 395 168 1190q100 4 199 5.5t148 0.5h49q98 -720 225 -1471q-117 2 -295 -2q-9 93 -27 281q-47 2 -202 2l-17 -201q-72 2 -215 4v-65zM977 1204q-46 -389 -78 -723q54 -2 156 0q-30 311 -78 723z" />
    <glyph glyph-name="L_Atilde" horiz-adv-x="1402" 
d="M63 0q-2 557 -12 1393q91 -4 279 0q-4 -279 8 -1139q147 -6 274 -6q62 395 168 1190q100 4 199 5.5t148 0.5h49q98 -720 225 -1471q-117 2 -295 -2q-9 93 -27 281q-47 2 -202 2l-17 -201q-72 2 -215 4v-65zM977 1204q-46 -389 -78 -723q54 -2 156 0q-30 311 -78 723z
M844 1532q-48 0 -152 -6q-7 131 39.5 207.5t122.5 76.5q43 0 86 -25.5t77 -51t56 -25.5q29 0 39 22t4 72q33 -2 139 10q20 -137 -20.5 -210.5t-132.5 -73.5q-39 0 -80 23t-75 46t-58 23q-51 0 -45 -88z" />
    <glyph glyph-name="T_h" horiz-adv-x="1429" 
d="M961 1430q-1 -28 -2 -77.5t-2.5 -193.5t-0.5 -276q74 158 226 155q97 0 147 -76t53 -214q4 -147 6 -342t2 -317l-1 -122q-95 2 -275 2q6 394 0 719q0 57 -13 80t-44 23q-36 0 -59 -40t-23 -112l-2 -604q-89 2 -275 -2q1 43 2 127.5t3 381t-3 629.5q-79 0 -202 -2
q0 -548 8 -1177q-95 2 -279 -2q2 461 -4 1173l-211 -6q2 73 -2 266q469 -1 951 7z" />
    <glyph glyph-name="zero.numerator" horiz-adv-x="614" 
d="M307 584q-141 0 -208.5 106.5t-67.5 335.5q0 213 67 319.5t209 106.5t209.5 -99.5t67.5 -316.5q0 -241 -68.5 -346.5t-208.5 -105.5zM307 725q23 0 37.5 22.5t23.5 93t9 195.5q0 74 -5.5 129t-16 86.5t-23 46.5t-27.5 15q-72 0 -72 -281q0 -307 74 -307z" />
    <glyph glyph-name="one.numerator" horiz-adv-x="448" 
d="M174 610q0 500 -2 590l-109 -61l-63 174l244 135l129 -14q0 -188 2 -393.5t4 -316.5l2 -112z" />
    <glyph glyph-name="two.numerator" horiz-adv-x="542" 
d="M506 614q-100 3 -218.5 4t-186.5 0h-68l-8 191q131 84 218 190t87 218q0 100 -56 100q-37 0 -51 -50t-4 -167q-88 0 -194 -4q-20 183 46 274.5t205 91.5q115 0 180.5 -62t65.5 -175q0 -127 -76.5 -244t-205.5 -203q69 0 136 2.5t100 5.5l32 2z" />
    <glyph glyph-name="three.numerator" horiz-adv-x="583" 
d="M291 586q-152 0 -217.5 82t-53.5 247q87 -6 193 -12q-9 -172 72 -172q31 0 51 24t20 76q0 84 -43 111q-37 27 -137 19l-6 133q100 -7 141 20q37 23 37 96q0 52 -18 79.5t-45 27.5q-37 0 -55 -41.5t-11 -122.5l-194 -10q-14 166 61.5 245.5t212.5 79.5q111 0 179.5 -65.5
t68.5 -167.5q0 -156 -119 -195q62 -20 95.5 -75t33.5 -131q0 -116 -75.5 -182t-190.5 -66z" />
    <glyph glyph-name="four.numerator" horiz-adv-x="593" 
d="M328 614q0 107 2 158q-78 0 -316 -4q0 39 -4 162q64 149 119 280t77 188l23 56l287 -8q-3 -330 0 -524q30 0 55 2q-2 -44 -2 -150h-53l2 -160q-56 -2 -103.5 -2t-66.5 1zM334 1307q-100 -246 -150 -385h148q2 219 2 385z" />
    <glyph glyph-name="five.numerator" horiz-adv-x="593" 
d="M299 592q-146 0 -208 78.5t-54 234.5l196 -10q-8 -172 68 -172q33 0 49.5 37.5t16.5 130.5q0 86 -14.5 124t-49.5 38q-30 0 -45.5 -26.5t-21.5 -80.5q-89 9 -195 15q8 218 10 483q257 0 490 4q-2 -37 -2 -158q-141 2 -303 -2q0 -14 -1.5 -68t-1.5 -94q48 60 140 60
q96 0 145 -78t49 -207q0 -158 -72 -233.5t-196 -75.5z" />
    <glyph glyph-name="six.numerator" horiz-adv-x="604" 
d="M309 590q-140 0 -209 105.5t-69 326.5q0 218 66 330t212 112q257 0 254 -290l-194 6q3 137 -56 137q-36 0 -56.5 -53.5t-23.5 -188.5q54 60 154 60q89 -1 140 -69.5t51 -180.5q0 -150 -76 -222.5t-193 -72.5zM309 1001q-44 0 -76 -53q6 -119 26.5 -168t57.5 -49
q64 0 64 141q0 52 -18.5 90.5t-53.5 38.5z" />
    <glyph glyph-name="seven.numerator" horiz-adv-x="485" 
d="M104 598q-10 213 35 384t131 282l-260 -4l2 186l461 6l2 -182q-94 -134 -134 -295.5t-30 -380.5z" />
    <glyph glyph-name="eight.numerator" horiz-adv-x="616" 
d="M313 592q-133 0 -209.5 63t-76.5 172q0 69 31.5 124t95.5 81q-113 71 -113 207q0 101 73 163.5t199 63.5q128 0 198.5 -61t70.5 -164q0 -143 -121 -207q129 -64 129 -207q0 -116 -79 -175.5t-198 -59.5zM307 729q37 0 56.5 26t19.5 74q0 91 -80 138q-74 -46 -74 -129
q0 -51 21 -80t57 -29zM313 1090q68 47 68 131q-1 51 -21 77.5t-53 26.5q-31 0 -50 -25t-19 -73q0 -91 75 -137z" />
    <glyph glyph-name="nine.numerator" horiz-adv-x="598" 
d="M291 592q-129 0 -196.5 80.5t-57.5 228.5q51 -5 98.5 -8.5t69.5 -4.5l22 -1q-6 -152 66 -152q39 0 54 45t18 187q-47 -39 -125 -39q-106 0 -159.5 70.5t-53.5 191.5q0 123 67 197.5t195 74.5q151 0 214.5 -99.5t63.5 -334.5q1 -124 -17.5 -210.5t-56 -135t-86.5 -69.5
t-116 -21zM305 1053q38 0 60 34q-3 135 -19.5 188.5t-50.5 53.5q-72 0 -72 -141q0 -135 82 -135z" />
    <glyph glyph-name="zero.denominator" horiz-adv-x="614" 
d="M307 -33q-141 0 -208.5 107t-67.5 336q0 213 67 319.5t209 106.5t209.5 -99.5t67.5 -316.5q0 -241 -68.5 -347t-208.5 -106zM307 109q23 0 37.5 22.5t23.5 93t9 195.5q0 276 -72 276t-72 -280q0 -307 74 -307z" />
    <glyph glyph-name="one.denominator" horiz-adv-x="448" 
d="M174 -6q0 500 -2 590l-109 -62l-63 174l244 135l129 -14q0 -188 2 -393t4 -316l2 -112z" />
    <glyph glyph-name="two.denominator" horiz-adv-x="542" 
d="M506 -2q-100 3 -218 4t-186 0h-69l-8 191q131 84 218 189.5t87 217.5q0 100 -56 100q-37 0 -51 -50t-4 -167q-88 0 -194 -4q-20 183 46 275t205 92q115 0 180.5 -62.5t65.5 -175.5q0 -127 -76.5 -243.5t-205.5 -202.5q69 0 136 2.5t100 5.5l32 2z" />
    <glyph glyph-name="three.denominator" horiz-adv-x="583" 
d="M291 -31q-152 0 -217.5 82.5t-53.5 247.5q87 -6 193 -12q-9 -172 72 -172q31 0 51 24t20 76q0 84 -43 111q-36 26 -137 18l-6 133q99 -7 141 21q37 23 37 96q0 52 -18 79t-45 27q-37 0 -55 -41.5t-11 -121.5l-194 -11q-14 166 62 246t212 80q111 0 179.5 -66t68.5 -168
q0 -155 -119 -194q62 -20 95.5 -75.5t33.5 -131.5q0 -116 -75.5 -182t-190.5 -66z" />
    <glyph glyph-name="four.denominator" horiz-adv-x="593" 
d="M328 -2q0 107 2 158q-78 0 -316 -4q0 38 -4 161q64 149 119 280.5t77 188.5l23 56l287 -9q-3 -330 0 -524q30 0 55 2q-2 -43 -2 -149h-53l2 -160q-56 -2 -103.5 -2t-66.5 1zM334 690q-100 -246 -150 -385h148q2 219 2 385z" />
    <glyph glyph-name="five.denominator" horiz-adv-x="593" 
d="M299 -25q-146 0 -208 78.5t-54 235.5l196 -10q-8 -173 68 -173q33 0 49.5 37.5t16.5 130.5q0 86 -14.5 124t-49.5 38q-55 0 -67 -106q-89 8 -195 14q8 218 10 483q257 0 490 4q-2 -36 -2 -157q-141 2 -303 -2q0 -14 -1.5 -68t-1.5 -94q47 59 140 59q96 0 145 -77.5
t49 -206.5q0 -159 -72 -234.5t-196 -75.5z" />
    <glyph glyph-name="six.denominator" horiz-adv-x="602" 
d="M309 -27q-140 0 -209 106t-69 327q0 218 66 330t212 112q257 0 254 -291l-194 6q3 137 -56 137q-36 0 -56.5 -53t-23.5 -188q53 59 154 59q89 -1 140 -69.5t51 -180.5q0 -150 -76 -222.5t-193 -72.5zM309 385q-44 0 -76 -53q6 -119 26.5 -168t57.5 -49q64 0 64 141
q0 52 -18.5 90.5t-53.5 38.5z" />
    <glyph glyph-name="seven.denominator" horiz-adv-x="485" 
d="M104 -18q-10 213 35 383.5t131 281.5l-260 -4l2 186l461 7l2 -183q-94 -134 -134 -295.5t-30 -380.5z" />
    <glyph glyph-name="eight.denominator" horiz-adv-x="616" 
d="M313 -25q-133 0 -209.5 63.5t-76.5 172.5q0 69 31.5 124t95.5 81q-113 71 -113 207q0 101 73 163.5t199 63.5q128 0 198.5 -61t70.5 -164q0 -143 -121 -207q129 -64 129 -207q0 -116 -79 -176t-198 -60zM307 113q37 0 56.5 26t19.5 74q0 90 -80 137q-74 -46 -74 -129
q0 -50 21 -79t57 -29zM313 473q68 47 68 131q-1 51 -21 78t-53 27q-31 0 -50 -25.5t-19 -73.5q0 -91 75 -137z" />
    <glyph glyph-name="nine.denominator" horiz-adv-x="598" 
d="M291 -25q-129 0 -196.5 81t-57.5 229l190 -15q-6 -151 66 -151q26 0 40 16.5t22 66.5t10 148q-47 -39 -125 -39q-106 0 -159.5 70.5t-53.5 191.5q0 123 67 198t195 75q151 0 214.5 -99.5t63.5 -334.5q1 -124 -18 -210.5t-56 -135.5t-86 -70t-116 -21zM305 436q38 0 60 35
q-3 135 -19.5 188.5t-50.5 53.5q-72 0 -72 -142q0 -135 82 -135z" />
    <glyph glyph-name="dollar.titling" horiz-adv-x="655" 
d="M440 309l-213 4l9 142q-220 44 -205 325q79 -8 231 -14q-21 -158 70 -158q71 0 71 80q0 44 -31.5 78.5t-123.5 69.5q-115 43 -166 111.5t-51 168.5q0 96 53 156.5t152 77.5l-7 153l209 4l-12 -161q203 -51 188 -322q-82 6 -223 10q9 77 -9 120.5t-58 43.5q-32 0 -50 -22
t-18 -62q0 -47 32 -80t113 -63q132 -49 181 -109.5t49 -154.5q0 -207 -197 -250q0 -38 1.5 -75t2.5 -55z" />
    <glyph glyph-name="cent.titling" horiz-adv-x="661" 
d="M236 305l8 148q-217 60 -217 450q0 393 219 447l-6 157l206 2l-10 -163q109 -31 157.5 -127.5t39.5 -243.5q-71 3 -129 3.5t-80 -0.5l-23 -1q3 221 -65 221q-37 0 -52.5 -65t-15.5 -215q0 -128 8.5 -197.5t23.5 -92t40 -22.5q76 0 63 225q89 -3 232 5q14 -326 -195 -383
q1 -40 3 -77t4 -54l2 -17q-61 2 -114 2t-76 -1z" />
    <glyph glyph-name="Euro.titling" horiz-adv-x="731" 
d="M16 930q2 36 -2 104q27 -2 78 0q17 205 96.5 304.5t229.5 99.5t221 -95.5t68 -250.5l-236 2q0 89 -15.5 127.5t-47.5 38.5q-22 0 -37 -18t-25.5 -68.5t-13.5 -135.5l276 6q-2 -28 -2 -106q-65 0 -276 -2v-66l280 7q-4 -31 0 -107q-63 0 -278 -2q6 -120 24.5 -165.5
t53.5 -45.5q34 0 48.5 40t14.5 128q61 -3 120.5 -4t88.5 -1l29 1q-7 -168 -89 -254t-216 -84q-142 0 -217.5 92t-94.5 289q-27 -2 -80 -2q2 26 0 106h74v64q-45 -2 -72 -2z" />
    <glyph glyph-name="sterling.titling" horiz-adv-x="684" 
d="M33 768l-2 172l73 -2q-2 8 -14.5 47.5t-16.5 55.5t-9 47.5t-5 60.5q0 131 76.5 208t229.5 77q336 0 286 -414q-90 4 -231 4q24 244 -60 244q-65 0 -65 -121q0 -27 4.5 -57.5t8.5 -49.5t13.5 -54t12.5 -48l225 2q0 -56 1.5 -98.5t3.5 -57.5l1 -14h-211q-9 -98 -63 -170
q130 -3 358 0q-4 -52 -4 -197q-210 7 -604 7l2 161q87 90 90 199z" />
    <glyph glyph-name="yen.titling" horiz-adv-x="702" 
d="M74 698q2 31 -2 127h129q-72 246 -185 574q56 0 244 8q26 -155 96 -465q50 223 99 494q73 -4 231 -4q-69 -211 -178 -601l121 5q-4 -33 0 -127q-51 0 -168 -2v-62q38 0 170 4q0 -25 2 -121h-170q0 -39 4 -133q-51 4 -219 0v129l-178 -4q2 31 2 123q53 -2 176 -2
q0 32 -2 61q-40 0 -172 -4z" />
    <glyph glyph-name="zero.titling" horiz-adv-x="686" 
d="M342 387q-159 0 -235 130.5t-76 404.5q0 260 75.5 387t235.5 127q161 0 237 -121.5t76 -382.5q0 -284 -75.5 -414.5t-237.5 -130.5zM342 553q26 0 41.5 28.5t24 113t8.5 239.5q0 336 -76 336q-25 0 -41 -28t-25.5 -105.5t-9.5 -208.5q0 -142 9 -225.5t25.5 -116.5
t43.5 -33z" />
    <glyph glyph-name="one.titling" horiz-adv-x="507" 
d="M195 420q3 572 0 725l-125 -74q-16 53 -33.5 103.5t-26.5 75.5l-10 24l283 156l135 -17q0 -227 2.5 -474.5t5.5 -382.5l2 -134z" />
    <glyph glyph-name="two.titling" horiz-adv-x="610" 
d="M569 424q-77 2 -160 3.5t-147 2t-117 0.5h-81h-29l-8 227q342 247 342 496q0 121 -60 121q-43 0 -59 -60.5t-4 -203.5q-86 0 -219 -6q-46 442 284 442q133 0 206 -76t73 -213q0 -149 -90 -290.5t-238 -245.5q86 0 163 2t111 4l35 2z" />
    <glyph glyph-name="three.titling" horiz-adv-x="647" 
d="M324 391q-176 0 -247.5 99.5t-53.5 295.5q88 -6 219 -14q-15 -209 75 -209q34 0 55 30t21 95q0 97 -45 133q-43 30 -151 23l-7 160q104 -9 154 22q43 29 43 121q0 64 -19 98.5t-51 34.5q-42 0 -60 -52.5t-9 -154.5l-219 -12q-19 202 63 297.5t242 95.5q127 0 201.5 -80.5
t74.5 -202.5q0 -182 -131 -233q69 -25 107.5 -91t38.5 -159q0 -141 -85.5 -219t-215.5 -78z" />
    <glyph glyph-name="four.titling" horiz-adv-x="663" 
d="M362 424l3 190q-83 0 -349 -4q-2 43 -6 193q75 183 137.5 342t87.5 226l25 67l318 -11q-3 -405 -3 -632q43 2 68 2q-2 -52 -2 -181h-66l3 -192q-68 -3 -122 -3t-74 1zM369 1243q-48 -129 -103 -286t-57 -162h158q2 248 2 448z" />
    <glyph glyph-name="five.titling" horiz-adv-x="657" 
d="M330 397q-167 0 -236 95t-57 282l221 -10q-3 -112 15 -160.5t59 -48.5q36 0 53.5 45t17.5 158q0 106 -16 154.5t-53 48.5q-62 0 -72 -138q-102 11 -223 19q10 263 14 581q263 1 549 9q-4 -44 -4 -189q-143 2 -336 -2q-2 -47 -2 -213q54 86 160 86q73 0 121.5 -46
t69 -120.5t20.5 -177.5q0 -190 -79 -281.5t-222 -91.5z" />
    <glyph glyph-name="six.titling" horiz-adv-x="665" 
d="M344 395q-162 0 -237.5 126.5t-75.5 393.5q0 128 16 223t51.5 167t97.5 108.5t150 36.5q288 0 279 -352q-36 2 -71 3.5t-60.5 2t-45.5 0.5h-30h-10q3 174 -60 174q-41 0 -62 -66.5t-22 -236.5q71 74 172 74q100 0 152.5 -82t52.5 -217q0 -181 -82.5 -268t-214.5 -87z
M342 887q-38 0 -78 -43q4 -156 25 -217.5t63 -61.5q30 0 49 41t19 129q0 70 -19 111t-59 41z" />
    <glyph glyph-name="seven.titling" horiz-adv-x="544" 
d="M121 401q-14 264 37.5 475t150.5 341l-299 -5l4 215l518 7q-1 -79 0 -128.5t2 -71.5l1 -22q-108 -157 -152.5 -352.5t-32.5 -460.5z" />
    <glyph glyph-name="eight.titling" horiz-adv-x="679" 
d="M346 397q-159 0 -241 75.5t-82 207.5q0 82 37 146t110 98q-131 92 -131 254q0 123 82 197.5t223 74.5q147 0 225 -72.5t78 -197.5q0 -170 -143 -250q153 -81 153 -250q0 -74 -24.5 -129.5t-68 -88.5t-98.5 -49t-120 -16zM338 557q40 0 62 31t22 88q0 112 -88 170
q-82 -57 -82 -160q0 -59 23.5 -94t62.5 -35zM346 1001q72 54 72 160q0 61 -21.5 93t-58.5 32q-34 0 -55 -31.5t-21 -87.5q0 -111 84 -166z" />
    <glyph glyph-name="nine.titling" horiz-adv-x="661" 
d="M317 399q-150 0 -222.5 97.5t-57.5 277.5q63 -7 117 -11.5t77 -5.5l23 -1q-11 -189 70 -189q29 0 44.5 22.5t23.5 85.5t9 185q-52 -55 -135 -55q-123 0 -182 83.5t-59 229.5q0 150 76.5 239t220.5 89q166 0 237.5 -118.5t71.5 -403.5q1 -150 -19.5 -253t-62.5 -162
t-98 -84.5t-134 -25.5zM336 942q34 0 65 31q-3 182 -20 249.5t-55 67.5q-78 0 -78 -176q0 -172 88 -172z" />
    <glyph glyph-name="questiondown.cap" horiz-adv-x="774" 
d="M373 -41q-174 0 -263.5 109.5t-89.5 291.5q0 198 75 304t218 147l-2 174q83 -2 144.5 -1t96.5 3l36 2q0 -88 1.5 -174.5t2.5 -128.5l2 -43q-158 -3 -216.5 -60t-58.5 -188q0 -213 78 -213q55 0 69.5 73t4.5 234q113 7 281 13q28 -279 -63.5 -411t-315.5 -132zM453 1063
q-89 0 -136 49t-47 139q0 81 47.5 131t128.5 50q91 0 140 -51.5t49 -137.5q0 -82 -51.5 -131t-130.5 -49z" />
    <glyph glyph-name="exclamdown.cap" horiz-adv-x="417" 
d="M59 -20q15 455 29 1001q97 -4 236 0q13 -500 38 -1001q-119 4 -303 0zM207 1061q-87 0 -133.5 53.5t-46.5 132.5q0 83 49 133t127 50q89 0 138.5 -50t49.5 -137q0 -81 -49.5 -131.5t-134.5 -50.5z" />
    <glyph glyph-name="parenleft.cap" horiz-adv-x="512" 
d="M256 -102q-213 379 -213 804q0 233 58 447t175 381q68 -23 125.5 -41t80.5 -25l24 -6q-176 -344 -176 -753q0 -332 172 -740q-68 -16 -129.5 -33t-88.5 -26z" />
    <glyph glyph-name="parenright.cap" horiz-adv-x="512" 
d="M256 -123q-94 33 -246 70q172 435 172 768q0 420 -176 764q84 22 236 71q111 -166 169 -382.5t58 -444.5q0 -441 -213 -846z" />
    <glyph glyph-name="bracketleft.cap" horiz-adv-x="512" 
d="M481 -90q-19 1 -53 2t-138 3t-208 1q4 375 -8 1583q109 -2 397 4q-2 -86 4 -233q-45 0 -121 -4q-8 -566 0 -1102q49 -4 135 -4q-6 -76 -8 -250z" />
    <glyph glyph-name="bracketright.cap" horiz-adv-x="512" 
d="M37 -88q-6 238 -8 250q35 0 79 1t52 1q6 521 -2 1124h-125q2 131 2 236q254 -4 401 -4q-13 -937 -6 -1602q-52 1 -141.5 -0.5t-165.5 -3.5t-86 -2z" />
    <glyph glyph-name="braceleft.cap" horiz-adv-x="579" 
d="M549 -74q-84 -22 -162 -22q-132 0 -187 67t-55 215l13 242q0 97 -32 137t-116 39q1 10 2 28.5t2 82.5t0 135q80 -4 112 31.5t32 122.5q-1 36 -11 129.5t-10 138.5q0 121 60.5 181t195.5 60q79 0 158 -20q-1 -80 0 -137t3 -74l1 -18q-87 9 -117 -11t-30 -88l20 -245
q0 -74 -30 -120t-99 -75q71 -28 99 -81.5t28 -143.5q0 -39 -6 -116.5t-6 -111.5q0 -75 28.5 -98t112.5 -16q-2 -45 -3.5 -85.5t-2 -66t-0.5 -44.5v-28v-8z" />
    <glyph glyph-name="braceright.cap" horiz-adv-x="579" 
d="M29 -86q8 48 -4 225q82 -9 115.5 14t33.5 95q0 35 -10 129t-10 141q0 88 32.5 140.5t108.5 76.5q-72 21 -107.5 69t-35.5 134q0 43 10 124t10 112q0 65 -31 85t-116 15q0 2 1 12t2 26t2 43.5t1.5 64.5t-0.5 89q73 15 139 15q145 0 207.5 -60.5t62.5 -181.5
q0 -46 -10 -137t-10 -131q0 -89 32 -124t113 -34q0 -212 4 -240q-88 3 -119.5 -31t-31.5 -126l20 -305q0 -131 -57.5 -197.5t-187.5 -65.5q-64 0 -164 23z" />
    <glyph glyph-name="slash.cap" horiz-adv-x="610" 
d="M-4 -102q99 409 194 811.5t140 600.5l45 199q78 -2 138 -2t81 1l20 1q-136 -562 -230 -964.5t-120 -524.5l-26 -122q-72 2 -132.5 2t-85.5 -1z" />
    <glyph glyph-name="backslash.cap" horiz-adv-x="610" 
d="M614 -102q-77 4 -241 0q-73 349 -377 1611q66 -4 240 0q155 -693 378 -1611z" />
    <glyph glyph-name="bar.cap" horiz-adv-x="407" 
d="M84 -98q2 749 -6 1607q10 -1 29.5 -2t84.5 -2t136 0q-1 -66 -1.5 -189t-1.5 -544.5t1 -867.5q-74 4 -242 -2z" />
    <glyph glyph-name="at.cap" horiz-adv-x="1234" 
d="M782 -23q-372 -75 -560.5 105t-188.5 618q0 355 156 552.5t429 197.5q292 0 438 -193.5t146 -545.5q0 -193 -27.5 -307t-77.5 -158.5t-130 -44.5q-136 0 -172 145q-34 -71 -97.5 -104t-138.5 -33q-124 0 -192 75t-68 195q0 129 92 206.5t291 98.5q0 45 -2 74
q-4 85 -19.5 119.5t-46.5 34.5q-38 0 -51.5 -43.5t-7.5 -145.5l-221 -10q-20 172 55.5 281.5t239.5 109.5q140 0 213.5 -92t79.5 -242q3 -80 3.5 -199t-1.5 -169q0 -144 53 -144q24 0 38.5 25.5t23 103.5t8.5 218q0 304 -103.5 457t-322.5 153q-208 0 -320.5 -161
t-112.5 -454q0 -145 19 -251t61 -183.5t108.5 -116.5t161.5 -50t220 16q10 -60 24 -138zM692 571v99q-170 -40 -170 -183q0 -45 20 -72.5t56 -27.5q45 0 69.5 41t24.5 143z" />
    <glyph glyph-name="A.alt" horiz-adv-x="823" 
d="M4 0q86 537 207 1407q100 4 198.5 5t146.5 0l48 -1q90 -648 217 -1401q-111 4 -291 -2l-20 223q-18 0 -87 1t-122 1l-20 -237q-10 1 -29.5 2t-91.5 2t-156 0zM408 1184q-61 -498 -84 -729h163q-27 266 -79 729z" />
    <glyph glyph-name="B.alt" horiz-adv-x="819" 
d="M68 -4q-3 660 -17 1409q129 18 268 18q247 0 355 -91t108 -271q0 -115 -57.5 -199.5t-153.5 -124.5q119 -37 178.5 -128t59.5 -220q0 -203 -141.5 -301t-434.5 -98q-77 0 -165 6zM340 195q100 -2 146 48.5t46 162.5q0 104 -47.5 157t-150.5 53q0 -150 6 -421zM332 1208
q-2 -109 -2 -208t1 -143l1 -44q92 -3 140 50t48 157q0 103 -43.5 147.5t-144.5 40.5z" />
    <glyph glyph-name="C.alt" horiz-adv-x="835" 
d="M432 -20q-75 0 -132.5 19.5t-109 69.5t-85 131.5t-53 210t-19.5 300.5q0 380 94.5 556.5t314.5 176.5q190 0 280.5 -144t84.5 -419q-81 0 -155 -1.5t-108 -3.5l-34 -2q1 188 -18.5 261t-63.5 73q-53 0 -73 -113t-17 -384q0 -276 20.5 -384t73.5 -108q32 0 49 24t26.5 105
t4.5 230l301 12q7 -329 -84.5 -470.5t-296.5 -139.5z" />
    <glyph glyph-name="D.alt" horiz-adv-x="839" 
d="M338 213q29 -1 49 5t41 23t34.5 50.5t24.5 86.5t16 133t5 187q0 265 -44.5 374t-137.5 104q1 -220 4 -461t6 -371zM51 4q2 324 2 671t-1 533l-1 185q101 14 199 14q155 0 262.5 -44.5t172.5 -137.5t93.5 -225t28.5 -318q0 -252 -64.5 -405t-188.5 -219t-321 -66
q-83 0 -182 12z" />
    <glyph glyph-name="E.alt" horiz-adv-x="657" 
d="M68 25q-5 553 -17 1376q167 0 574 12q-2 -112 4 -272q-147 -3 -301 -11q0 -122 2 -337q113 0 258 4q-2 -102 0 -254q-109 2 -254 0q5 -186 8 -269q115 -2 293 0q-4 -88 -4 -258q-257 5 -563 9z" />
    <glyph glyph-name="F.alt" horiz-adv-x="649" 
d="M68 27q-3 547 -17 1372q264 0 578 8q-2 -94 -2 -274q-98 1 -297 -5q0 -129 2 -407q125 0 268 4q-2 -102 2 -262q-86 4 -266 0l8 -434h-89.5t-76.5 -0.5t-56.5 -1t-38.5 -0.5h-15z" />
    <glyph glyph-name="G.alt" horiz-adv-x="839" 
d="M428 -29q-99 0 -169.5 35.5t-122.5 118t-77.5 224.5t-25.5 347q0 354 93 531.5t304 177.5q131 0 216.5 -70.5t119.5 -189.5t27 -281q-166 0 -283 -8q3 166 -17.5 242t-66.5 76q-49 0 -73.5 -111t-24.5 -371q1 -202 13 -312t35 -151t64 -41q30 0 48 21.5t28 84t6 169.5
q-51 -2 -119 -6q0 76 -4 219q230 -2 406 2q11 -261 -26 -416.5t-122 -223t-229 -67.5z" />
    <glyph glyph-name="H.alt" horiz-adv-x="821" 
d="M492 10v432q-82 0 -160 -2l6 -452q-119 4 -279 -2q0 633 -8 1448q68 -2 273 2q2 -321 6 -756q5 0 57.5 -1t101.5 -1q0 117 -2.5 379.5t-3.5 357.5q101 0 283 2q-2 -573 6 -1409q-12 1 -34.5 1.5t-97 1.5t-148.5 -1z" />
    <glyph glyph-name="I.alt" horiz-adv-x="423" 
d="M76 31q2 552 -8 1347q96 0 278 2q4 -611 10 -1349q-98 2 -280 0z" />
    <glyph glyph-name="J.alt" horiz-adv-x="741" 
d="M356 -2q-340 0 -340 434q0 100 25 246q80 -6 250 -14q-17 -102 -17 -187q0 -129 19 -178t59 -49q30 0 46.5 27t28 127.5t11.5 291.5q0 190 -10.5 333.5t-38.5 365.5q99 8 273 24q53 -424 53 -733q0 -159 -16 -277.5t-45 -196.5t-74 -126t-99 -68t-125 -20z" />
    <glyph glyph-name="K.alt" horiz-adv-x="833" 
d="M543 -33q-65 340 -111 531q-79 -205 -100 -269l4 -223q-100 1 -163.5 0.5t-92.5 -1.5l-29 -1q2 353 2 695.5t-1 508.5l-1 166l283 -2q-4 -295 -4 -735l219 786q81 -4 152 -6.5t102 -2.5l31 -1l-207 -647q53 -207 104 -399t75 -281l25 -88q-76 -5 -148 -13t-106 -13z" />
    <glyph glyph-name="L.alt" horiz-adv-x="624" 
d="M63 33q-2 522 -12 1356q91 -2 279 0q-4 -246 8 -1108l287 -2l-2 -256q-149 4 -289 6.5t-206 2.5z" />
    <glyph glyph-name="M.alt" horiz-adv-x="1202" 
d="M33 10q29 662 45 1436q178 -4 397 4q52 -421 115 -852q75 482 123 836l407 -13q10 -520 49 -1415q-145 -6 -286 -10q3 441 -17 1120q-64 -395 -131 -872q-149 2 -282 8q-45 362 -127 893q-5 -652 0 -1143q-172 4 -293 8z" />
    <glyph glyph-name="N.alt" horiz-adv-x="874" 
d="M57 -14q6 602 -6 1431q105 -4 277 0q100 -380 258 -858q-12 364 -47 873q11 -1 31 -2t87 -2.5t138 -0.5q8 -491 28 -1402q-92 -3 -268 -19q-98 340 -264 871q10 -536 31 -897q-111 6 -265 6z" />
    <glyph glyph-name="O.alt" horiz-adv-x="862" 
d="M432 1436q213 0 304 -171.5t93 -549.5q0 -160 -17 -281.5t-49.5 -205t-81.5 -136.5t-110 -76.5t-139 -23.5q-219 0 -309 167.5t-90 553.5q2 386 93 554.5t306 168.5zM428 1212q-35 0 -54 -41t-28.5 -153.5t-9.5 -323.5q0 -152 6.5 -250.5t20 -148.5t29.5 -68t40 -18
t40 17t29 66.5t19 147.5t6 252q0 211 -11 325.5t-31 154.5t-56 40z" />
    <glyph glyph-name="P.alt" horiz-adv-x="796" 
d="M53 -8q1 59 2 167.5t2 475t-2 743.5q84 8 178 8q289 0 420 -127t131 -385q0 -242 -121 -370t-333 -137l10 -373q-119 4 -287 -2zM326 1145q0 -424 2 -561q43 5 73 20.5t53.5 47.5t34.5 85.5t11 130.5q0 138 -41 208t-133 69z" />
    <glyph glyph-name="Q.alt" horiz-adv-x="858" 
d="M573 -276q-43 121 -102 268q-32 -4 -51 -4q-387 0 -387 678q0 382 89.5 566.5t297.5 184.5q154 0 241 -75t125.5 -240.5t38.5 -456.5q0 -392 -151 -553q36 -65 73 -127.5t55 -92.5l19 -30q-83 -37 -145 -66.5t-82 -40.5zM428 1200q-32 0 -50.5 -39t-30 -161t-11.5 -345
q0 -111 4.5 -192.5t12.5 -131.5t20 -80t25 -41t30 -11q33 0 52 33.5t30.5 136t11.5 288.5q0 224 -10.5 343t-29.5 159.5t-54 40.5z" />
    <glyph glyph-name="R.alt" horiz-adv-x="823" 
d="M555 -43q-66 230 -166 569q-37 -6 -57 -6q0 -36 8 -520q-123 2 -287 -2q1 60 2 170.5t2 481t-2 745.5q126 18 228 18q141 0 241.5 -30t160.5 -89.5t87 -140.5t27 -190q0 -243 -176 -355l215 -614q-127 -12 -283 -37zM332 705q176 10 176 245q0 117 -42 177t-140 53z" />
    <glyph glyph-name="S.alt" horiz-adv-x="790" 
d="M399 -29q-414 0 -368 492q108 -2 286 4q-23 -272 84 -272q78 0 78 153q0 72 -40.5 128t-153.5 130q-135 89 -196.5 186.5t-61.5 247.5q0 186 101.5 275.5t272.5 89.5q208 0 293 -122.5t58 -367.5q-134 6 -281 0q33 267 -74 267q-80 0 -80 -156q0 -66 39 -123.5
t140 -118.5q84 -51 140 -102.5t85 -106t40 -105.5t11 -116q0 -178 -96.5 -280.5t-276.5 -102.5z" />
    <glyph glyph-name="T.alt" horiz-adv-x="706" 
d="M12 1126q2 77 -2 267q202 -2 686 8q-1 -12 -2 -33.5t-2 -92.5t0 -147q-94 2 -203 0q0 -432 9 -1103q-93 2 -279 -2q4 406 -4 1105z" />
    <glyph glyph-name="U.alt" horiz-adv-x="821" 
d="M414 -29q-210 0 -297.5 189.5t-87.5 597.5q0 344 41 661q86 -8 270 -20q-37 -339 -37 -578q0 -577 109 -577q24 0 40 17t29 65.5t19 145t6 247.5q0 301 -33 700q97 -1 279 15q45 -360 45 -703q0 -404 -88.5 -582t-294.5 -178z" />
    <glyph glyph-name="V.alt" horiz-adv-x="782" 
d="M178 18q-44 383 -87.5 729.5t-64.5 500.5l-22 155l281 -2q42 -605 98 -1155q35 350 62 645.5t37 415.5l10 120l288 -6l-194 -1411q-199 0 -408 8z" />
    <glyph glyph-name="W.alt" horiz-adv-x="1241" 
d="M719 14q-57 599 -96 918q-47 -316 -81 -553t-44 -316l-11 -79q-77 4 -142.5 7t-104 4t-65.5 1.5t-37 -0.5h-11q-28 392 -56 745t-43 511l-14 157l301 6q6 -282 14.5 -563t13.5 -421l5 -140q57 369 94 617t46 311l8 63q80 2 136.5 1t87.5 -3l30 -2q77 -584 145 -993
q14 382 22.5 667t10.5 379l2 94q73 -4 147.5 -6t112.5 -2h39l-119 -1392q-127 -7 -224.5 -10t-131.5 -2z" />
    <glyph glyph-name="X.alt" horiz-adv-x="878" 
d="M330 -10l-326 14q152 469 211 672q-43 180 -190 747q86 1 301 11q38 -226 112 -598q28 171 50 316.5t30 205.5l8 59l316 -8q-109 -427 -174 -709q67 -226 119 -396.5t71 -227.5l19 -58q-107 -6 -189 -12t-110 -9l-29 -3q-24 139 -57 320.5t-41 228.5q-32 -134 -62 -272
t-45 -209z" />
    <glyph glyph-name="Y.alt" horiz-adv-x="837" 
d="M287 -45q6 52 -2 309q-74 352 -281 1141q55 0 301 10q49 -351 123 -758q55 333 121 752q80 -6 285 -6q-111 -438 -271 -1135q-4 -27 6 -309q-59 2 -282 -4z" />
    <glyph glyph-name="Z.alt" horiz-adv-x="684" 
d="M655 14q-182 5 -339.5 8.5t-223.5 3.5l-67 1l2 274q174 409 340 823l-336 -6q1 105 0.5 167t-1.5 87l-1 25l622 8l6 -293q-190 -462 -333 -831l335 -5q-4 -95 -5 -160.5t0 -83.5z" />
    <glyph glyph-name="a.alt" horiz-adv-x="759" 
d="M279 -41q-49 0 -94 15.5t-84 47.5t-62 87.5t-23 128.5q0 166 106 264.5t327 107.5q-1 25 -3 45q-5 92 -18.5 127t-48.5 35q-41 0 -58.5 -42t-15.5 -128q-104 15 -256 21q0 175 83.5 260.5t256.5 85.5q316 0 326 -371q4 -165 4.5 -340t-1.5 -267l-1 -93q-62 -2 -207 -4
q6 75 8 167q-29 -75 -93 -111t-146 -36zM461 371l-2 102q-176 -17 -176 -201q0 -56 21 -87t58 -31q49 0 74 51t25 166z" />
    <glyph glyph-name="b.alt" horiz-adv-x="835" 
d="M55 20q2 433 -4 1418q84 -2 279 -2q-9 -264 -13 -566q72 140 211 140q275 0 275 -508q0 -239 -83.5 -369.5t-225.5 -130.5q-73 0 -135 38.5t-91 113.5l4 -134h-217zM420 170q88 0 88 336q0 315 -92 315q-47 0 -67.5 -76t-20.5 -237q0 -131 10.5 -206.5t30 -103.5
t51.5 -28z" />
    <glyph glyph-name="c.alt" 
d="M412 -29q-187 0 -283 125t-96 402q0 253 95.5 388.5t293.5 135.5q170 0 259 -109t83 -307l-277 -8q6 227 -75 227q-93 0 -93 -336q0 -307 93 -307q81 0 73 238q89 4 279 14q6 -463 -352 -463z" />
    <glyph glyph-name="d.alt" horiz-adv-x="835" 
d="M778 14q-84 2 -223 2q2 52 4 142q-31 -79 -87.5 -122.5t-129.5 -43.5q-309 0 -309 514q0 234 74.5 370t218.5 136q119 0 186 -127q-4 278 -16 545q57 -4 286 2q-1 -69 -2.5 -189.5t-3.5 -505t2 -723.5zM416 180q28 0 46.5 25t30 95t11.5 189q0 322 -92 322
q-84 0 -84 -315q0 -316 88 -316z" />
    <glyph glyph-name="e.alt" horiz-adv-x="798" 
d="M408 -16q-190 0 -282.5 127.5t-92.5 394.5q0 108 21 197t64.5 158t116 107t168.5 38q108 0 182.5 -42.5t114.5 -124t54 -187t6 -242.5q-178 -3 -447 -7q6 -122 29 -172.5t68 -50.5q40 0 59.5 36.5t22.5 127.5q122 -14 274 -22q-14 -150 -106.5 -244t-251.5 -94zM401 823
q-44 0 -64.5 -61.5t-23.5 -198.5q52 0 166 4q1 149 -17.5 202.5t-60.5 53.5z" />
    <glyph glyph-name="f.alt" horiz-adv-x="569" 
d="M553 713q-62 2 -166 4l2 -713q-110 2 -260 -2q-6 343 -6 715h-109q4 76 0 254q43 -4 111 -6v18q2 214 79 306.5t255 92.5q64 0 121 -8q-11 -65 -17 -237q-102 3 -137 -30t-37 -124v-27l170 -2q-6 -91 -6 -241z" />
    <glyph glyph-name="g.alt" horiz-adv-x="749" 
d="M377 -494q-167 0 -265 57t-98 171q0 67 53.5 121t131.5 79q-88 48 -88 150q0 100 94 164q-180 86 -180 377q0 83 21.5 154.5t63.5 128t112 88.5t161 32l39 -2l31 330q80 -18 252 -43q-51 -125 -127 -338q78 -52 115.5 -144t37.5 -206q0 -196 -90.5 -305t-243.5 -109
q-43 0 -63 2q-25 -25 -25 -51t30.5 -41t115.5 -27q177 -22 253 -87t76 -175q0 -145 -118 -235.5t-289 -90.5zM381 383q42 0 63 53t21 176q0 228 -84 228q-46 0 -67 -56t-21 -172q0 -229 88 -229zM526 -217q0 43 -40.5 66t-125.5 32q-94 -54 -94 -121q0 -40 32 -59.5
t87 -19.5q58 0 99.5 30.5t41.5 71.5z" />
    <glyph glyph-name="h.alt" horiz-adv-x="782" 
d="M53 -8q8 676 0 1427q86 -2 264 2q-1 -29 -2 -80.5t-3 -198t-1 -278.5q79 152 224 152q98 0 147.5 -77t54.5 -216q4 -147 5 -325.5t0 -283.5l-1 -106q-94 4 -272 4q4 327 0 652q-2 58 -14.5 81t-44.5 23q-36 0 -59 -41t-23 -113l-2 -620q-89 2 -273 -2z" />
    <glyph glyph-name="i.alt" horiz-adv-x="380" 
d="M59 27q2 221 -6 972q91 0 271 2q-2 -324 8 -972q-113 0 -273 -2zM190 1102q-75 0 -119 45.5t-44 136.5q0 79 44.5 125.5t121.5 46.5q75 0 115 -50t40 -122q0 -87 -43.5 -134.5t-114.5 -47.5z" />
    <glyph glyph-name="j.alt" horiz-adv-x="380" 
d="M193 1096q-76 0 -118 47.5t-42 130.5q0 78 40.5 127t121.5 49q75 0 118 -48.5t43 -121.5q0 -85 -48 -134.5t-115 -49.5zM-150 -422q7 94 9 256q40 -4 57 -4q79 0 112 42t35 130q3 205 3 424.5t-2 391.5l-3 171l265 2q2 -45 4 -127t5.5 -355t-1.5 -546q-3 -189 -99 -289
t-309 -100q-22 0 -76 4z" />
    <glyph glyph-name="k.alt" horiz-adv-x="808" 
d="M512 -16q-54 204 -109 401l-77 -147l4 -232l-277 4q2 462 1.5 778.5t-2.5 481.5l-1 164l275 -2q-3 -540 0 -854q49 136 89.5 251t56.5 162l15 47l295 -37l-188 -383l209 -628z" />
    <glyph glyph-name="l.alt" horiz-adv-x="382" 
d="M328 -4l-273 6q4 402 4.5 756.5t-1.5 507.5l-1 153l273 -6q-4 -461 -4.5 -815.5t0.5 -477.5z" />
    <glyph glyph-name="m.alt" horiz-adv-x="1200" 
d="M57 14q0 397 -6 967q94 -2 225 -2q-4 -57 -4 -137q38 82 101.5 129t144.5 47q85 0 134 -48.5t65 -129.5q35 71 95 112t138 41q202 0 205 -272q3 -154 4 -330.5t1 -276.5l-1 -100q-92 2 -270 0q-2 337 -6 637q-3 109 -56 109q-41 0 -61.5 -41.5t-20.5 -110.5
q-2 -120 -2 -274t1 -248l1 -94q-131 -2 -278 -2q1 46 1.5 116t1.5 264t-1 285q0 117 -57 117q-40 0 -63 -47t-23 -119q-1 -108 0.5 -256t3.5 -242l2 -94q-144 2 -275 0z" />
    <glyph glyph-name="n.alt" horiz-adv-x="780" 
d="M465 8q2 333 2 656q0 51 -12.5 75.5t-42.5 24.5q-40 0 -62 -39.5t-22 -103.5q-2 -69 -2.5 -227.5t0.5 -281.5v-124q-128 2 -275 0q1 46 2 128t3 349t-1 516q92 -2 215 2l-2 -160q33 82 101.5 134.5t150.5 52.5q206 0 215 -281q2 -48 3 -228t1 -335v-156z" />
    <glyph glyph-name="o.alt" horiz-adv-x="819" 
d="M414 1020q178 0 275 -138t97 -397q0 -235 -98.5 -372.5t-277.5 -137.5q-180 0 -278.5 138.5t-98.5 380.5q0 247 102.5 386.5t278.5 139.5zM410 834q-91 0 -91 -342q0 -330 93 -330q88 0 88 319q0 191 -21 272t-69 81z" />
    <glyph glyph-name="p.alt" horiz-adv-x="833" 
d="M51 -412q3 285 3 639.5t-2 566.5l-1 212l221 2q-4 -88 -4 -191q32 93 92.5 146t143.5 53q144 0 220.5 -139.5t76.5 -382.5q0 -252 -75 -376t-208 -124q-64 0 -118 32t-83 89q4 -168 8.5 -299t7.5 -178l3 -48q-100 3 -163.5 2.5t-92.5 -2.5zM418 180q42 0 64.5 71
t23.5 245q0 325 -86 325q-48 0 -70 -75.5t-22 -245.5q0 -126 10 -197t29 -97t51 -26z" />
    <glyph glyph-name="q.alt" horiz-adv-x="837" 
d="M502 -416q8 188 14 525q-54 -117 -188 -117q-138 0 -216.5 123t-78.5 391q0 149 33 263t104.5 183.5t173.5 69.5q76 0 133 -47t88 -125l-8 180q84 -2 141 -2t72 1l14 1q-4 -405 -4 -766t2 -520l2 -158zM418 178q47 0 67.5 78t20.5 256q0 309 -86 309q-94 0 -94 -317
q0 -326 92 -326z" />
    <glyph glyph-name="r.alt" horiz-adv-x="555" 
d="M55 35q2 457 -4 952q47 -4 225 2q-4 -57 -6 -151q35 99 114 162t165 65q-6 -78 -10 -279q-108 -20 -158 -94.5t-55 -208.5q-2 -102 -1 -201.5t3 -171.5l2 -73q-74 2 -275 -2z" />
    <glyph glyph-name="s.alt" horiz-adv-x="714" 
d="M369 -20q-171 0 -262 92t-82 270q98 4 260 8q-6 -92 12.5 -129t71.5 -37q73 0 73 88q0 40 -34 70.5t-144 71.5q-131 50 -185 123.5t-54 181.5q0 134 90.5 215.5t244.5 81.5q164 0 247.5 -100t74.5 -271q-105 0 -248 -8q8 90 -9 131t-67 41q-38 0 -58.5 -27.5t-20.5 -66.5
q0 -50 40.5 -85.5t129.5 -66.5q75 -26 125 -58t76.5 -70t37 -76t10.5 -87q0 -137 -93 -214.5t-236 -77.5z" />
    <glyph glyph-name="t.alt" horiz-adv-x="581" 
d="M12 735q1 90 0.5 143.5t-1.5 75.5l-1 23q35 -2 101 -2l4 244l264 -2q-4 -101 -6 -246h170l-2 -238l-168 2q0 -254 4 -383q1 -56 27 -81t79 -25q27 0 62 6l16 -252q-91 -18 -172 -18q-133 0 -205 68.5t-73 221.5q-4 330 -2 463h-97z" />
    <glyph glyph-name="u.alt" 
d="M301 8q-90 0 -144.5 46.5t-84 165.5t-29.5 325q0 229 23 459q72 -13 256 -19q-13 -133 -13 -346q0 -172 11 -261t27 -111.5t46 -22.5q32 0 53 46.5t21 119.5q1 149 -1.5 298t-5.5 224l-3 74q79 -5 276 -5q-6 -383 0 -1003q-8 0 -23.5 0.5t-72 1.5t-125.5 0q2 74 4 176
q-30 -80 -88.5 -124t-126.5 -44z" />
    <glyph glyph-name="v.alt" horiz-adv-x="737" 
d="M571 47l-407 -8q-46 291 -87 533t-59 338l-18 96q71 0 141.5 2t104.5 4l35 2q24 -253 44 -444.5t29 -256.5l8 -65q36 268 60.5 465.5t31.5 260.5l7 64q76 -4 143.5 -6t97.5 -2h29z" />
    <glyph glyph-name="w.alt" horiz-adv-x="1169" 
d="M668 29q-24 209 -45 372.5t-30 222.5l-9 58q-29 -211 -50 -382t-28 -236l-6 -66q-111 4 -200.5 5.5t-123.5 0.5h-33q-35 276 -69 531.5t-51 372.5l-17 118l277 6q16 -260 31 -459t22 -268l6 -69q36 245 61.5 432t32.5 252l8 65q105 1 167.5 0.5t88.5 -1.5l25 -1
q37 -260 64.5 -436.5t36.5 -223.5l8 -47q20 280 31 472t13 244l1 52l284 -6q-44 -320 -76 -572.5t-43 -344.5l-10 -92q-113 2 -204.5 2t-126.5 -1z" />
    <glyph glyph-name="x.alt" horiz-adv-x="811" 
d="M791 1016l-185 -506l193 -524q-93 3 -156.5 2.5t-96.5 -2.5l-32 -2l-111 376q-29 -96 -53 -186.5t-34 -133.5l-9 -42q-86 3 -161 3t-108 -1l-32 -2q136 326 195 502q-52 151 -97 277t-64 177l-20 50q89 -3 160 -3t97 1l26 2q33 -128 98 -363l109 377q90 -3 160.5 -3.5
t95.5 0.5z" />
    <glyph glyph-name="y.alt" horiz-adv-x="790" 
d="M471 -492l-268 35q19 100 35 192t22 135l6 42q-73 316 -138.5 589t-94.5 388l-29 115q82 0 156.5 3t108.5 6l34 3q22 -193 46.5 -376.5t38.5 -271.5l13 -87q31 232 52 419.5t27 259.5l5 72l303 -14q-117 -536 -196.5 -913.5t-99.5 -486.5z" />
    <glyph glyph-name="z.alt" horiz-adv-x="645" 
d="M614 23q-118 4 -222 7t-168 4t-111 1.5t-67 0.5l-19 -1l4 198q100 182 168.5 309t86.5 163l19 36l-260 2q-1 82 -3 145.5t-4 85.5l-1 23q176 -1 318.5 0t197.5 3l55 1q0 -80 1.5 -134.5t2.5 -69.5l2 -15q-98 -164 -170.5 -294.5t-95.5 -179.5l-24 -48q99 -3 172.5 -3.5
t97.5 0.5l24 1q-4 -91 -5 -150t0 -72z" />
    <glyph glyph-name="dotlessi.alt" horiz-adv-x="380" 
d="M59 27q2 221 -6 972q91 0 271 2q-2 -324 8 -972q-113 0 -273 -2z" />
    <glyph glyph-name="Aacute.alt" horiz-adv-x="823" 
d="M432 1481q-39 31 -72 54.5t-46 31.5l-13 8q58 88 107.5 164.5t69.5 109.5l20 33q53 -41 95 -72t57 -42l16 -11q-76 -88 -134.5 -157t-79.5 -94zM4 0q86 537 207 1407q100 4 198.5 5t146.5 0l48 -1q90 -648 217 -1401q-111 4 -291 -2l-20 223q-18 0 -87 1t-122 1l-20 -237
q-10 1 -29.5 2t-91.5 2t-156 0zM408 1184q-61 -498 -84 -729h163q-27 266 -79 729z" />
    <glyph glyph-name="Abreve.alt" horiz-adv-x="823" 
d="M4 0q86 537 207 1407q100 4 198.5 5t146.5 0l48 -1q90 -648 217 -1401q-111 4 -291 -2l-20 223q-18 0 -87 1t-122 1l-20 -237q-10 1 -29.5 2t-91.5 2t-156 0zM408 1184q-61 -498 -84 -729h163q-27 266 -79 729zM406 1501q-71 0 -123 22t-79 59.5t-38.5 81.5t-7.5 93
q53 -2 174 6q-3 -47 17.5 -76.5t62.5 -29.5q38 0 59.5 30.5t13.5 94.5q52 -2 177 2q7 -72 -11.5 -127.5t-55.5 -89t-85 -50t-104 -16.5z" />
    <glyph glyph-name="Acircumflex.alt" horiz-adv-x="823" 
d="M242 1473q-35 34 -123 104q65 73 194 231q46 1 179 15q57 -72 213 -226q-43 -38 -121 -122q-55 67 -178 180q-55 -57 -164 -182zM4 0q86 537 207 1407q100 4 198.5 5t146.5 0l48 -1q90 -648 217 -1401q-111 4 -291 -2l-20 223q-18 0 -87 1t-122 1l-20 -237q-10 1 -29.5 2
t-91.5 2t-156 0zM408 1184q-61 -498 -84 -729h163q-27 266 -79 729z" />
    <glyph glyph-name="Adieresis.alt" horiz-adv-x="823" 
d="M260 1522q-58 0 -90.5 39.5t-32.5 95.5q0 60 34.5 97.5t88.5 37.5q60 0 90.5 -38.5t30.5 -96.5q0 -68 -34 -101.5t-87 -33.5zM567 1530q-54 0 -86 37t-32 100q0 55 32 91t88 36t85.5 -38t29.5 -95q0 -63 -31.5 -97t-85.5 -34zM4 0q86 537 207 1407q100 4 198.5 5t146.5 0
l48 -1q90 -648 217 -1401q-111 4 -291 -2l-20 223q-18 0 -87 1t-122 1l-20 -237q-10 1 -29.5 2t-91.5 2t-156 0zM408 1184q-61 -498 -84 -729h163q-27 266 -79 729z" />
    <glyph glyph-name="Agrave.alt" horiz-adv-x="823" 
d="M4 0q86 537 207 1407q100 4 198.5 5t146.5 0l48 -1q90 -648 217 -1401q-111 4 -291 -2l-20 223q-18 0 -87 1t-122 1l-20 -237q-10 1 -29.5 2t-91.5 2t-156 0zM408 1184q-61 -498 -84 -729h163q-27 266 -79 729zM416 1485q-62 79 -234 276q49 33 168 125q66 -110 197 -307
q-43 -24 -131 -94z" />
    <glyph glyph-name="Amacron.alt" horiz-adv-x="823" 
d="M4 0q86 537 207 1407q100 4 198.5 5t146.5 0l48 -1q90 -648 217 -1401q-111 4 -291 -2l-20 223q-18 0 -87 1t-122 1l-20 -237q-10 1 -29.5 2t-91.5 2t-156 0zM408 1184q-61 -498 -84 -729h163q-27 266 -79 729zM178 1556q2 54 -2 181q126 -2 471 4q-2 -45 -2 -180
q-136 1 -467 -5z" />
    <glyph glyph-name="Aogonek.alt" horiz-adv-x="823" 
d="M668 -389q-133 -12 -209 39.5t-76 156.5q0 131 145 211l-18 213q-18 0 -87 1t-122 1l-20 -237q-10 1 -29.5 2t-91.5 2t-156 0q86 537 207 1407q100 4 198.5 5t146.5 0l48 -1q90 -648 217 -1401q-70 2 -168 0q-108 -66 -108 -139q0 -93 135 -90q-6 -45 -12 -170zM408 1184
q-61 -498 -84 -729h163q-27 266 -79 729z" />
    <glyph glyph-name="Aring.alt" horiz-adv-x="823" 
d="M410 1497q-92 0 -141.5 56t-49.5 143q0 86 54 137t139 51q91 0 142.5 -54.5t51.5 -133.5q0 -103 -56 -151t-140 -48zM414 1602q69 0 69 94q0 38 -18.5 65t-50.5 27q-34 0 -51 -26.5t-17 -67.5t18.5 -66.5t49.5 -25.5zM4 0q86 537 207 1407q100 4 198.5 5t146.5 0l48 -1
q90 -648 217 -1401q-111 4 -291 -2l-20 223q-18 0 -87 1t-122 1l-20 -237q-10 1 -29.5 2t-91.5 2t-156 0zM408 1184q-61 -498 -84 -729h163q-27 266 -79 729z" />
    <glyph glyph-name="Atilde.alt" horiz-adv-x="823" 
d="M4 0q86 537 207 1407q100 4 198.5 5t146.5 0l48 -1q90 -648 217 -1401q-111 4 -291 -2l-20 223q-18 0 -87 1t-122 1l-20 -237q-10 1 -29.5 2t-91.5 2t-156 0zM408 1184q-61 -498 -84 -729h163q-27 266 -79 729zM279 1516q-48 -1 -152 -7q-7 131 39.5 208t122.5 77
q43 0 86 -25.5t77 -51t56 -25.5q29 0 39 22t4 72q33 -2 139 10q20 -137 -20.5 -211t-132.5 -74q-39 0 -80 23.5t-75 46.5t-58 23q-51 0 -45 -88z" />
    <glyph glyph-name="Cacute.alt" horiz-adv-x="835" 
d="M432 -20q-75 0 -132.5 19.5t-109 69.5t-85 131.5t-53 210t-19.5 300.5q0 380 94.5 556.5t314.5 176.5q190 0 280.5 -144t84.5 -419q-81 0 -155 -1.5t-108 -3.5l-34 -2q1 188 -18.5 261t-63.5 73q-53 0 -73 -113t-17 -384q0 -276 20.5 -384t73.5 -108q32 0 49 24t26.5 105
t4.5 230l301 12q7 -329 -84.5 -470.5t-296.5 -139.5zM444 1511q-39 31 -72 55t-46 32l-13 8q58 88 107.5 164.5t69.5 109.5l20 33q53 -41 95 -72t57 -42l16 -11q-76 -88 -134.5 -157t-79.5 -95z" />
    <glyph glyph-name="Ccaron.alt" horiz-adv-x="835" 
d="M346 1501q-57 72 -213 228q43 36 121 120q55 -67 178 -178q55 57 164 180q35 -34 123 -102q-66 -73 -195 -233q-45 1 -178 -15zM432 -20q-75 0 -132.5 19.5t-109 69.5t-85 131.5t-53 210t-19.5 300.5q0 380 94.5 556.5t314.5 176.5q190 0 280.5 -144t84.5 -419
q-81 0 -155 -1.5t-108 -3.5l-34 -2q1 188 -18.5 261t-63.5 73q-53 0 -73 -113t-17 -384q0 -276 20.5 -384t73.5 -108q32 0 49 24t26.5 105t4.5 230l301 12q7 -329 -84.5 -470.5t-296.5 -139.5z" />
    <glyph glyph-name="Ccedilla.alt" horiz-adv-x="835" 
d="M813 590q6 -308 -73 -450.5t-255 -157.5l-6 -66q91 -3 142 -42t51 -101q0 -81 -67.5 -128.5t-174.5 -47.5q-98 0 -170 34q11 51 23 123q70 -37 155 -37q33 0 55.5 11.5t22.5 33.5q0 59 -172 45q19 71 35 177q-82 8 -142.5 47t-107.5 120.5t-71.5 221.5t-24.5 338
q0 380 94.5 556.5t314.5 176.5q190 0 280.5 -144t84.5 -419q-81 0 -155 -1.5t-108 -3.5l-34 -2q1 188 -18.5 261t-63.5 73q-53 0 -73 -113t-17 -384q0 -276 20.5 -384t73.5 -108q32 0 49 24t26.5 105t4.5 230z" />
    <glyph glyph-name="Ccircumflex.alt" horiz-adv-x="835" 
d="M256 1495q-35 34 -123 104q66 74 195 232q45 0 178 14q57 -71 213 -225q-43 -39 -121 -123q-55 67 -178 180q-55 -57 -164 -182zM432 -20q-75 0 -132.5 19.5t-109 69.5t-85 131.5t-53 210t-19.5 300.5q0 380 94.5 556.5t314.5 176.5q190 0 280.5 -144t84.5 -419
q-81 0 -155 -1.5t-108 -3.5l-34 -2q1 188 -18.5 261t-63.5 73q-53 0 -73 -113t-17 -384q0 -276 20.5 -384t73.5 -108q32 0 49 24t26.5 105t4.5 230l301 12q7 -329 -84.5 -470.5t-296.5 -139.5z" />
    <glyph glyph-name="Dcaron.alt" horiz-adv-x="839" 
d="M283 1477q-57 71 -213 227q42 37 120 121q56 -67 179 -178q54 57 163 180q35 -35 123 -103q-65 -73 -194 -233q-45 2 -178 -14zM338 213q29 -1 49 5t41 23t34.5 50.5t24.5 86.5t16 133t5 187q0 265 -44.5 374t-137.5 104q1 -220 4 -461t6 -371zM51 4q2 324 2 671t-1 533
l-1 185q101 14 199 14q155 0 262.5 -44.5t172.5 -137.5t93.5 -225t28.5 -318q0 -252 -64.5 -405t-188.5 -219t-321 -66q-83 0 -182 12z" />
    <glyph glyph-name="Eacute.alt" horiz-adv-x="657" 
d="M362 1491q-39 31 -72 54.5t-46 31.5l-13 8q58 88 107.5 164.5t69.5 109.5l20 33q53 -41 95 -72t57 -42l16 -11q-76 -88 -134.5 -157t-79.5 -94zM68 25q-5 553 -17 1376q167 0 574 12q-2 -112 4 -272q-147 -3 -301 -11q0 -122 2 -337q113 0 258 4q-2 -102 0 -254
q-109 2 -254 0q5 -186 8 -269q115 -2 293 0q-4 -88 -4 -258q-257 5 -563 9z" />
    <glyph glyph-name="Ecaron.alt" horiz-adv-x="657" 
d="M264 1481q-57 71 -213 227q43 37 121 121q55 -67 178 -178q55 57 164 180q35 -34 123 -102q-66 -74 -195 -234q-45 2 -178 -14zM68 25q-5 553 -17 1376q167 0 574 12q-2 -112 4 -272q-147 -3 -301 -11q0 -122 2 -337q113 0 258 4q-2 -102 0 -254q-109 2 -254 0
q5 -186 8 -269q115 -2 293 0q-4 -88 -4 -258q-257 5 -563 9z" />
    <glyph glyph-name="Ecircumflex.alt" horiz-adv-x="657" 
d="M174 1481q-35 34 -123 104q66 74 195 232q45 0 178 14q57 -71 213 -225q-43 -39 -121 -123q-55 67 -178 180q-55 -57 -164 -182zM68 25q-5 553 -17 1376q167 0 574 12q-2 -112 4 -272q-147 -3 -301 -11q0 -122 2 -337q113 0 258 4q-2 -102 0 -254q-109 2 -254 0
q5 -186 8 -269q115 -2 293 0q-4 -88 -4 -258q-257 5 -563 9z" />
    <glyph glyph-name="Edieresis.alt" horiz-adv-x="657" 
d="M193 1528q-58 0 -90.5 39.5t-32.5 95.5q0 60 34.5 97.5t88.5 37.5q60 0 90 -38.5t30 -96.5q0 -68 -33.5 -101.5t-86.5 -33.5zM500 1536q-54 0 -86.5 37t-32.5 100q0 55 32 91t89 36q56 0 85 -37.5t29 -95.5q0 -63 -31 -97t-85 -34zM68 25q-5 553 -17 1376q167 0 574 12
q-2 -112 4 -272q-147 -3 -301 -11q0 -122 2 -337q113 0 258 4q-2 -102 0 -254q-109 2 -254 0q5 -186 8 -269q115 -2 293 0q-4 -88 -4 -258q-257 5 -563 9z" />
    <glyph glyph-name="Edotaccent.alt" horiz-adv-x="657" 
d="M344 1522q-73 0 -112 46t-39 109t40 106.5t111 43.5q72 0 112 -44.5t40 -105.5q0 -75 -43 -115t-109 -40zM68 25q-5 553 -17 1376q167 0 574 12q-2 -112 4 -272q-147 -3 -301 -11q0 -122 2 -337q113 0 258 4q-2 -102 0 -254q-109 2 -254 0q5 -186 8 -269q115 -2 293 0
q-4 -88 -4 -258q-257 5 -563 9z" />
    <glyph glyph-name="Egrave.alt" horiz-adv-x="657" 
d="M346 1491q-61 79 -233 276q49 33 168 125q65 -110 196 -307q-43 -24 -131 -94zM68 25q-5 553 -17 1376q167 0 574 12q-2 -112 4 -272q-147 -3 -301 -11q0 -122 2 -337q113 0 258 4q-2 -102 0 -254q-109 2 -254 0q5 -186 8 -269q115 -2 293 0q-4 -88 -4 -258
q-257 5 -563 9z" />
    <glyph glyph-name="Emacron.alt" horiz-adv-x="657" 
d="M111 1559q2 53 -2 180q126 -2 471 4q-2 -45 -2 -180q-136 2 -467 -4zM68 25q-5 553 -17 1376q167 0 574 12q-2 -112 4 -272q-147 -3 -301 -11q0 -122 2 -337q113 0 258 4q-2 -102 0 -254q-109 2 -254 0q5 -186 8 -269q115 -2 293 0q-4 -88 -4 -258q-257 5 -563 9z" />
    <glyph glyph-name="Eogonek.alt" horiz-adv-x="657" 
d="M635 -381q-131 -11 -209 39.5t-78 153.5q0 135 150 206q-7 0 -206.5 3.5t-223.5 3.5q-5 553 -17 1376q167 0 574 12q-2 -112 4 -272q-147 -3 -301 -11q0 -122 2 -337q113 0 258 4q-2 -102 0 -254q-109 2 -254 0q5 -186 8 -269q115 -2 293 0q-4 -88 -4 -258
q-121 -65 -121 -137q0 -91 137 -88q-8 -47 -12 -172z" />
    <glyph glyph-name="Gbreve.alt" horiz-adv-x="839" 
d="M428 -29q-99 0 -169.5 35.5t-122.5 118t-77.5 224.5t-25.5 347q0 354 93 531.5t304 177.5q131 0 216.5 -70.5t119.5 -189.5t27 -281q-166 0 -283 -8q3 166 -17.5 242t-66.5 76q-49 0 -73.5 -111t-24.5 -371q1 -202 13 -312t35 -151t64 -41q30 0 48 21.5t28 84t6 169.5
q-51 -2 -119 -6q0 76 -4 219q230 -2 406 2q11 -261 -26 -416.5t-122 -223t-229 -67.5zM418 1479q-71 0 -123 22t-79 59.5t-38.5 81.5t-7.5 93q53 -2 174 6q-3 -47 18 -77t62 -30q38 0 60 30.5t14 94.5q51 -2 176 2q7 -72 -11.5 -127.5t-55.5 -88.5t-85 -49.5t-104 -16.5z
" />
    <glyph glyph-name="Gcircumflex.alt" horiz-adv-x="839" 
d="M252 1468q-35 35 -123 105q66 73 195 231q45 1 178 15q57 -72 213 -226q-43 -39 -121 -123q-55 68 -178 181q-55 -58 -164 -183zM428 -29q-99 0 -169.5 35.5t-122.5 118t-77.5 224.5t-25.5 347q0 354 93 531.5t304 177.5q131 0 216.5 -70.5t119.5 -189.5t27 -281
q-166 0 -283 -8q3 166 -17.5 242t-66.5 76q-49 0 -73.5 -111t-24.5 -371q1 -202 13 -312t35 -151t64 -41q30 0 48 21.5t28 84t6 169.5q-51 -2 -119 -6q0 76 -4 219q230 -2 406 2q11 -261 -26 -416.5t-122 -223t-229 -67.5z" />
    <glyph glyph-name="Gcommaaccent.alt" horiz-adv-x="839" 
d="M553 -201q0 -128 -176 -268l-88 72q55 50 82 102q-34 11 -53 38t-19 67q0 48 36 79t93 31q56 0 90.5 -32.5t34.5 -88.5zM428 -29q-99 0 -169.5 35.5t-122.5 118t-77.5 224.5t-25.5 347q0 354 93 531.5t304 177.5q131 0 216.5 -70.5t119.5 -189.5t27 -281q-166 0 -283 -8
q3 166 -17.5 242t-66.5 76q-49 0 -73.5 -111t-24.5 -371q1 -202 13 -312t35 -151t64 -41q30 0 48 21.5t28 84t6 169.5q-51 -2 -119 -6q0 76 -4 219q230 -2 406 2q11 -261 -26 -416.5t-122 -223t-229 -67.5z" />
    <glyph glyph-name="Hcircumflex.alt" horiz-adv-x="821" 
d="M240 1497q-35 35 -123 105q65 73 194 231q45 0 178 14q57 -71 213 -225q-42 -39 -120 -123q-56 67 -179 180q-54 -57 -163 -182zM492 10v432q-82 0 -160 -2l6 -452q-119 4 -279 -2q0 633 -8 1448q68 -2 273 2q2 -321 6 -756q5 0 57.5 -1t101.5 -1q0 117 -2.5 379.5
t-3.5 357.5q101 0 283 2q-2 -573 6 -1409q-12 1 -34.5 1.5t-97 1.5t-148.5 -1z" />
    <glyph glyph-name="Iacute.alt" horiz-adv-x="423" 
d="M233 1466q-39 31 -72 55t-46 32l-13 8q58 88 107.5 164.5t69.5 109.5l20 33q53 -41 95 -72t58 -42l15 -11q-76 -88 -134.5 -157t-78.5 -94zM76 31q2 552 -8 1347q96 0 278 2q4 -611 10 -1349q-98 2 -280 0z" />
    <glyph glyph-name="Icircumflex.alt" horiz-adv-x="423" 
d="M43 1456q-35 35 -123 105q66 73 195 231q45 0 178 14q57 -71 213 -225q-43 -39 -121 -123q-55 67 -178 180q-55 -57 -164 -182zM76 31q2 552 -8 1347q96 0 278 2q4 -611 10 -1349q-98 2 -280 0z" />
    <glyph glyph-name="Idieresis.alt" horiz-adv-x="423" 
d="M61 1509q-58 0 -90 39.5t-32 96.5q0 60 34 97.5t88 37.5q60 0 90.5 -38.5t30.5 -96.5q0 -68 -34 -102t-87 -34zM369 1518q-54 0 -86.5 37t-32.5 100q0 55 32 91t89 36q56 0 85 -37.5t29 -95.5q0 -63 -31 -97t-85 -34zM76 31q2 552 -8 1347q96 0 278 2q4 -611 10 -1349
q-98 2 -280 0z" />
    <glyph glyph-name="Idotaccent.alt" horiz-adv-x="423" 
d="M76 31q2 552 -8 1347q96 0 278 2q4 -611 10 -1349q-98 2 -280 0zM213 1503q-73 0 -112.5 46.5t-39.5 109.5t40.5 106t111.5 43q72 0 112 -44.5t40 -104.5q0 -75 -43 -115.5t-109 -40.5z" />
    <glyph glyph-name="Igrave.alt" horiz-adv-x="423" 
d="M76 31q2 552 -8 1347q96 0 278 2q4 -611 10 -1349q-98 2 -280 0zM215 1466q-61 80 -233 277q49 33 168 125q65 -110 196 -307q-43 -25 -131 -95z" />
    <glyph glyph-name="Imacron.alt" horiz-adv-x="423" 
d="M76 31q2 552 -8 1347q96 0 278 2q4 -611 10 -1349q-98 2 -280 0zM-20 1522q1 53 -3 180q127 -2 472 4q-3 -45 -3 -180q-135 2 -466 -4z" />
    <glyph glyph-name="Iogonek.alt" horiz-adv-x="423" 
d="M309 -365q-134 -12 -210 40t-76 157q0 119 127 199h-74q2 552 -8 1347q96 0 278 2q4 -611 10 -1349h-69q-103 -66 -103 -135q0 -94 138 -91q-9 -47 -13 -170z" />
    <glyph glyph-name="Jcircumflex.alt" horiz-adv-x="741" 
d="M356 1468q-35 35 -123 105q66 73 195 231q45 1 178 15q57 -72 213 -226q-43 -39 -121 -123q-55 68 -178 181q-55 -58 -164 -183zM356 -2q-340 0 -340 434q0 100 25 246q80 -6 250 -14q-17 -102 -17 -187q0 -129 19 -178t59 -49q30 0 46.5 27t28 127.5t11.5 291.5
q0 190 -10.5 333.5t-38.5 365.5q99 8 273 24q53 -424 53 -733q0 -159 -16 -277.5t-45 -196.5t-74 -126t-99 -68t-125 -20z" />
    <glyph glyph-name="Kcommaaccent.alt" horiz-adv-x="833" 
d="M565 -188q0 -129 -176 -269l-88 72q55 50 82 102q-34 11 -53 38t-19 67q0 48 36 79t93 31q56 0 90.5 -32t34.5 -88zM543 -33q-65 340 -111 531q-79 -205 -100 -269l4 -223q-100 1 -163.5 0.5t-92.5 -1.5l-29 -1q2 353 2 695.5t-1 508.5l-1 166l283 -2q-4 -295 -4 -735
l219 786q81 -4 152 -6.5t102 -2.5l31 -1l-207 -647q53 -207 104 -399t75 -281l25 -88q-76 -5 -148 -13t-106 -13z" />
    <glyph glyph-name="Lacute.alt" horiz-adv-x="624" 
d="M215 1446q-39 31 -72 54.5t-46 31.5l-13 8q58 88 107.5 164.5t69.5 109.5l20 33q53 -41 95 -72t58 -42l15 -11q-76 -88 -134.5 -157t-78.5 -94zM63 33q-2 522 -12 1356q91 -2 279 0q-4 -246 8 -1108l287 -2l-2 -256q-149 4 -289 6.5t-206 2.5z" />
    <glyph glyph-name="Lcaron.alt" horiz-adv-x="624" 
d="M672 1352q0 -129 -176 -269l-88 72q53 49 81 102q-71 22 -71 105q0 48 36 79.5t93 31.5q56 0 90.5 -32.5t34.5 -88.5zM63 33q-2 522 -12 1356q91 -2 279 0q-4 -246 8 -1108l287 -2l-2 -256q-149 4 -289 6.5t-206 2.5z" />
    <glyph glyph-name="Lcommaaccent.alt" horiz-adv-x="624" 
d="M467 -166q0 -128 -176 -268l-88 72q55 50 82 102q-72 22 -72 104q0 48 36 79.5t93 31.5q56 0 90.5 -32.5t34.5 -88.5zM63 33q-2 522 -12 1356q91 -2 279 0q-4 -246 8 -1108l287 -2l-2 -256q-149 4 -289 6.5t-206 2.5z" />
    <glyph glyph-name="Nacute.alt" horiz-adv-x="874" 
d="M57 -14q6 602 -6 1431q105 -4 277 0q100 -380 258 -858q-12 364 -47 873q11 -1 31 -2t87 -2.5t138 -0.5q8 -491 28 -1402q-92 -3 -268 -19q-98 340 -264 871q10 -536 31 -897q-111 6 -265 6zM459 1487q-39 31 -72 54.5t-46 31.5l-13 8q58 88 107 164.5t69 109.5l20 33
q53 -41 95 -72t57 -42l16 -11q-76 -88 -134.5 -157t-78.5 -94z" />
    <glyph glyph-name="Ncaron.alt" horiz-adv-x="874" 
d="M57 -14q6 602 -6 1431q105 -4 277 0q100 -380 258 -858q-12 364 -47 873q11 -1 31 -2t87 -2.5t138 -0.5q8 -491 28 -1402q-92 -3 -268 -19q-98 340 -264 871q10 -536 31 -897q-111 6 -265 6zM356 1487q-57 71 -213 227q43 37 121 121q55 -67 178 -178q55 57 164 180
q35 -34 123 -102q-65 -74 -194 -234q-46 2 -179 -14z" />
    <glyph glyph-name="Ncommaaccent.alt" horiz-adv-x="874" 
d="M57 -14q6 602 -6 1431q105 -4 277 0q100 -380 258 -858q-12 364 -47 873q11 -1 31 -2t87 -2.5t138 -0.5q8 -491 28 -1402q-92 -3 -268 -19q-98 340 -264 871q10 -536 31 -897q-111 6 -265 6zM563 -176q0 -128 -176 -268l-88 71q54 49 82 103q-72 22 -72 104q0 48 36 79.5
t93 31.5q56 0 90.5 -32.5t34.5 -88.5z" />
    <glyph glyph-name="Ntilde.alt" horiz-adv-x="874" 
d="M57 -14q6 602 -6 1431q105 -4 277 0q100 -380 258 -858q-12 364 -47 873q11 -1 31 -2t87 -2.5t138 -0.5q8 -491 28 -1402q-92 -3 -268 -19q-98 340 -264 871q10 -536 31 -897q-111 6 -265 6zM303 1528q-47 0 -151 -6q-7 131 39 207.5t122 76.5q43 0 86 -25.5t77 -51
t56 -25.5q29 0 39 22t4 72q34 -2 140 10q20 -136 -21 -210t-133 -74q-39 0 -80 23t-75 46t-58 23q-51 0 -45 -88z" />
    <glyph glyph-name="Oacute.alt" horiz-adv-x="862" 
d="M451 1491q-39 31 -72 54.5t-47 31.5l-13 8q58 88 107.5 164.5t69.5 109.5l20 33q53 -41 95 -72t57 -42l16 -11q-76 -88 -134.5 -157t-78.5 -94zM432 1436q213 0 304 -171.5t93 -549.5q0 -160 -17 -281.5t-49.5 -205t-81.5 -136.5t-110 -76.5t-139 -23.5
q-219 0 -309 167.5t-90 553.5q2 386 93 554.5t306 168.5zM428 1212q-35 0 -54 -41t-28.5 -153.5t-9.5 -323.5q0 -152 6.5 -250.5t20 -148.5t29.5 -68t40 -18t40 17t29 66.5t19 147.5t6 252q0 211 -11 325.5t-31 154.5t-56 40z" />
    <glyph glyph-name="Ocircumflex.alt" horiz-adv-x="862" 
d="M260 1477q-35 34 -123 104q66 73 195 231q45 1 178 15q57 -71 213 -225q-43 -39 -121 -123q-55 67 -178 180q-55 -57 -164 -182zM432 1436q213 0 304 -171.5t93 -549.5q0 -160 -17 -281.5t-49.5 -205t-81.5 -136.5t-110 -76.5t-139 -23.5q-219 0 -309 167.5t-90 553.5
q2 386 93 554.5t306 168.5zM428 1212q-35 0 -54 -41t-28.5 -153.5t-9.5 -323.5q0 -152 6.5 -250.5t20 -148.5t29.5 -68t40 -18t40 17t29 66.5t19 147.5t6 252q0 211 -11 325.5t-31 154.5t-56 40z" />
    <glyph glyph-name="Odieresis.alt" horiz-adv-x="862" 
d="M279 1528q-58 0 -90.5 39.5t-32.5 95.5q0 60 34.5 97.5t88.5 37.5q60 0 90 -38.5t30 -96.5q0 -68 -33.5 -101.5t-86.5 -33.5zM586 1536q-54 0 -86.5 37t-32.5 100q0 55 32 91t89 36q56 0 85 -37.5t29 -95.5q0 -63 -31 -97t-85 -34zM432 1436q213 0 304 -171.5t93 -549.5
q0 -160 -17 -281.5t-49.5 -205t-81.5 -136.5t-110 -76.5t-139 -23.5q-219 0 -309 167.5t-90 553.5q2 386 93 554.5t306 168.5zM428 1212q-35 0 -54 -41t-28.5 -153.5t-9.5 -323.5q0 -152 6.5 -250.5t20 -148.5t29.5 -68t40 -18t40 17t29 66.5t19 147.5t6 252
q0 211 -11 325.5t-31 154.5t-56 40z" />
    <glyph glyph-name="Ograve.alt" horiz-adv-x="862" 
d="M432 1436q213 0 304 -171.5t93 -549.5q0 -160 -17 -281.5t-49.5 -205t-81.5 -136.5t-110 -76.5t-139 -23.5q-219 0 -309 167.5t-90 553.5q2 386 93 554.5t306 168.5zM428 1212q-35 0 -54 -41t-28.5 -153.5t-9.5 -323.5q0 -152 6.5 -250.5t20 -148.5t29.5 -68t40 -18
t40 17t29 66.5t19 147.5t6 252q0 211 -11 325.5t-31 154.5t-56 40zM434 1491q-61 79 -233 276q49 33 168 125q65 -110 196 -307q-43 -24 -131 -94z" />
    <glyph glyph-name="Ohungarumlaut.alt" horiz-adv-x="862" 
d="M432 1436q213 0 304 -171.5t93 -549.5q0 -160 -17 -281.5t-49.5 -205t-81.5 -136.5t-110 -76.5t-139 -23.5q-219 0 -309 167.5t-90 553.5q2 386 93 554.5t306 168.5zM428 1212q-35 0 -54 -41t-28.5 -153.5t-9.5 -323.5q0 -152 6.5 -250.5t20 -148.5t29.5 -68t40 -18
t40 17t29 66.5t19 147.5t6 252q0 211 -11 325.5t-31 154.5t-56 40zM561 1483q-42 27 -75 47t-46 26l-12 7q53 88 99 166.5t65 113.5l20 35q56 -36 96 -61t52 -32l12 -7q-69 -94 -122 -167.5t-71 -100.5zM309 1489q-42 27 -75 46t-46 25l-12 5q51 92 93 171.5t59 112.5l16 33
q56 -36 96.5 -60.5t53.5 -31.5l12 -6z" />
    <glyph glyph-name="Omacron.alt" horiz-adv-x="862" 
d="M197 1561q2 53 -2 180q126 -2 471 4q-2 -45 -2 -180q-136 2 -467 -4zM432 1436q213 0 304 -171.5t93 -549.5q0 -160 -17 -281.5t-49.5 -205t-81.5 -136.5t-110 -76.5t-139 -23.5q-219 0 -309 167.5t-90 553.5q2 386 93 554.5t306 168.5zM428 1212q-35 0 -54 -41
t-28.5 -153.5t-9.5 -323.5q0 -152 6.5 -250.5t20 -148.5t29.5 -68t40 -18t40 17t29 66.5t19 147.5t6 252q0 211 -11 325.5t-31 154.5t-56 40z" />
    <glyph glyph-name="Otilde.alt" horiz-adv-x="862" 
d="M432 1436q213 0 304 -171.5t93 -549.5q0 -160 -17 -281.5t-49.5 -205t-81.5 -136.5t-110 -76.5t-139 -23.5q-219 0 -309 167.5t-90 553.5q2 386 93 554.5t306 168.5zM428 1212q-35 0 -54 -41t-28.5 -153.5t-9.5 -323.5q0 -152 6.5 -250.5t20 -148.5t29.5 -68t40 -18
t40 17t29 66.5t19 147.5t6 252q0 211 -11 325.5t-31 154.5t-56 40zM297 1516q-48 -1 -152 -7q-7 131 39.5 208t122.5 77q43 0 86 -25.5t77 -51t56 -25.5q29 0 39 22t4 72q34 -2 140 10q20 -137 -21 -211t-133 -74q-39 0 -80 23.5t-75 46.5t-58 23q-51 0 -45 -88z" />
    <glyph glyph-name="Racute.alt" horiz-adv-x="823" 
d="M408 1473q-39 31 -72 54.5t-46 31.5l-14 8q58 88 107.5 164.5t69.5 109.5l20 33q53 -41 95 -72t58 -42l15 -11q-76 -88 -134.5 -157t-78.5 -94zM555 -43q-66 230 -166 569q-37 -6 -57 -6q0 -36 8 -520q-123 2 -287 -2q1 60 2 170.5t2 481t-2 745.5q126 18 228 18
q141 0 241.5 -30t160.5 -89.5t87 -140.5t27 -190q0 -243 -176 -355l215 -614q-127 -12 -283 -37zM332 705q176 10 176 245q0 117 -42 177t-140 53z" />
    <glyph glyph-name="Rcaron.alt" horiz-adv-x="823" 
d="M309 1477q-57 71 -213 227q43 37 121 121q55 -67 178 -178q55 57 164 180q35 -35 123 -103q-66 -73 -195 -233q-45 2 -178 -14zM555 -43q-66 230 -166 569q-37 -6 -57 -6q0 -36 8 -520q-123 2 -287 -2q1 60 2 170.5t2 481t-2 745.5q126 18 228 18q141 0 241.5 -30
t160.5 -89.5t87 -140.5t27 -190q0 -243 -176 -355l215 -614q-127 -12 -283 -37zM332 705q176 10 176 245q0 117 -42 177t-140 53z" />
    <glyph glyph-name="Rcommaaccent.alt" horiz-adv-x="823" 
d="M532 -180q0 -129 -176 -269l-88 72q54 49 82 103q-71 22 -71 104q0 48 36 79.5t93 31.5q56 0 90 -32.5t34 -88.5zM555 -43q-66 230 -166 569q-37 -6 -57 -6q0 -36 8 -520q-123 2 -287 -2q1 60 2 170.5t2 481t-2 745.5q126 18 228 18q141 0 241.5 -30t160.5 -89.5
t87 -140.5t27 -190q0 -243 -176 -355l215 -614q-127 -12 -283 -37zM332 705q176 10 176 245q0 117 -42 177t-140 53z" />
    <glyph glyph-name="Sacute.alt" horiz-adv-x="788" 
d="M399 -29q-414 0 -368 492q108 -2 286 4q-23 -272 84 -272q78 0 78 153q0 72 -40.5 128t-153.5 130q-135 89 -196.5 186.5t-61.5 247.5q0 186 101.5 275.5t272.5 89.5q208 0 293 -122.5t58 -367.5q-134 6 -281 0q33 267 -74 267q-80 0 -80 -156q0 -66 39 -123.5
t140 -118.5q84 -51 140 -102.5t85 -106t40 -105.5t11 -116q0 -178 -96.5 -280.5t-276.5 -102.5zM412 1491q-39 31 -72 54.5t-46 31.5l-13 8q58 88 107 164.5t69 109.5l20 33q53 -41 95 -72t58 -42l15 -11q-76 -88 -134.5 -157t-78.5 -94z" />
    <glyph glyph-name="Scaron.alt" horiz-adv-x="788" 
d="M315 1487q-57 71 -213 227q43 37 121 121q55 -67 178 -178q55 57 164 180q35 -34 123 -102q-65 -74 -194 -234q-46 2 -179 -14zM399 -29q-414 0 -368 492q108 -2 286 4q-23 -272 84 -272q78 0 78 153q0 72 -40.5 128t-153.5 130q-135 89 -196.5 186.5t-61.5 247.5
q0 186 101.5 275.5t272.5 89.5q208 0 293 -122.5t58 -367.5q-134 6 -281 0q33 267 -74 267q-80 0 -80 -156q0 -66 39 -123.5t140 -118.5q84 -51 140 -102.5t85 -106t40 -105.5t11 -116q0 -178 -96.5 -280.5t-276.5 -102.5z" />
    <glyph glyph-name="Scedilla.alt" horiz-adv-x="788" 
d="M479 348q0 72 -40.5 128t-153.5 130q-135 89 -196.5 186.5t-61.5 247.5q0 186 101.5 275.5t272.5 89.5q208 0 293 -122.5t58 -367.5q-134 6 -281 0q33 267 -74 267q-80 0 -80 -156q0 -66 39 -123.5t140 -118.5q84 -51 140 -102.5t85 -106t40 -105.5t11 -116
q0 -165 -82 -265.5t-237 -115.5l-4 -59q91 -3 141.5 -41.5t50.5 -101.5q0 -81 -67.5 -129t-174.5 -48q-95 0 -170 35q11 51 23 123q70 -37 156 -37q33 0 55 11.5t22 33.5q0 59 -172 45q19 66 33 168q-180 15 -258.5 136t-56.5 354q108 -2 286 4q-23 -272 84 -272
q78 0 78 153z" />
    <glyph glyph-name="Scircumflex.alt" horiz-adv-x="788" 
d="M225 1464q-35 35 -123 105q66 73 195 231q45 1 178 15q57 -72 213 -226q-43 -39 -121 -123q-55 68 -178 181q-55 -58 -164 -183zM399 -29q-414 0 -368 492q108 -2 286 4q-23 -272 84 -272q78 0 78 153q0 72 -40.5 128t-153.5 130q-135 89 -196.5 186.5t-61.5 247.5
q0 186 101.5 275.5t272.5 89.5q208 0 293 -122.5t58 -367.5q-134 6 -281 0q33 267 -74 267q-80 0 -80 -156q0 -66 39 -123.5t140 -118.5q84 -51 140 -102.5t85 -106t40 -105.5t11 -116q0 -178 -96.5 -280.5t-276.5 -102.5z" />
    <glyph glyph-name="Scommaaccent.alt" horiz-adv-x="788" 
d="M528 -176q0 -128 -176 -268l-88 71q54 49 82 103q-72 22 -72 104q0 48 36 79.5t93 31.5q56 0 90.5 -32.5t34.5 -88.5zM399 -29q-414 0 -368 492q108 -2 286 4q-23 -272 84 -272q78 0 78 153q0 72 -40.5 128t-153.5 130q-135 89 -196.5 186.5t-61.5 247.5
q0 186 101.5 275.5t272.5 89.5q208 0 293 -122.5t58 -367.5q-134 6 -281 0q33 267 -74 267q-80 0 -80 -156q0 -66 39 -123.5t140 -118.5q84 -51 140 -102.5t85 -106t40 -105.5t11 -116q0 -178 -96.5 -280.5t-276.5 -102.5z" />
    <glyph glyph-name="Tcaron.alt" horiz-adv-x="706" 
d="M274 1473q-57 71 -213 227q43 37 121 121q55 -68 178 -179q55 58 164 181q35 -35 123 -103q-65 -73 -194 -233q-46 2 -179 -14zM12 1126q2 77 -2 267q202 -2 686 8q-1 -12 -2 -33.5t-2 -92.5t0 -147q-94 2 -203 0q0 -432 9 -1103q-93 2 -279 -2q4 406 -4 1105z" />
    <glyph glyph-name="Tcommaaccent.alt" horiz-adv-x="706" 
d="M481 -156q0 -128 -176 -268l-88 72q55 50 82 102q-34 11 -53 38.5t-19 66.5q0 48 36 79t93 31q56 0 90.5 -32.5t34.5 -88.5zM12 1126q2 77 -2 267q202 -2 686 8q-1 -12 -2 -33.5t-2 -92.5t0 -147q-94 2 -203 0q0 -432 9 -1103q-93 2 -279 -2q4 406 -4 1105z" />
    <glyph glyph-name="Uacute.alt" horiz-adv-x="821" 
d="M440 1458q-39 31 -72 54.5t-46 31.5l-13 8q58 88 107.5 165t69.5 110l20 33q53 -41 95 -72t57 -42l16 -11q-76 -88 -134.5 -157t-79.5 -94zM414 -29q-210 0 -297.5 189.5t-87.5 597.5q0 344 41 661q86 -8 270 -20q-37 -339 -37 -578q0 -577 109 -577q24 0 40 17t29 65.5
t19 145t6 247.5q0 301 -33 700q97 -1 279 15q45 -360 45 -703q0 -404 -88.5 -582t-294.5 -178z" />
    <glyph glyph-name="Ubreve.alt" horiz-adv-x="821" 
d="M414 -29q-210 0 -297.5 189.5t-87.5 597.5q0 344 41 661q86 -8 270 -20q-37 -339 -37 -578q0 -577 109 -577q24 0 40 17t29 65.5t19 145t6 247.5q0 301 -33 700q97 -1 279 15q45 -360 45 -703q0 -404 -88.5 -582t-294.5 -178zM416 1495q-71 0 -123 22t-79 59.5
t-38.5 81.5t-7.5 93q53 -2 174 6q-3 -47 17.5 -76.5t62.5 -29.5q38 0 60 30.5t14 94.5q51 -2 176 2q7 -72 -11.5 -127.5t-55.5 -89t-85 -50t-104 -16.5z" />
    <glyph glyph-name="Ucircumflex.alt" horiz-adv-x="821" 
d="M250 1462q-35 35 -123 105q66 73 195 231q45 0 178 14q57 -71 213 -225q-43 -39 -121 -123q-55 68 -178 181q-55 -58 -164 -183zM414 -29q-210 0 -297.5 189.5t-87.5 597.5q0 344 41 661q86 -8 270 -20q-37 -339 -37 -578q0 -577 109 -577q24 0 40 17t29 65.5t19 145
t6 247.5q0 301 -33 700q97 -1 279 15q45 -360 45 -703q0 -404 -88.5 -582t-294.5 -178z" />
    <glyph glyph-name="Udieresis.alt" horiz-adv-x="821" 
d="M270 1511q-58 0 -90.5 40t-32.5 96q0 60 34.5 97.5t88.5 37.5q60 0 90.5 -38.5t30.5 -96.5q0 -68 -34 -102t-87 -34zM578 1520q-54 0 -86.5 37t-32.5 100q0 55 32 91t89 36q56 0 85 -37.5t29 -95.5q0 -63 -31 -97t-85 -34zM414 -29q-210 0 -297.5 189.5t-87.5 597.5
q0 344 41 661q86 -8 270 -20q-37 -339 -37 -578q0 -577 109 -577q24 0 40 17t29 65.5t19 145t6 247.5q0 301 -33 700q97 -1 279 15q45 -360 45 -703q0 -404 -88.5 -582t-294.5 -178z" />
    <glyph glyph-name="Ugrave.alt" horiz-adv-x="821" 
d="M424 1460q-62 80 -234 277q49 33 168 125q66 -111 197 -308q-43 -24 -131 -94zM414 -29q-210 0 -297.5 189.5t-87.5 597.5q0 344 41 661q86 -8 270 -20q-37 -339 -37 -578q0 -577 109 -577q24 0 40 17t29 65.5t19 145t6 247.5q0 301 -33 700q97 -1 279 15
q45 -360 45 -703q0 -404 -88.5 -582t-294.5 -178z" />
    <glyph glyph-name="Uhungarumlaut.alt" horiz-adv-x="821" 
d="M551 1485q-42 27 -75 47t-46 26l-12 7q53 88 99 166.5t65 113.5l20 35q56 -36 96 -61t52 -32l12 -7q-69 -94 -122 -167.5t-71 -100.5zM299 1491q-42 27 -75 46t-46 25l-12 5q51 92 93 171.5t59 112.5l16 33q56 -36 96.5 -60.5t53.5 -31.5l12 -6zM414 -29
q-210 0 -297.5 189.5t-87.5 597.5q0 344 41 661q86 -8 270 -20q-37 -339 -37 -578q0 -577 109 -577q24 0 40 17t29 65.5t19 145t6 247.5q0 301 -33 700q97 -1 279 15q45 -360 45 -703q0 -404 -88.5 -582t-294.5 -178z" />
    <glyph glyph-name="Umacron.alt" horiz-adv-x="821" 
d="M186 1544q2 53 -2 180q126 -1 471 5q-2 -46 -2 -181q-136 2 -467 -4zM414 -29q-210 0 -297.5 189.5t-87.5 597.5q0 344 41 661q86 -8 270 -20q-37 -339 -37 -578q0 -577 109 -577q24 0 40 17t29 65.5t19 145t6 247.5q0 301 -33 700q97 -1 279 15q45 -360 45 -703
q0 -404 -88.5 -582t-294.5 -178z" />
    <glyph glyph-name="Uogonek.alt" horiz-adv-x="821" 
d="M520 -375q-133 -12 -208.5 40t-75.5 157q0 94 77 162q-154 42 -219 229t-65 545q0 344 41 661q86 -8 270 -20q-37 -339 -37 -578q0 -577 109 -577q24 0 40 17t29 65.5t19 145t6 247.5q0 301 -33 700q97 -1 279 15q45 -360 45 -703q0 -391 -83.5 -570.5t-275.5 -189.5
q-41 -41 -41 -86q0 -93 135 -90q-6 -45 -12 -170z" />
    <glyph glyph-name="Uring.alt" horiz-adv-x="821" 
d="M418 1477q-92 0 -141.5 55.5t-49.5 142.5q0 86 54 137.5t139 51.5q91 0 142.5 -55t51.5 -134q0 -103 -56 -150.5t-140 -47.5zM422 1581q34 0 52 25t18 69q0 37 -19 64.5t-51 27.5q-34 0 -51 -26.5t-17 -67.5t18.5 -66.5t49.5 -25.5zM414 -29q-210 0 -297.5 189.5
t-87.5 597.5q0 344 41 661q86 -8 270 -20q-37 -339 -37 -578q0 -577 109 -577q24 0 40 17t29 65.5t19 145t6 247.5q0 301 -33 700q97 -1 279 15q45 -360 45 -703q0 -404 -88.5 -582t-294.5 -178z" />
    <glyph glyph-name="Yacute.alt" horiz-adv-x="837" 
d="M438 1458q-39 31 -72 54.5t-46 31.5l-13 8q58 88 107.5 165t69.5 110l20 33q53 -41 95 -72t57 -42l16 -11q-76 -88 -134.5 -157t-79.5 -94zM287 -45q6 52 -2 309q-74 352 -281 1141q55 0 301 10q49 -351 123 -758q55 333 121 752q80 -6 285 -6q-111 -438 -271 -1135
q-4 -27 6 -309q-59 2 -282 -4z" />
    <glyph glyph-name="Ydieresis.alt" horiz-adv-x="837" 
d="M266 1509q-58 0 -90.5 40t-32.5 96q0 60 34.5 97.5t88.5 37.5q60 0 90.5 -38.5t30.5 -96.5q0 -68 -34 -102t-87 -34zM573 1518q-54 0 -86 37t-32 100q0 55 32 91t88 36t85.5 -38t29.5 -95q0 -63 -31.5 -97t-85.5 -34zM287 -45q6 52 -2 309q-74 352 -281 1141q55 0 301 10
q49 -351 123 -758q55 333 121 752q80 -6 285 -6q-111 -438 -271 -1135q-4 -27 6 -309q-59 2 -282 -4z" />
    <glyph glyph-name="Zacute.alt" horiz-adv-x="684" 
d="M360 1473q-39 31 -72 54.5t-46 31.5l-13 8q58 88 107.5 164.5t69.5 109.5l20 33q53 -41 95 -72t57 -42l16 -11q-76 -88 -134.5 -157t-79.5 -94zM655 14q-182 5 -339.5 8.5t-223.5 3.5l-67 1l2 274q174 409 340 823l-336 -6q1 105 0.5 167t-1.5 87l-1 25l622 8l6 -293
q-190 -462 -333 -831l335 -5q-4 -95 -5 -160.5t0 -83.5z" />
    <glyph glyph-name="Zcaron.alt" horiz-adv-x="684" 
d="M264 1470q-57 72 -213 228q43 37 121 121q55 -68 178 -179q55 58 164 181q35 -35 123 -103q-66 -73 -195 -233q-45 1 -178 -15zM655 14q-182 5 -339.5 8.5t-223.5 3.5l-67 1l2 274q174 409 340 823l-336 -6q1 105 0.5 167t-1.5 87l-1 25l622 8l6 -293
q-190 -462 -333 -831l335 -5q-4 -95 -5 -160.5t0 -83.5z" />
    <glyph glyph-name="Zdotaccent.alt" horiz-adv-x="684" 
d="M655 14q-182 5 -339.5 8.5t-223.5 3.5l-67 1l2 274q174 409 340 823l-336 -6q1 105 0.5 167t-1.5 87l-1 25l622 8l6 -293q-190 -462 -333 -831l335 -5q-4 -95 -5 -160.5t0 -83.5zM344 1507q-73 0 -112 46.5t-39 109.5t40 106t111 43q72 0 112 -44.5t40 -104.5
q0 -75 -43 -115.5t-109 -40.5z" />
    <glyph glyph-name="aacute.alt" horiz-adv-x="759" 
d="M387 1067q-39 31 -72 54.5t-46 31.5l-13 8q58 88 107.5 164.5t69.5 109.5l20 33q53 -41 95 -72t58 -42l15 -11q-76 -88 -134.5 -157t-78.5 -94zM279 -41q-49 0 -94 15.5t-84 47.5t-62 87.5t-23 128.5q0 166 106 264.5t327 107.5q-1 25 -3 45q-5 92 -18.5 127t-48.5 35
q-41 0 -58.5 -42t-15.5 -128q-104 15 -256 21q0 175 83.5 260.5t256.5 85.5q316 0 326 -371q4 -165 4.5 -340t-1.5 -267l-1 -93q-62 -2 -207 -4q6 75 8 167q-29 -75 -93 -111t-146 -36zM461 371l-2 102q-176 -17 -176 -201q0 -56 21 -87t58 -31q49 0 74 51t25 166z" />
    <glyph glyph-name="abreve.alt" horiz-adv-x="759" 
d="M279 -41q-49 0 -94 15.5t-84 47.5t-62 87.5t-23 128.5q0 166 106 264.5t327 107.5q-1 25 -3 45q-5 92 -18.5 127t-48.5 35q-41 0 -58.5 -42t-15.5 -128q-104 15 -256 21q0 175 83.5 260.5t256.5 85.5q316 0 326 -371q4 -165 4.5 -340t-1.5 -267l-1 -93q-62 -2 -207 -4
q6 75 8 167q-29 -75 -93 -111t-146 -36zM461 371l-2 102q-176 -17 -176 -201q0 -56 21 -87t58 -31q49 0 74 51t25 166zM367 1090q-71 0 -123 22t-79 59.5t-38.5 81.5t-7.5 93q53 -2 174 6q-3 -47 18 -77t62 -30q38 0 59.5 30.5t13.5 94.5q52 -2 177 2q7 -72 -11.5 -127.5
t-55.5 -88.5t-85 -49.5t-104 -16.5z" />
    <glyph glyph-name="acircumflex.alt" horiz-adv-x="759" 
d="M201 1057q-35 34 -123 104q65 74 194 232q46 0 179 14q57 -71 213 -225q-43 -39 -121 -123q-55 67 -178 180q-55 -57 -164 -182zM279 -41q-49 0 -94 15.5t-84 47.5t-62 87.5t-23 128.5q0 166 106 264.5t327 107.5q-1 25 -3 45q-5 92 -18.5 127t-48.5 35q-41 0 -58.5 -42
t-15.5 -128q-104 15 -256 21q0 175 83.5 260.5t256.5 85.5q316 0 326 -371q4 -165 4.5 -340t-1.5 -267l-1 -93q-62 -2 -207 -4q6 75 8 167q-29 -75 -93 -111t-146 -36zM461 371l-2 102q-176 -17 -176 -201q0 -56 21 -87t58 -31q49 0 74 51t25 166z" />
    <glyph glyph-name="adieresis.alt" horiz-adv-x="759" 
d="M219 1102q-58 0 -90.5 39.5t-32.5 95.5q0 60 34.5 97.5t88.5 37.5q60 0 90.5 -38.5t30.5 -96.5q0 -68 -34 -101.5t-87 -33.5zM526 1110q-54 0 -86 37t-32 100q0 55 32 91t88 36t85.5 -38t29.5 -95q0 -63 -31.5 -97t-85.5 -34zM279 -41q-49 0 -94 15.5t-84 47.5t-62 87.5
t-23 128.5q0 166 106 264.5t327 107.5q-1 25 -3 45q-5 92 -18.5 127t-48.5 35q-41 0 -58.5 -42t-15.5 -128q-104 15 -256 21q0 175 83.5 260.5t256.5 85.5q316 0 326 -371q4 -165 4.5 -340t-1.5 -267l-1 -93q-62 -2 -207 -4q6 75 8 167q-29 -75 -93 -111t-146 -36zM461 371
l-2 102q-176 -17 -176 -201q0 -56 21 -87t58 -31q49 0 74 51t25 166z" />
    <glyph glyph-name="agrave.alt" horiz-adv-x="759" 
d="M279 -41q-49 0 -94 15.5t-84 47.5t-62 87.5t-23 128.5q0 166 106 264.5t327 107.5q-1 25 -3 45q-5 92 -18.5 127t-48.5 35q-41 0 -58.5 -42t-15.5 -128q-104 15 -256 21q0 175 83.5 260.5t256.5 85.5q316 0 326 -371q4 -165 4.5 -340t-1.5 -267l-1 -93q-62 -2 -207 -4
q6 75 8 167q-29 -75 -93 -111t-146 -36zM461 371l-2 102q-176 -17 -176 -201q0 -56 21 -87t58 -31q49 0 74 51t25 166zM373 1067q-62 79 -234 276q49 33 168 125q66 -110 197 -307q-43 -24 -131 -94z" />
    <glyph glyph-name="amacron.alt" horiz-adv-x="759" 
d="M279 -41q-49 0 -94 15.5t-84 47.5t-62 87.5t-23 128.5q0 166 106 264.5t327 107.5q-1 25 -3 45q-5 92 -18.5 127t-48.5 35q-41 0 -58.5 -42t-15.5 -128q-104 15 -256 21q0 175 83.5 260.5t256.5 85.5q316 0 326 -371q4 -165 4.5 -340t-1.5 -267l-1 -93q-62 -2 -207 -4
q6 75 8 167q-29 -75 -93 -111t-146 -36zM461 371l-2 102q-176 -17 -176 -201q0 -56 21 -87t58 -31q49 0 74 51t25 166zM137 1133q2 53 -2 180q126 -2 471 4q-2 -45 -2 -180q-136 2 -467 -4z" />
    <glyph glyph-name="aogonek.alt" horiz-adv-x="759" 
d="M279 -41q-49 0 -94 15.5t-84 47.5t-62 87.5t-23 128.5q0 166 106 264.5t327 107.5q-1 25 -3 45q-5 92 -18.5 127t-48.5 35q-41 0 -58.5 -42t-15.5 -128q-104 15 -256 21q0 175 83.5 260.5t256.5 85.5q316 0 326 -371q4 -165 4.5 -340t-1.5 -267l-1 -93q-36 -2 -99 -2
q-63 -54 -63 -109q0 -93 135 -90q-6 -45 -12 -170q-133 -12 -209 40t-76 157q0 116 119 194l6 143q-29 -75 -93 -111t-146 -36zM461 371l-2 102q-176 -17 -176 -201q0 -56 21 -87t58 -31q49 0 74 51t25 166z" />
    <glyph glyph-name="aring.alt" horiz-adv-x="759" 
d="M367 1083q-92 0 -141.5 56t-49.5 143q0 86 54 137t139 51q91 0 142.5 -54.5t51.5 -133.5q0 -103 -56 -151t-140 -48zM371 1188q69 0 69 94q0 38 -18.5 65t-50.5 27q-34 0 -51 -26.5t-17 -67.5t18.5 -66.5t49.5 -25.5zM279 -41q-49 0 -94 15.5t-84 47.5t-62 87.5
t-23 128.5q0 166 106 264.5t327 107.5q-1 25 -3 45q-5 92 -18.5 127t-48.5 35q-41 0 -58.5 -42t-15.5 -128q-104 15 -256 21q0 175 83.5 260.5t256.5 85.5q316 0 326 -371q4 -165 4.5 -340t-1.5 -267l-1 -93q-62 -2 -207 -4q6 75 8 167q-29 -75 -93 -111t-146 -36zM461 371
l-2 102q-176 -17 -176 -201q0 -56 21 -87t58 -31q49 0 74 51t25 166z" />
    <glyph glyph-name="atilde.alt" horiz-adv-x="759" 
d="M279 -41q-49 0 -94 15.5t-84 47.5t-62 87.5t-23 128.5q0 166 106 264.5t327 107.5q-1 25 -3 45q-5 92 -18.5 127t-48.5 35q-41 0 -58.5 -42t-15.5 -128q-104 15 -256 21q0 175 83.5 260.5t256.5 85.5q316 0 326 -371q4 -165 4.5 -340t-1.5 -267l-1 -93q-62 -2 -207 -4
q6 75 8 167q-29 -75 -93 -111t-146 -36zM461 371l-2 102q-176 -17 -176 -201q0 -56 21 -87t58 -31q49 0 74 51t25 166zM238 1100q-48 0 -152 -6q-7 131 39.5 207.5t122.5 76.5q43 0 86 -25.5t77 -51t56 -25.5q29 0 39 22t4 72q33 -2 139 10q20 -137 -20.5 -210.5
t-132.5 -73.5q-39 0 -80 23t-75 46t-58 23q-51 0 -45 -88z" />
    <glyph glyph-name="cacute.alt" 
d="M412 -29q-187 0 -283 125t-96 402q0 253 95.5 388.5t293.5 135.5q170 0 259 -109t83 -307l-277 -8q6 227 -75 227q-93 0 -93 -336q0 -307 93 -307q81 0 73 238q89 4 279 14q6 -463 -352 -463zM418 1077q-39 31 -72 54.5t-46 31.5l-13 8q58 88 107 165t69 110l20 33
q53 -41 95 -72t58 -42l15 -11q-76 -88 -134.5 -157t-78.5 -95z" />
    <glyph glyph-name="ccaron.alt" 
d="M322 1067q-57 71 -213 227q42 37 120 121q56 -67 179 -178q54 57 163 180q35 -34 123 -102q-65 -74 -194 -234q-45 2 -178 -14zM412 -29q-187 0 -283 125t-96 402q0 253 95.5 388.5t293.5 135.5q170 0 259 -109t83 -307l-277 -8q6 227 -75 227q-93 0 -93 -336
q0 -307 93 -307q81 0 73 238q89 4 279 14q6 -463 -352 -463z" />
    <glyph glyph-name="ccedilla.alt" 
d="M764 434q6 -433 -307 -461l-4 -57q91 -3 141.5 -41.5t50.5 -101.5q0 -81 -67.5 -128.5t-174.5 -47.5q-98 0 -170 34q11 51 23 123q70 -37 156 -37q33 0 55 11.5t22 33.5q0 59 -172 45q19 66 33 168q-157 18 -237 143.5t-80 379.5q0 253 95.5 388.5t293.5 135.5
q170 0 259 -109t83 -307l-277 -8q6 227 -75 227q-93 0 -93 -336q0 -307 93 -307q81 0 73 238q89 4 279 14z" />
    <glyph glyph-name="ccircumflex.alt" 
d="M231 1059q-34 34 -122 104q65 74 194 232q45 0 178 14q57 -71 213 -225q-43 -39 -121 -123q-55 67 -178 180q-55 -57 -164 -182zM412 -29q-187 0 -283 125t-96 402q0 253 95.5 388.5t293.5 135.5q170 0 259 -109t83 -307l-277 -8q6 227 -75 227q-93 0 -93 -336
q0 -307 93 -307q81 0 73 238q89 4 279 14q6 -463 -352 -463z" />
    <glyph glyph-name="dcaron.alt" horiz-adv-x="835" 
d="M1118 1321q0 -128 -176 -268l-88 71q54 49 82 103q-72 22 -72 104q0 48 36 79.5t93 31.5q56 0 90.5 -32.5t34.5 -88.5zM778 14q-84 2 -223 2q2 52 4 142q-31 -79 -87.5 -122.5t-129.5 -43.5q-309 0 -309 514q0 234 74.5 370t218.5 136q119 0 186 -127q-4 278 -16 545
q57 -4 286 2q-1 -69 -2.5 -189.5t-3.5 -505t2 -723.5zM416 180q28 0 46.5 25t30 95t11.5 189q0 322 -92 322q-84 0 -84 -315q0 -316 88 -316z" />
    <glyph glyph-name="eacute.alt" horiz-adv-x="796" 
d="M418 1067q-39 31 -72 54.5t-46 31.5l-13 8q58 88 107 164.5t69 109.5l20 33q53 -41 95 -72t58 -42l15 -11q-76 -88 -134.5 -157t-78.5 -94zM408 -16q-190 0 -282.5 127.5t-92.5 394.5q0 108 21 197t64.5 158t116 107t168.5 38q108 0 182.5 -42.5t114.5 -124t54 -187
t6 -242.5q-178 -3 -447 -7q6 -122 29 -172.5t68 -50.5q40 0 59.5 36.5t22.5 127.5q122 -14 274 -22q-14 -150 -106.5 -244t-251.5 -94zM401 823q-44 0 -64.5 -61.5t-23.5 -198.5q52 0 166 4q1 149 -17.5 202.5t-60.5 53.5z" />
    <glyph glyph-name="ecaron.alt" horiz-adv-x="796" 
d="M319 1057q-57 71 -213 227q43 37 121 121q56 -67 179 -178q54 57 163 180q35 -34 123 -102q-65 -74 -194 -234q-46 2 -179 -14zM408 -16q-190 0 -282.5 127.5t-92.5 394.5q0 108 21 197t64.5 158t116 107t168.5 38q108 0 182.5 -42.5t114.5 -124t54 -187t6 -242.5
q-178 -3 -447 -7q6 -122 29 -172.5t68 -50.5q40 0 59.5 36.5t22.5 127.5q122 -14 274 -22q-14 -150 -106.5 -244t-251.5 -94zM401 823q-44 0 -64.5 -61.5t-23.5 -198.5q52 0 166 4q1 149 -17.5 202.5t-60.5 53.5z" />
    <glyph glyph-name="ecircumflex.alt" horiz-adv-x="796" 
d="M229 1053q-35 34 -123 104q66 74 195 232q45 0 178 14q57 -71 213 -225q-43 -39 -121 -123q-55 67 -178 180q-55 -57 -164 -182zM408 -16q-190 0 -282.5 127.5t-92.5 394.5q0 108 21 197t64.5 158t116 107t168.5 38q108 0 182.5 -42.5t114.5 -124t54 -187t6 -242.5
q-178 -3 -447 -7q6 -122 29 -172.5t68 -50.5q40 0 59.5 36.5t22.5 127.5q122 -14 274 -22q-14 -150 -106.5 -244t-251.5 -94zM401 823q-44 0 -64.5 -61.5t-23.5 -198.5q52 0 166 4q1 149 -17.5 202.5t-60.5 53.5z" />
    <glyph glyph-name="edieresis.alt" horiz-adv-x="796" 
d="M250 1090q-58 0 -90.5 39.5t-32.5 95.5q0 60 34.5 97.5t88.5 37.5q60 0 90.5 -38.5t30.5 -96.5q0 -68 -34 -101.5t-87 -33.5zM557 1098q-54 0 -86.5 37t-32.5 100q0 55 32 91t89 36q56 0 85.5 -38t29.5 -95q0 -63 -31.5 -97t-85.5 -34zM408 -16q-190 0 -282.5 127.5
t-92.5 394.5q0 108 21 197t64.5 158t116 107t168.5 38q108 0 182.5 -42.5t114.5 -124t54 -187t6 -242.5q-178 -3 -447 -7q6 -122 29 -172.5t68 -50.5q40 0 59.5 36.5t22.5 127.5q122 -14 274 -22q-14 -150 -106.5 -244t-251.5 -94zM401 823q-44 0 -64.5 -61.5t-23.5 -198.5
q52 0 166 4q1 149 -17.5 202.5t-60.5 53.5z" />
    <glyph glyph-name="edotaccent.alt" horiz-adv-x="796" 
d="M401 1100q-73 0 -112 46t-39 109t40 106.5t111 43.5q72 0 112 -44.5t40 -105.5q0 -75 -43 -115t-109 -40zM408 -16q-190 0 -282.5 127.5t-92.5 394.5q0 108 21 197t64.5 158t116 107t168.5 38q108 0 182.5 -42.5t114.5 -124t54 -187t6 -242.5q-178 -3 -447 -7
q6 -122 29 -172.5t68 -50.5q40 0 59.5 36.5t22.5 127.5q122 -14 274 -22q-14 -150 -106.5 -244t-251.5 -94zM401 823q-44 0 -64.5 -61.5t-23.5 -198.5q52 0 166 4q1 149 -17.5 202.5t-60.5 53.5z" />
    <glyph glyph-name="egrave.alt" horiz-adv-x="796" 
d="M403 1067q-61 79 -233 276q49 33 168 125q66 -110 197 -307q-44 -24 -132 -94zM408 -16q-190 0 -282.5 127.5t-92.5 394.5q0 108 21 197t64.5 158t116 107t168.5 38q108 0 182.5 -42.5t114.5 -124t54 -187t6 -242.5q-178 -3 -447 -7q6 -122 29 -172.5t68 -50.5
q40 0 59.5 36.5t22.5 127.5q122 -14 274 -22q-14 -150 -106.5 -244t-251.5 -94zM401 823q-44 0 -64.5 -61.5t-23.5 -198.5q52 0 166 4q1 149 -17.5 202.5t-60.5 53.5z" />
    <glyph glyph-name="emacron.alt" horiz-adv-x="796" 
d="M166 1135q2 53 -2 180q126 -2 471 4q-2 -45 -2 -180q-136 2 -467 -4zM408 -16q-190 0 -282.5 127.5t-92.5 394.5q0 108 21 197t64.5 158t116 107t168.5 38q108 0 182.5 -42.5t114.5 -124t54 -187t6 -242.5q-178 -3 -447 -7q6 -122 29 -172.5t68 -50.5q40 0 59.5 36.5
t22.5 127.5q122 -14 274 -22q-14 -150 -106.5 -244t-251.5 -94zM401 823q-44 0 -64.5 -61.5t-23.5 -198.5q52 0 166 4q1 149 -17.5 202.5t-60.5 53.5z" />
    <glyph glyph-name="eogonek.alt" horiz-adv-x="796" 
d="M535 -389q-133 -12 -209 39.5t-76 156.5q0 108 98 181q-160 19 -237.5 145t-77.5 373q0 108 21 197t64.5 158t116 107t168.5 38q108 0 182.5 -42.5t114.5 -124t54 -187t6 -242.5q-178 -3 -447 -7q6 -122 29 -172.5t68 -50.5q40 0 59.5 36.5t22.5 127.5q122 -14 274 -22
q-12 -129 -82.5 -217.5t-191.5 -112.5q-80 -60 -80 -121q0 -93 135 -90q-6 -45 -12 -170zM401 823q-44 0 -64.5 -61.5t-23.5 -198.5q52 0 166 4q1 149 -17.5 202.5t-60.5 53.5z" />
    <glyph glyph-name="gbreve.alt" horiz-adv-x="745" 
d="M381 383q42 0 63 53t21 176q0 228 -84 228q-46 0 -67 -56t-21 -172q0 -229 88 -229zM526 -217q0 43 -40.5 66t-125.5 32q-94 -54 -94 -121q0 -40 32 -59.5t87 -19.5q58 0 99.5 30.5t41.5 71.5zM784 -168q0 -145 -118 -235.5t-289 -90.5q-167 0 -265 57t-98 171
q0 67 53.5 121t131.5 79q-88 48 -88 150q0 100 94 164q-180 86 -180 377q0 83 21.5 154.5t63.5 128t112 88.5t161 32q92 0 161 -33t109 -90.5t59 -127.5t19 -152q0 -196 -90.5 -305t-243.5 -109q-43 0 -63 2q-25 -25 -25 -51t30.5 -41t115.5 -27q177 -22 253 -87t76 -175z
M373 1104q-71 0 -123 22t-79 59.5t-38.5 81.5t-7.5 93q53 -2 174 6q-3 -47 17.5 -76.5t62.5 -29.5q38 0 60 30t14 94q51 -2 176 2q7 -72 -11.5 -127.5t-55.5 -88.5t-85 -49.5t-104 -16.5z" />
    </font>
</defs>
</svg>
